<?xml version="1.0" standalone="no"?>
<!DOCTYPE svg PUBLIC "-//W3C//DTD SVG 1.1//EN" "http://www.w3.org/Graphics/SVG/1.1/DTD/svg11.dtd" >
<svg xmlns="http://www.w3.org/2000/svg" xmlns:xlink="http://www.w3.org/1999/xlink" version="1.1">
<metadata>
Created by FontForge 20201107 at Mon Nov 16 01:16:37 2015
 By 
Copyright (c) 2014 by Typesketchbook. All rights reserved.
</metadata>
<defs>
<font id="NoyhR-Bold" horiz-adv-x="504" >
  <font-face 
    font-family="Noyh R Bold"
    font-weight="400"
    font-stretch="normal"
    units-per-em="1000"
    panose-1="2 0 0 0 0 0 0 0 0 0"
    ascent="759"
    descent="-241"
    x-height="400"
    cap-height="568"
    bbox="-48 -242 1128 863"
    underline-thickness="35"
    underline-position="-140"
    unicode-range="U+0020-FB02"
  />
<missing-glyph horiz-adv-x="569" 
d="M30 0v628h509v-628h-509zM76 35q0 9 -8 11h8v-11zM493 590q0 -8 8 -8h-8v8zM501 46q-8 -2 -8 -9v9h8zM68 582q6 0 8 8v-8h-8zM76 46h417v536h-417v-536z" />
    <glyph glyph-name="fi" unicode="fi" horiz-adv-x="605" 
d="M484 405q20 0 35.5 -15t15.5 -37v-296q0 -23 -17 -40t-40 -17t-39.5 17t-16.5 40v245h-209v-245q0 -23 -17 -40t-40 -17t-39.5 17t-16.5 40v245h-29q-20 0 -35.5 15.5t-15.5 35.5q0 22 15.5 37t35.5 15h29v31q0 102 35 145.5t106 43.5q10 0 28 -1.5t40 -10.5
q15 -5 24 -17.5t9 -26.5q0 -20 -15 -33.5t-36 -13.5q-8 0 -16 1.5t-17 1.5q-29 0 -37 -23t-8 -66v-31h271v0z" />
    <glyph glyph-name="fl" unicode="fl" horiz-adv-x="605" 
d="M291 522q-8 0 -16 1.5t-17 1.5q-29 0 -37 -23t-8 -66v-31h60q20 0 35.5 -15t15.5 -37q0 -20 -15.5 -35.5t-35.5 -15.5h-60v-245q0 -23 -17 -40t-40 -17t-39.5 17t-16.5 40v245h-29q-20 0 -35.5 15.5t-15.5 35.5q0 22 15.5 37t35.5 15h29v31q0 102 35 145.5t106 43.5
q10 0 28 -1.5t40 -10.5q15 -5 24 -17.5t9 -26.5q0 -20 -15 -33.5t-36 -13.5zM422 511q0 23 16.5 40t39.5 17t40 -17t17 -40v-454q0 -23 -17 -40t-40 -17t-39.5 17t-16.5 40v454z" />
    <glyph glyph-name=".notdef" horiz-adv-x="569" 
d="M30 0v628h509v-628h-509zM76 35q0 9 -8 11h8v-11zM493 590q0 -8 8 -8h-8v8zM501 46q-8 -2 -8 -9v9h8zM68 582q6 0 8 8v-8h-8zM76 46h417v536h-417v-536z" />
    <glyph glyph-name=".null" horiz-adv-x="0" 
 />
    <glyph glyph-name="nonmarkingreturn" horiz-adv-x="283" 
 />
    <glyph glyph-name="space" unicode=" " horiz-adv-x="199" 
 />
    <glyph glyph-name="exclam" unicode="!" horiz-adv-x="260" 
d="M70 55q0 26 17 43t43 17t43 -17t17 -43t-17 -43t-43 -17t-43 17t-17 43zM130 155q-18 0 -30.5 13t-13.5 31l-14 314q0 23 18.5 39t41.5 16t39.5 -16t16.5 -39l-14 -314q-1 -18 -13.5 -31t-30.5 -13z" />
    <glyph glyph-name="quotedbl" unicode="&#x22;" horiz-adv-x="400" 
d="M161 417q0 -17 -13 -30t-30 -13q-16 0 -28 13t-12 30l-8 101q0 20 14 35t34 15t35 -15t15 -35zM323 417q0 -17 -13 -30t-30 -13q-16 0 -28 13t-12 30l-8 101q0 20 14 35t34 15t35 -15t15 -35z" />
    <glyph glyph-name="numbersign" unicode="#" horiz-adv-x="785" 
d="M481 326h-134l-37 -99h134zM168 326q-20 0 -35 15.5t-15 35.5q0 21 15 36.5t35 15.5h101l41 109q8 14 22 22t29 8q21 0 40 -12t19 -36l-34 -91h134l41 109q8 14 22 22t29 8q21 0 40 -12t19 -36l-34 -91h28q20 0 35 -15.5t15 -36.5q0 -20 -15 -35.5t-35 -15.5h-67l-37 -99
h65q20 0 35 -15.5t15 -36.5q0 -20 -15 -35.5t-35 -15.5h-104l-35 -94q-8 -14 -22 -22t-29 -8q-21 0 -40 12t-19 36l28 76h-134l-35 -94q-8 -14 -22 -22t-29 -8q-21 0 -40 12t-19 36l28 76h-34q-20 0 -35 15.5t-15 35.5q0 21 15 36.5t35 15.5h73l37 99h-62z" />
    <glyph glyph-name="dollar" unicode="$" horiz-adv-x="554" 
d="M210 0q-27 3 -54 9.5t-52 20.5q-16 5 -25 18.5t-9 30.5q0 18 13 34.5t32 16.5q5 0 8 -2q16 -9 58 -21t99 -12q18 0 34.5 4.5t29 12.5t20.5 19t8 23q0 23 -22 37.5t-55 26.5t-71 25t-71 34t-55 53t-22 82q0 62 34 102t100 54v36q0 23 16.5 40t39.5 17t40 -17t17 -40v-33
q26 -5 49.5 -11.5t42.5 -12.5q17 -6 27 -20.5t10 -31.5q0 -19 -15.5 -34.5t-33.5 -15.5l-25 7.5t-32.5 8.5t-34.5 7t-31 3q-33 0 -51.5 -8.5t-27.5 -19t-10.5 -21.5t-1.5 -15q0 -26 22 -42t54.5 -29t71 -26t71 -33.5t54.5 -51.5t22 -79q0 -31 -14.5 -56.5t-37.5 -45
t-52 -31.5t-57 -16v-37q0 -23 -17 -40t-40 -17t-39.5 17t-16.5 40v40z" />
    <glyph glyph-name="percent" unicode="%" horiz-adv-x="870" 
d="M215 568q29 0 54.5 -11t45 -30.5t31 -45.5t11.5 -56q0 -29 -11.5 -55.5t-31 -46t-45 -31t-54.5 -11.5q-30 0 -56 11.5t-46 31t-31.5 46t-11.5 55.5q0 30 11.5 56t31.5 45.5t46 30.5t56 11zM215 366q20 0 35 16.5t15 42.5q0 25 -15 39t-35 14q-22 0 -37.5 -13.5
t-15.5 -39.5t15.5 -42.5t37.5 -16.5zM658 287q29 0 54.5 -11t45 -30.5t31 -45.5t11.5 -56q0 -29 -11.5 -55.5t-31 -46t-45 -31t-54.5 -11.5q-30 0 -56 11.5t-46 31t-31.5 46t-11.5 55.5q0 30 11.5 56t31.5 45.5t46 30.5t56 11zM658 85q20 0 35 16.5t15 42.5q0 25 -15 39
t-35 14q-22 0 -37.5 -13.5t-15.5 -39.5t15.5 -42.5t37.5 -16.5zM359 30q-7 -14 -22 -22t-31 -8q-22 0 -40.5 12.5t-18.5 36.5l265 489q7 14 22 22t31 8q22 0 40.5 -12.5t18.5 -36.5z" />
    <glyph glyph-name="ampersand" unicode="&#x26;" horiz-adv-x="626" 
d="M274 95q17 0 34.5 10.5t34.5 28.5q-24 22 -37 35l-22.5 22.5l-19 19t-25.5 26.5q-13 -2 -23.5 -9.5t-17.5 -18t-11 -21.5t-4 -20q0 -25 8 -39.5t21 -22t29 -9.5t33 -2zM480 140l69 -71q5 -8 5 -16q0 -23 -18 -38t-37 -15q-18 0 -29.5 12t-27.5 27l-32 32
q-21 -25 -44.5 -40t-44.5 -23t-37.5 -10.5t-24.5 -2.5q-38 0 -72 12t-60 35.5t-41.5 56.5t-15.5 75q0 18 7.5 40t21.5 44t34 40.5t46 29.5q-29 32 -36 57.5t-7 49.5q0 28 11 53.5t35 45t61.5 30.5t90.5 11q35 0 59.5 -5.5t43.5 -13.5q29 -18 29 -53q-3 -20 -18.5 -32
t-35.5 -12q-7 0 -10 1q-30 11 -65 11q-33 0 -50.5 -8.5t-26 -19t-10 -21.5t-1.5 -15q0 -15 13 -36t36 -46t54 -54.5t67 -60.5l37 40l24.5 24.5t26.5 10.5q17 0 33 -14t16 -34q0 -7 -5 -14z" />
    <glyph glyph-name="quotesingle" unicode="'" horiz-adv-x="238" 
d="M161 417q0 -17 -13 -30t-30 -13q-16 0 -28 13t-12 30l-8 101q0 20 14 35t34 15t35 -15t15 -35z" />
    <glyph glyph-name="parenleft" unicode="(" horiz-adv-x="341" 
d="M270 661q-43 -99 -65 -198t-22 -199q0 -97 19.5 -190t66.5 -192q1 -4 1 -11q0 -23 -18 -32.5t-35 -9.5t-34 14t-23 30q-47 99 -68.5 196.5t-21.5 194.5q0 203 91 406q6 16 23 30t34 14t35 -9.5t18 -32.5q0 -7 -1 -11z" />
    <glyph glyph-name="parenright" unicode=")" horiz-adv-x="341" 
d="M71 661q-1 4 -1 11q0 23 18 32.5t35 9.5t34 -14t23 -30q91 -203 91 -406q0 -97 -21.5 -194.5t-68.5 -196.5q-6 -16 -23 -30t-34 -14t-35 9.5t-18 32.5q0 7 1 11q47 99 66.5 192t19.5 190q0 100 -22 199t-65 198z" />
    <glyph glyph-name="asterisk" unicode="*" horiz-adv-x="518" 
d="M221 216q-5 -11 -18 -20.5t-28 -9.5q-10 0 -18 4q-14 6 -21.5 19t-7.5 27q0 11 4 20l52 77l-80 32q-16 5 -25 18.5t-9 28.5q0 7 3 15q5 15 18.5 24t29.5 9q8 0 16 -3l82 -46l-8 107q0 20 14 35t34 15t34 -15t14 -35l-8 -107l82 46q7 3 16 3q16 0 29.5 -9t18.5 -24
q3 -8 3 -15q0 -15 -9 -28.5t-25 -18.5l-80 -32l52 -77q4 -9 4 -20q0 -14 -7.5 -27t-21.5 -19q-8 -4 -18 -4q-15 0 -28 9.5t-18 20.5l-39 75z" />
    <glyph glyph-name="plus" unicode="+" horiz-adv-x="477" 
d="M357 263q20 0 35 -15.5t15 -36.5q0 -20 -15 -35.5t-35 -15.5h-67v-74q0 -22 -15.5 -37.5t-35.5 -15.5q-22 0 -37 15.5t-15 37.5v74h-67q-20 0 -35 15.5t-15 35.5q0 21 15 36.5t35 15.5h67v74q0 22 15 37.5t37 15.5q20 0 35.5 -15.5t15.5 -37.5v-74h67v0z" />
    <glyph glyph-name="comma" unicode="," horiz-adv-x="261" 
d="M143 -63q-8 -17 -18 -20.5t-22 -3.5q-25 0 -25 24l20 59q-28 16 -28 51q0 26 17.5 43t43.5 17t43 -17t17 -43q0 -16 -7 -26z" />
    <glyph glyph-name="hyphen" unicode="-" horiz-adv-x="490" 
d="M120 145q-20 0 -35 15.5t-15 35.5q0 21 15 36.5t35 15.5h250q20 0 35 -15.5t15 -36.5q0 -20 -15 -35.5t-35 -15.5h-250z" />
    <glyph glyph-name="period" unicode="." horiz-adv-x="260" 
d="M70 55q0 26 17 43t43 17t43 -17t17 -43t-17 -43t-43 -17t-43 17t-17 43z" />
    <glyph glyph-name="slash" unicode="/" horiz-adv-x="519" 
d="M339 638q7 14 21 22t30 8q22 0 40.5 -12.5t18.5 -36.5l-269 -715q-7 -14 -21 -22t-30 -8q-22 0 -40.5 12.5t-18.5 36.5z" />
    <glyph glyph-name="zero" unicode="0" horiz-adv-x="593" 
d="M297 575q60 0 106.5 -23t79 -62t49 -92t16.5 -113t-16.5 -113t-49 -92t-79 -62t-106.5 -23t-107 23t-79 62t-49 92t-17 113t17 113t49 92t79 62t107 23zM296 95q39 0 65.5 14.5t43 40t23.5 59.5t7 73t-7 73t-23.5 59.5t-43 40.5t-65.5 15t-65.5 -15t-42.5 -40.5
t-23 -59.5t-7 -73t7 -73t23 -59.5t42.5 -40t65.5 -14.5z" />
    <glyph glyph-name="one" unicode="1" horiz-adv-x="386" 
d="M316 57q0 -23 -17 -40t-40 -17t-39.5 17t-16.5 40v347q-25 -20 -59 -32.5t-62 -12.5q-20 0 -36 15.5t-16 35.5q0 19 12 34t29 19q32 9 63.5 23t59 28.5t51 27t39.5 20.5q6 2 9 2q10 0 16.5 -6.5t6.5 -16.5v-484z" />
    <glyph glyph-name="two" unicode="2" horiz-adv-x="514" 
d="M106 549q26 10 59.5 18t67.5 8q106 0 163 -43t57 -120q0 -42 -12.5 -74t-33.5 -58t-47 -47.5t-53.5 -42t-53.5 -42t-46 -47.5h198q19 0 34 -15.5t15 -35.5q0 -19 -15 -34.5t-34 -15.5h-296q-19 0 -34 15.5t-15 34.5q0 39 20.5 72t52 62.5t67.5 57t67.5 54t52 54
t20.5 57.5q0 4 -1.5 15t-12 21.5t-33 19t-63.5 8.5q-20 0 -46.5 -6t-47.5 -14q-8 -2 -12 -2q-17 0 -31.5 10.5t-19.5 25.5q-1 4 -1.5 7t-0.5 7q0 17 9.5 31t25.5 19z" />
    <glyph glyph-name="three" unicode="3" horiz-adv-x="500" 
d="M228 267q-11 0 -21 8.5t-10 19.5q0 5 2 8.5t4 8.5l68 153h-176q-20 0 -35 15.5t-15 35.5q0 21 15 36.5t35 15.5h307q10 0 18 -9t8 -22q0 -4 -2 -12l-93 -188q57 -16 84.5 -55.5t27.5 -91.5q0 -42 -12.5 -77.5t-39 -62t-67.5 -41t-97 -14.5q-16 0 -35.5 2.5t-39.5 7.5
t-39 12t-34 16q-27 16 -27 47q0 19 15 35t34 16q25 -12 59.5 -24t67.5 -12q59 0 80.5 24t21.5 70q0 21 -8.5 36t-23 24t-33 13.5t-39.5 4.5z" />
    <glyph glyph-name="four" unicode="4" horiz-adv-x="536" 
d="M313 424l-123 -195h123v195zM426 126v-69q0 -23 -17 -40t-40 -17t-39.5 17t-16.5 40v69h-207q-23 0 -39.5 17t-16.5 40v23q0 5 2 10.5t4 9.5l197 315q8 12 20.5 19.5t27.5 7.5h68q23 0 40 -17t17 -40v-282h30q20 0 35 -15.5t15 -36.5q0 -20 -15 -35.5t-35 -15.5h-30z" />
    <glyph glyph-name="five" unicode="5" horiz-adv-x="489" 
d="M61 516q0 22 15.5 37t35.5 15h261q20 0 35.5 -15t15.5 -37q0 -20 -15.5 -35.5t-35.5 -15.5h-199v-116q40 15 85 15q41 0 77.5 -13.5t64 -37.5t43.5 -58.5t16 -76.5t-17.5 -76t-46.5 -57.5t-66.5 -36.5t-78.5 -13q-67 0 -117.5 28.5t-72.5 81.5q-1 3 -1 10q0 20 16.5 35
t37.5 15q16 0 30 -10t22 -24q11 -21 33 -28.5t51 -7.5q18 0 35.5 4t31 14t22 25.5t8.5 38.5q0 46 -26.5 64t-62.5 18q-25 0 -44.5 -2t-34.5 -12q-9 -4 -16 -5.5t-16 -1.5q-13 0 -28 3t-28 10.5t-21.5 19t-8.5 28.5v217z" />
    <glyph glyph-name="six" unicode="6" horiz-adv-x="532" 
d="M206 529q14 25 29.5 32t35.5 7q21 0 37.5 -13.5t16.5 -37.5q0 -8 -5 -18l-62 -107h8q43 0 82 -14.5t69 -40.5t47.5 -61.5t17.5 -77.5q0 -51 -18 -89t-48 -63.5t-69 -38t-82 -12.5q-42 0 -81 12.5t-68.5 38t-47.5 63.5t-18 89q0 46 22 85zM266 287q-20 0 -38.5 -6
t-32.5 -18t-23 -29.5t-9 -40.5t9 -41.5t23 -31t32.5 -19t38.5 -6.5q19 0 38 6.5t33 19t23 31t9 41.5t-9 40.5t-23 29.5t-33 18t-38 6z" />
    <glyph glyph-name="seven" unicode="7" horiz-adv-x="480" 
d="M245 39q-14 -25 -28.5 -32t-34.5 -7q-21 0 -36 13.5t-15 37.5q0 8 5 18l173 396h-223q-20 0 -35.5 15.5t-15.5 35.5q0 22 15.5 37t35.5 15h343q10 0 18 -9t8 -22q0 -4 -2 -12z" />
    <glyph glyph-name="eight" unicode="8" horiz-adv-x="529" 
d="M265 -5q-42 0 -80.5 11.5t-68.5 33.5t-48 54.5t-18 74.5q0 41 18 72.5t50 51.5q-23 17 -36.5 44t-13.5 67q0 85 51 128t145 43t145.5 -43t51.5 -128q0 -40 -13.5 -67t-37.5 -44q32 -20 50.5 -51t18.5 -73t-18 -74.5t-48 -54.5t-68.5 -33.5t-79.5 -11.5zM263 251
q-17 0 -35 -4.5t-32.5 -14t-23.5 -25.5t-9 -39t10.5 -37t26 -22t33 -11t31.5 -3t31.5 3t33.5 11t26.5 22t10.5 37t-9.5 39t-24 25.5t-33 14t-36.5 4.5zM264 332q18 0 33.5 2.5t26.5 10t17.5 21.5t6.5 37t-6.5 36.5t-18 20t-27 8.5t-33.5 2q-17 0 -32 -2t-26 -8.5t-17.5 -20
t-6.5 -36.5t6 -37t17.5 -21.5t26.5 -10t33 -2.5z" />
    <glyph glyph-name="nine" unicode="9" horiz-adv-x="532" 
d="M324 39q-14 -25 -29.5 -32t-35.5 -7q-21 0 -37.5 13.5t-16.5 37.5q0 8 5 18l64 114h-8q-43 0 -82 14t-69 38.5t-47.5 59.5t-17.5 77q0 51 18 89t48 63.5t69 38t82 12.5q42 0 81 -12.5t68.5 -38t47.5 -63.5t18 -89q0 -46 -22 -85zM266 283q19 0 38 6t33 18t23 29.5t9 40.5
t-9 40.5t-23 29t-33 17.5t-38 6q-20 0 -38.5 -6t-32.5 -17.5t-23 -29t-9 -40.5t9 -40.5t23 -29.5t32.5 -18t38.5 -6z" />
    <glyph glyph-name="colon" unicode=":" horiz-adv-x="260" 
d="M70 55q0 26 17 43t43 17t43 -17t17 -43t-17 -43t-43 -17t-43 17t-17 43zM70 326q0 26 17 43t43 17t43 -17t17 -43t-17 -43t-43 -17t-43 17t-17 43z" />
    <glyph glyph-name="semicolon" unicode=";" horiz-adv-x="261" 
d="M71 326q0 26 17 43t43 17t43 -17t17 -43t-17 -43t-43 -17t-43 17t-17 43zM143 -63q-8 -17 -18 -20.5t-22 -3.5q-25 0 -25 24l20 59q-28 16 -28 51q0 26 17.5 43t43.5 17t43 -17t17 -43q0 -16 -7 -26z" />
    <glyph glyph-name="less" unicode="&#x3c;" horiz-adv-x="472" 
d="M192 216l177 -88q14 -8 23.5 -23t9.5 -32q0 -2 -0.5 -4t-0.5 -4q-4 -20 -20.5 -34.5t-36.5 -14.5q-2 0 -4 0.5t-4 0.5l-208 104q-26 13 -42 38t-16 57t16 57t42 38l208 104q2 0 4 0.5t4 0.5q20 0 36.5 -14.5t20.5 -34.5q0 -2 0.5 -4t0.5 -4q0 -17 -9.5 -32t-23.5 -23z
" />
    <glyph glyph-name="equal" unicode="=" horiz-adv-x="405" 
d="M120 222q-20 0 -35 15.5t-15 35.5q0 21 15 36.5t35 15.5h165q20 0 35 -15.5t15 -36.5q0 -20 -15 -35.5t-35 -15.5h-165zM120 73q-20 0 -35 15.5t-15 35.5q0 21 15 36.5t35 15.5h165q20 0 35 -15.5t15 -36.5q0 -20 -15 -35.5t-35 -15.5h-165z" />
    <glyph glyph-name="greater" unicode="&#x3e;" horiz-adv-x="472" 
d="M103 304q-14 8 -23.5 23t-9.5 32q0 2 0.5 4t0.5 4q4 20 20.5 34.5t36.5 14.5q2 0 4 -0.5t4 -0.5l208 -104q26 -13 42 -38t16 -57t-16 -57t-42 -38l-208 -104q-2 0 -4 -0.5t-4 -0.5q-20 0 -36.5 14.5t-20.5 34.5q0 2 -0.5 4t-0.5 4q0 17 9.5 32t23.5 23l177 88z" />
    <glyph glyph-name="question" unicode="?" horiz-adv-x="465" 
d="M158 55q0 26 17 43t43 17t43 -17t17 -43t-17 -43t-43 -17t-43 17t-17 43zM276 205q-4 -20 -19.5 -33.5t-36.5 -13.5q-23 0 -39.5 17t-16.5 40q5 43 24 74.5t40 55.5t37.5 43.5t16.5 38.5q0 20 -19.5 32t-49.5 12q-17 0 -36.5 -3.5t-35.5 -8.5q-5 -2 -10 -3t-10 -1
q-20 0 -35.5 15t-15.5 36q0 14 8 27t19 19q21 11 52.5 17t66.5 6t67.5 -8.5t57 -27t39.5 -47t15 -68.5q0 -28 -16.5 -54.5t-37 -53t-40 -54t-25.5 -57.5z" />
    <glyph glyph-name="at" unicode="@" horiz-adv-x="942" 
d="M454 95q39 0 61 18t22 65q0 46 -22 66t-61 20t-58 -20t-19 -66q0 -47 19 -65t58 -18zM731 -150q-20 -8 -46 -13.5t-52.5 -9.5t-51 -6t-40.5 -2q-57 0 -114 4.5t-109.5 19t-97.5 40.5t-78.5 69t-52.5 104.5t-19 147.5q0 37 8 78.5t26.5 82t48.5 77.5t75 65t106 44.5
t140 16.5t139.5 -16.5t104.5 -44.5t73.5 -65t47.5 -77.5t25.5 -82t7.5 -78.5q0 -35 -8.5 -72.5t-29 -69.5t-53 -52.5t-80.5 -20.5q-15 0 -30.5 1t-32.5 5.5t-35.5 14.5t-37.5 28q-14 -14 -28.5 -22.5t-28.5 -13t-27.5 -6t-24.5 -1.5q-36 0 -70.5 10.5t-61.5 33t-43.5 58
t-16.5 86.5q0 84 40.5 135t129.5 51q27 0 53.5 -9.5t49.5 -32.5q5 18 21 31t36 13q23 0 39.5 -17t16.5 -40v-223l16 -4q13 -3 34 -3q10 0 20.5 3.5t19 16t13.5 36.5t5 66q0 35 -10.5 80t-41.5 85t-87.5 67.5t-147.5 27.5q-92 0 -148 -28t-87.5 -68.5t-42 -85.5t-10.5 -80
q0 -34 3.5 -68.5t16 -66.5t35.5 -60.5t62 -49.5t96 -33t137 -12q29 0 71 8t109 28q19 0 32 -17t13 -36q0 -31 -27 -47z" />
    <glyph glyph-name="A" unicode="A" horiz-adv-x="586" 
d="M565 59q1 -3 1 -10q0 -24 -19 -36.5t-41 -12.5q-16 0 -30 8t-22 22l-47 93h-228l-47 -93q-8 -14 -22 -22t-30 -8q-22 0 -41 12.5t-19 36.5q0 7 1 10l251 495q5 14 21 14t21 -14zM356 224l-63 126l-63 -126h126z" />
    <glyph glyph-name="B" unicode="B" horiz-adv-x="545" 
d="M183 334h135q27 0 46 19.5t19 45.5t-19 45.5t-46 19.5h-135v-130zM317 101q27 0 46.5 20.5t19.5 46.5q0 22 -13 41.5t-35 19.5h-152v-128h134zM126 0q-23 0 -39.5 17t-16.5 40v454q0 23 16.5 40t39.5 17h199q35 0 66 -13.5t54 -36.5t36.5 -53.5t13.5 -65.5
q0 -34 -12.5 -64t-34.5 -53q21 -23 33.5 -51.5t12.5 -62.5q0 -35 -13.5 -65.5t-36.5 -53.5t-53.5 -36t-65.5 -13h-199z" />
    <glyph glyph-name="C" unicode="C" horiz-adv-x="583" 
d="M498 526q11 -7 19.5 -20t8.5 -27q0 -22 -16 -37.5t-37 -15.5q-5 0 -10 1t-10 3q-25 18 -55.5 29t-63.5 11q-39 0 -71.5 -15t-55.5 -40.5t-36 -59.5t-13 -73t13 -73t36 -59.5t55.5 -40t71.5 -14.5t73 14.5t60 38.5q13 10 31 10q21 0 35.5 -14.5t14.5 -35.5q0 -14 -7 -25
t-18 -18q-38 -32 -86.5 -51t-101.5 -19q-60 0 -113 23t-92 62t-62 92t-23 113t23 113t62 92t92 62t113 23q45 0 86.5 -13t76.5 -36z" />
    <glyph glyph-name="D" unicode="D" horiz-adv-x="578" 
d="M126 0q-23 0 -39.5 17t-16.5 40v454q0 23 16.5 40t39.5 17h149q60 0 110 -22t86.5 -61t56.5 -91t20 -112t-20 -111.5t-56.5 -89.5t-86.5 -59.5t-110 -21.5h-149zM257 101q39 0 71.5 13t56.5 37t37 56.5t13 71.5t-13 73t-37 58.5t-56.5 39t-71.5 14.5h-74v-363h74z" />
    <glyph glyph-name="E" unicode="E" horiz-adv-x="520" 
d="M126 0q-23 0 -39.5 17t-16.5 40v454q0 23 16.5 40t39.5 17h289q20 0 35 -15.5t15 -36.5q0 -20 -15 -35.5t-35 -15.5h-232v-139h177q20 0 34.5 -15t14.5 -35t-14.5 -35t-34.5 -15h-177v-123h232q20 0 35 -15.5t15 -36.5q0 -20 -15 -35.5t-35 -15.5h-289z" />
    <glyph glyph-name="F" unicode="F" horiz-adv-x="480" 
d="M183 57q0 -23 -17 -40t-40 -17t-39.5 17t-16.5 40v454q0 23 16.5 40t39.5 17h289q20 0 35 -15.5t15 -36.5q0 -20 -15 -35.5t-35 -15.5h-232v-139h177q20 0 34.5 -15t14.5 -35t-14.5 -35t-34.5 -15h-177v-169z" />
    <glyph glyph-name="G" unicode="G" horiz-adv-x="633" 
d="M568 39q0 -16 -11.5 -27.5t-27.5 -11.5q-11 0 -19 7.5t-15 15.5l-11 13q-33 -20 -70.5 -30.5t-78.5 -10.5q-60 0 -113 23t-92 62t-62 92t-23 113t23 113t62.5 92t92.5 62t113 23q45 0 86.5 -13t76.5 -36q11 -7 19.5 -20t8.5 -27q0 -22 -16 -37.5t-37 -15.5q-5 0 -10 1
t-10 3q-25 18 -56 29t-64 11q-39 0 -71.5 -15t-55.5 -40.5t-36 -59.5t-13 -73t13 -73t36 -59.5t55.5 -40t71.5 -14.5q70 0 121 42v68h-83q-20 0 -35 15.5t-15 35.5q0 21 15 36.5t35 15.5h146q20 0 35 -15.5t15 -36.5v-217z" />
    <glyph glyph-name="H" unicode="H" horiz-adv-x="588" 
d="M70 511q0 23 16.5 40t39.5 17t40 -17t17 -40v-185h222v185q0 23 16.5 40t39.5 17t40 -17t17 -40v-454q0 -23 -17 -40t-40 -17t-39.5 17t-16.5 40v169h-222v-169q0 -23 -17 -40t-40 -17t-39.5 17t-16.5 40v454z" />
    <glyph glyph-name="I" unicode="I" horiz-adv-x="253" 
d="M70 511q0 23 16.5 40t39.5 17t40 -17t17 -40v-454q0 -23 -17 -40t-40 -17t-39.5 17t-16.5 40v454z" />
    <glyph glyph-name="J" unicode="J" horiz-adv-x="452" 
d="M279 511q0 23 16.5 40t39.5 17t40 -17t17 -40v-255q0 -75 -11.5 -125t-37 -80t-66.5 -43t-101 -13q-82 0 -137 33q-23 14 -23 42q0 13 6 25q7 12 19 18.5t25 6.5q12 0 23 -6q20 -12 39.5 -15.5t48.5 -3.5q30 0 50 7.5t31.5 27t16 53t4.5 86.5v242z" />
    <glyph glyph-name="K" unicode="K" horiz-adv-x="587" 
d="M378 353l184 -279q5 -8 5 -17q0 -24 -19.5 -40.5t-40.5 -16.5q-20 0 -33.5 12t-24.5 29l-155 232l-111 -109v-107q0 -23 -17 -40t-40 -17t-39.5 17t-16.5 40v454q0 23 16.5 40t39.5 17t40 -17t17 -40v-191l227 221q15 15 25.5 21t30.5 6q10 0 21.5 -4.5t20.5 -12t15 -18
t6 -22.5q0 -8 -5 -18z" />
    <glyph glyph-name="L" unicode="L" horiz-adv-x="509" 
d="M126 0q-23 0 -39.5 17t-16.5 40v454q0 23 16.5 40t39.5 17t40 -17t17 -40v-410h232q20 0 35 -15t15 -36q0 -20 -15 -35t-35 -15h-289z" />
    <glyph glyph-name="M" unicode="M" horiz-adv-x="686" 
d="M344 153q-17 0 -29 14l-132 141v-251q0 -23 -17 -40t-40 -17t-39.5 17t-16.5 40v497q5 14 21 14q8 0 13.5 -4.5t10.5 -9.5l210 -233q5 -5 10 -8t8 -3t8 3t10 8l210 233q5 5 10.5 9.5t13.5 4.5q16 0 21 -14v-497q0 -23 -16.5 -40t-39.5 -17t-40 17t-17 40v251l-132 -141
q-12 -14 -27 -14z" />
    <glyph glyph-name="N" unicode="N" horiz-adv-x="629" 
d="M70 511q0 23 16.5 40t39.5 17q8 0 18 -2.5t18 -9.5l284 -226v181q0 23 16.5 40t39.5 17t40 -17t17 -40v-454q0 -23 -17 -40t-40 -17t-39.5 17t-16.5 40v133l-263 203v-336q0 -23 -17 -40t-40 -17t-39.5 17t-16.5 40v454z" />
    <glyph glyph-name="O" unicode="O" horiz-adv-x="670" 
d="M335 575q60 0 113 -23t92 -62t62 -92t23 -113t-23 -113t-62 -92t-92 -62t-113 -23t-113 23t-92 62t-62 92t-23 113t23 113t62 92t92 62t113 23zM334 95q39 0 71.5 14.5t56.5 40t37 59.5t13 73t-13 73t-37 59.5t-56.5 40.5t-71.5 15t-71.5 -15t-55.5 -40.5t-36 -59.5
t-13 -73t13 -73t36 -59.5t55.5 -40t71.5 -14.5z" />
    <glyph glyph-name="P" unicode="P" horiz-adv-x="519" 
d="M319 295q27 0 47 20t20 62t-20 61.5t-47 19.5h-136v-163h136zM183 57q0 -23 -17 -40t-40 -17t-39.5 17t-16.5 40v454q0 23 16.5 40t39.5 17h203q35 0 66 -13.5t54 -38.5t36.5 -60t13.5 -78t-13.5 -77.5t-36.5 -59t-54 -38t-66 -13.5h-146v-133z" />
    <glyph glyph-name="Q" unicode="Q" horiz-adv-x="670" 
d="M334 95q39 0 71.5 14.5t56.5 40t37 59.5t13 73t-13 73t-37 59.5t-56.5 40.5t-71.5 15t-71.5 -15t-55.5 -40.5t-36 -59.5t-13 -73t13 -73t36 -59.5t55.5 -40t71.5 -14.5zM467 -145q-11 -2 -22 -3t-22 -1q-56 0 -92 34t-37 113q-53 7 -98.5 32.5t-79 63.5t-52.5 87t-19 104
q0 60 23 113t62 92t92 62t113 23t113 -23t92 -62t62 -92t23 -113q0 -53 -17.5 -100t-48.5 -84.5t-73 -63.5t-91 -36q-3 -8 -3 -17q0 -8 1.5 -17t6.5 -17t13 -13t22 -5h17q18 0 30.5 -11t12.5 -28q0 -28 -28 -38z" />
    <glyph glyph-name="R" unicode="R" horiz-adv-x="548" 
d="M330 312q27 0 46 20t19 55t-19 56t-46 21h-147v-152h147zM478 75q5 -10 5 -18q0 -24 -20 -40.5t-41 -16.5q-20 0 -34 11.5t-24 29.5l-86 167h-95v-151q0 -23 -17 -40t-40 -17t-39.5 17t-16.5 40v454q0 23 16.5 40t39.5 17h212q35 0 66 -13.5t54 -37.5t36.5 -57t13.5 -72
q0 -59 -29 -103t-75 -64z" />
    <glyph glyph-name="S" unicode="S" horiz-adv-x="511" 
d="M388 445l-25 7.5t-32.5 8.5t-34.5 7t-31 3q-33 0 -51.5 -8.5t-27.5 -19t-10.5 -21.5t-1.5 -15q0 -26 22 -42t54.5 -29t71 -26t71 -33.5t54.5 -51.5t22 -79q0 -35 -18.5 -63t-46.5 -47.5t-61.5 -30t-63.5 -10.5q-46 0 -95.5 6t-94.5 29q-16 5 -25 18.5t-9 30.5
q0 18 13 34.5t32 16.5q5 0 8 -2q16 -9 58 -21t99 -12q18 0 34.5 4.5t29 12.5t20.5 19t8 23q0 23 -22 37.5t-55 26.5t-71 25t-71 34t-55 53t-22 82q0 77 52 120t149 43q38 0 75 -9.5t63 -18.5q17 -6 27 -20.5t10 -31.5q0 -19 -15.5 -34.5t-33.5 -15.5z" />
    <glyph glyph-name="T" unicode="T" horiz-adv-x="503" 
d="M80 465q-20 0 -35 15.5t-15 35.5q0 21 15 36.5t35 15.5h343q20 0 35 -15.5t15 -36.5q0 -20 -15 -35.5t-35 -15.5h-115v-408q0 -23 -17 -40t-40 -17t-39.5 17t-16.5 40v408h-115z" />
    <glyph glyph-name="U" unicode="U" horiz-adv-x="618" 
d="M183 251q0 -78 28 -117t98 -39t98 39t28 117v260q0 23 16.5 40t39.5 17t40 -17t17 -40v-260q0 -118 -60 -187t-180 -69q-119 0 -178.5 69t-59.5 187v260q0 23 16.5 40t39.5 17t40 -17t17 -40v-260z" />
    <glyph glyph-name="V" unicode="V" horiz-adv-x="586" 
d="M293 0q-16 0 -21 14l-251 495q-1 3 -1 10q0 24 19 36.5t41 12.5q16 0 30 -8t22 -22l161 -320l161 320q8 14 22 22t30 8q22 0 41 -12.5t19 -36.5q0 -7 -1 -10l-251 -495q-5 -14 -21 -14z" />
    <glyph glyph-name="W" unicode="W" horiz-adv-x="770" 
d="M385 273q-4 0 -5.5 -1.5t-5.5 -7.5l-124 -247q-9 -17 -26 -17q-7 0 -14 3.5t-10 8.5l-170 482q-5 10 -5 18q0 24 18 40t39 16q20 0 36 -10.5t23 -30.5l101 -277l123 274q5 7 11 9t9 2t9 -2t11 -9l123 -274l101 277q7 20 23 30.5t36 10.5q21 0 39 -16t18 -40q0 -8 -5 -18
l-170 -482q-3 -5 -10 -8.5t-14 -3.5q-18 0 -26 17l-124 247q-4 6 -5.5 7.5t-5.5 1.5z" />
    <glyph glyph-name="X" unicode="X" horiz-adv-x="538" 
d="M269 204l-127 -163q-13 -16 -28.5 -28.5t-35.5 -12.5q-21 0 -39.5 16.5t-18.5 40.5q0 8 5 18l163 211l-158 207q-5 10 -5 18q0 24 19.5 40.5t40.5 16.5q20 0 34.5 -12t26.5 -29l123 -163l123 163q12 17 26.5 29t34.5 12q21 0 40.5 -16.5t19.5 -40.5q0 -8 -5 -18
l-158 -207l163 -211q5 -10 5 -18q0 -24 -18.5 -40.5t-39.5 -16.5q-20 0 -35.5 12.5t-28.5 28.5z" />
    <glyph glyph-name="Y" unicode="Y" horiz-adv-x="555" 
d="M221 212l-200 294q-1 3 -1 11q0 25 19.5 38t42.5 13q17 0 31.5 -8.5t22.5 -23.5l142 -210l141 210q8 15 22.5 23.5t31.5 8.5q23 0 42.5 -13t19.5 -38q0 -8 -1 -11l-200 -294v-155q0 -23 -17 -40t-40 -17t-39.5 17t-16.5 40v155z" />
    <glyph glyph-name="Z" unicode="Z" horiz-adv-x="495" 
d="M199 101h216q20 0 35 -15t15 -35q0 -21 -15 -36t-35 -15h-359q-10 0 -18 9t-8 22q0 4 2 12l263 422h-213q-20 0 -35.5 15.5t-15.5 35.5q0 22 15.5 37t35.5 15h357q10 0 18 -9t8 -22q0 -4 -2 -12z" />
    <glyph glyph-name="bracketleft" unicode="[" horiz-adv-x="344" 
d="M225 714q19 0 34 -15.5t15 -35.5q0 -19 -15 -34.5t-34 -15.5h-42v-683h42q19 0 34 -15.5t15 -35.5q0 -19 -15 -34.5t-34 -15.5h-99q-23 0 -39.5 17t-16.5 40v771q0 23 16.5 40t39.5 17h99z" />
    <glyph glyph-name="backslash" unicode="\" horiz-adv-x="519" 
d="M449 -77q0 -24 -18.5 -36.5t-40.5 -12.5q-16 0 -30 8t-21 22l-269 715q0 24 18.5 36.5t40.5 12.5q16 0 30 -8t21 -22z" />
    <glyph glyph-name="bracketright" unicode="]" horiz-adv-x="344" 
d="M218 714q23 0 39.5 -17t16.5 -40v-771q0 -23 -16.5 -40t-39.5 -17h-99q-19 0 -34 15.5t-15 34.5q0 20 15 35.5t34 15.5h42v683h-42q-19 0 -34 15.5t-15 34.5q0 20 15 35.5t34 15.5h99z" />
    <glyph glyph-name="asciicircum" unicode="^" horiz-adv-x="394" 
d="M198 431l-24 -63q-7 -14 -20.5 -21t-27.5 -7q-20 0 -38 11.5t-18 33.5q0 7 1 10l65 126q10 20 24 33.5t37 13.5t37 -13.5t24 -33.5l65 -126q1 -3 1 -10q0 -22 -18 -33.5t-38 -11.5q-14 0 -27.5 7t-20.5 21z" />
    <glyph glyph-name="underscore" unicode="_" horiz-adv-x="500" 
d="M120 -108q-20 0 -35 15.5t-15 35.5q0 21 15 36.5t35 15.5h260q20 0 35 -15.5t15 -36.5q0 -20 -15 -35.5t-35 -15.5h-260z" />
    <glyph glyph-name="grave" unicode="`" horiz-adv-x="286" 
d="M75 499q-5 8 -5 16q0 23 13 38t34 15q26 0 40 -10t22 -29l34 -94q3 -6 3 -13q0 -18 -13.5 -29.5t-29.5 -11.5q-14 0 -23 8t-19 20z" />
    <glyph glyph-name="a" unicode="a" horiz-adv-x="515" 
d="M238 95q19 0 36 8t30 22t20.5 33.5t7.5 42.5q0 46 -28 73.5t-66 27.5t-64 -28t-26 -73t26 -75.5t64 -30.5zM356 57q-8 -16 -24 -28t-35.5 -19.5t-40 -11t-37.5 -3.5q-40 0 -73.5 16.5t-58 45t-38.5 66t-14 79.5t14 79t39.5 64.5t60.5 43.5t76 16q7 0 21.5 -1.5t32.5 -8
t38.5 -19t38.5 -33.5l2 13q0 18 12.5 31t30.5 13t31 -13t13 -31v-312q0 -18 -13 -31t-31 -13t-30.5 13t-12.5 31z" />
    <glyph glyph-name="b" unicode="b" horiz-adv-x="515" 
d="M277 95q38 0 64 30.5t26 75.5t-26 73t-64 28t-66 -27.5t-28 -73.5q0 -23 7.5 -42.5t20.5 -33.5t30 -22t36 -8zM70 511q0 23 16.5 40t39.5 17t40 -17t17 -40v-152q13 16 29 25.5t31 14t27.5 5.5t19.5 1q41 0 76 -16t60.5 -43.5t39.5 -64.5t14 -79t-14 -79.5t-38.5 -66
t-58 -45t-73.5 -16.5q-17 0 -37.5 3.5t-40 11t-35.5 19.5t-24 28l-2 -13q0 -18 -12.5 -31t-30.5 -13t-31 13t-13 31v467z" />
    <glyph glyph-name="c" unicode="c" horiz-adv-x="422" 
d="M307 292q-15 6 -33 7t-31 1q-39 0 -67 -26t-28 -73q0 -23 7.5 -42.5t20.5 -33.5t30 -22t37 -8q14 0 32.5 1.5t36.5 12.5q13 10 30 10q21 0 35.5 -14.5t14.5 -35.5q0 -14 -7 -25t-18 -18q-26 -19 -58.5 -25t-64.5 -6q-43 0 -81 16.5t-66.5 45t-45 66t-16.5 79.5t16.5 79
t45 64.5t66.5 43.5t81 16q28 0 56 -5.5t52 -16.5q11 -7 18.5 -18.5t7.5 -25.5q0 -22 -15 -36.5t-36 -14.5q-5 0 -10 1t-10 3z" />
    <glyph glyph-name="d" unicode="d" horiz-adv-x="515" 
d="M238 95q19 0 36 8t30 22t20.5 33.5t7.5 42.5q0 46 -28 73.5t-66 27.5t-64 -28t-26 -73t26 -75.5t64 -30.5zM445 44q0 -18 -13 -31t-31 -13t-30.5 13t-12.5 31l-2 13q-8 -16 -24 -28t-35.5 -19.5t-40 -11t-37.5 -3.5q-40 0 -73.5 16.5t-58 45t-38.5 66t-14 79.5t14 79
t39.5 64.5t60.5 43.5t76 16q7 0 19.5 -1t27.5 -5.5t30.5 -14t29.5 -25.5v152q0 23 17 40t40 17t39.5 -17t16.5 -40v-467z" />
    <glyph glyph-name="e" unicode="e" horiz-adv-x="457" 
d="M230 300q-12 0 -26 -3t-26 -10.5t-20.5 -19.5t-8.5 -30h163q0 18 -8.5 30t-21 19.5t-27 10.5t-25.5 3zM149 166q0 -25 10.5 -40t25.5 -23.5t31 -11t27 -2.5q16 0 36.5 3t37.5 11q5 4 13 6.5t16 2.5q19 0 32.5 -13.5t13.5 -32.5q0 -13 -7 -23.5t-18 -16.5
q-26 -19 -58.5 -25t-64.5 -6q-43 0 -81 11.5t-66.5 36.5t-45 63t-16.5 91q0 42 11 79.5t34.5 66t60 45.5t87.5 17q41 0 76 -13t61 -37.5t41 -61t16 -83.5q0 -18 -13 -31t-31 -13h-229z" />
    <glyph glyph-name="f" unicode="f" horiz-adv-x="352" 
d="M291 522q-8 0 -16 1.5t-17 1.5q-29 0 -37 -23t-8 -66v-31h60q20 0 35.5 -15t15.5 -37q0 -20 -15.5 -35.5t-35.5 -15.5h-60v-245q0 -23 -17 -40t-40 -17t-39.5 17t-16.5 40v245h-29q-20 0 -35.5 15.5t-15.5 35.5q0 22 15.5 37t35.5 15h29v31q0 102 35 145.5t106 43.5
q10 0 28 -1.5t40 -10.5q15 -5 24 -17.5t9 -26.5q0 -20 -15 -33.5t-36 -13.5z" />
    <glyph glyph-name="g" unicode="g" horiz-adv-x="515" 
d="M238 95q19 0 36 8t30 22t20.5 33.5t7.5 42.5q0 46 -28 73.5t-66 27.5t-64 -28t-26 -73t26 -75.5t64 -30.5zM350 355q5 23 19 34t32 11t31 -13t13 -31v-353q0 -54 -17 -92t-44.5 -62t-61.5 -35.5t-68 -11.5q-43 0 -75 5.5t-59 20.5q-12 7 -18.5 18.5t-6.5 24.5
q0 17 12.5 33.5t29.5 16.5q15 0 40.5 -9.5t66.5 -9.5q27 0 43.5 6t26.5 17.5t14 27t5 34.5v50q-12 -15 -26.5 -23t-30 -12.5t-30.5 -5.5t-27 -1q-40 0 -73.5 16.5t-58 45t-38.5 66t-14 79.5t14 79t39.5 64.5t60.5 43.5t76 16q29 0 59.5 -8.5t65.5 -41.5z" />
    <glyph glyph-name="h" unicode="h" 
d="M70 511q0 23 16.5 40t39.5 17t40 -17t17 -40v-136q30 22 52 26t46 4q42 0 73 -14.5t51 -39.5t29.5 -57t9.5 -68v-169q0 -23 -17 -40t-40 -17t-39.5 17t-16.5 40v155q0 18 -2 34.5t-10 29t-23 19.5t-42 7q-38 0 -54.5 -26.5t-16.5 -63.5v-155q0 -23 -17 -40t-40 -17
t-39.5 17t-16.5 40v454z" />
    <glyph glyph-name="i" unicode="i" horiz-adv-x="253" 
d="M70 343q0 23 16.5 40t39.5 17t40 -17t17 -40v-286q0 -23 -17 -40t-40 -17t-39.5 17t-16.5 40v286zM61 508q0 28 19 47.5t46 19.5q28 0 47.5 -19.5t19.5 -47.5q0 -27 -19.5 -46t-47.5 -19q-27 0 -46 19t-19 46z" />
    <glyph glyph-name="j" unicode="j" horiz-adv-x="253" 
d="M61 508q0 28 19 47.5t46 19.5q28 0 47.5 -19.5t19.5 -47.5q0 -27 -19.5 -46t-47.5 -19q-27 0 -46 19t-19 46zM38 -98q9 0 15.5 3.5t10 14t5 28t1.5 46.5v349q0 23 16.5 40t39.5 17t40 -17t17 -40v-360q0 -56 -9 -91t-26.5 -55t-43 -27.5t-57.5 -7.5q-31 0 -55 7
q-17 4 -28.5 17t-11.5 30q0 21 17 33.5t38 12.5h31z" />
    <glyph glyph-name="k" unicode="k" horiz-adv-x="439" 
d="M411 83q8 -13 8 -27q0 -22 -17 -39t-39 -17q-15 0 -27.5 9.5t-22.5 21.5l-130 149v-123q0 -23 -17 -40t-40 -17t-39.5 17t-16.5 40v454q0 23 16.5 40t39.5 17t40 -17t17 -40v-283l130 142q10 11 22 20.5t27 9.5q21 0 37.5 -16.5t16.5 -38.5q0 -15 -7 -26l-103 -111
l105 -125v0z" />
    <glyph glyph-name="l" unicode="l" horiz-adv-x="253" 
d="M70 511q0 23 16.5 40t39.5 17t40 -17t17 -40v-454q0 -23 -17 -40t-40 -17t-39.5 17t-16.5 40v454z" />
    <glyph glyph-name="m" unicode="m" horiz-adv-x="675" 
d="M157 357q20 29 49.5 38.5t58.5 9.5t56.5 -14.5t43.5 -38.5q11 17 25 27.5t29.5 16t31 7.5t30.5 2q31 0 55.5 -13t42 -36t27 -54t9.5 -67v-178q0 -23 -17 -40t-40 -17t-39.5 17t-16.5 40v170q0 75 -47 75q-21 0 -37.5 -13.5t-18.5 -35.5q1 -7 1 -13.5v-13.5v-169
q0 -23 -17 -40t-40 -17t-39.5 17t-16.5 40v155q0 37 -10.5 63.5t-36.5 26.5q-30 0 -43.5 -26.5t-13.5 -63.5v-155q0 -23 -17 -40t-40 -17t-39.5 17t-16.5 40v299q0 18 13 31t31 13t30.5 -12.5t12.5 -30.5z" />
    <glyph glyph-name="n" unicode="n" 
d="M183 57q0 -23 -17 -40t-40 -17t-39.5 17t-16.5 40v299q0 18 13 31t31 13t30.5 -13t12.5 -31q35 32 65 40.5t59 8.5q42 0 73 -14.5t51 -39.5t29.5 -57t9.5 -68v-169q0 -23 -17 -40t-40 -17t-39.5 17t-16.5 40v155q0 18 -2 34.5t-10 29t-23 19.5t-42 7q-38 0 -54.5 -26.5
t-16.5 -63.5v-155z" />
    <glyph glyph-name="o" unicode="o" horiz-adv-x="480" 
d="M244 405q41 0 77.5 -16t64 -43.5t43.5 -64.5t16 -79t-16 -79.5t-43.5 -66t-64 -45t-77.5 -16.5q-43 0 -81 16.5t-66.5 45t-45 66t-16.5 79.5t16.5 79t45 64.5t66.5 43.5t81 16zM243 95q18 0 34 8t28.5 22t19.5 33.5t7 42.5q0 46 -26.5 72.5t-62.5 26.5q-39 0 -67 -26
t-28 -73q0 -23 7.5 -42.5t20.5 -33.5t30 -22t37 -8z" />
    <glyph glyph-name="p" unicode="p" horiz-adv-x="515" 
d="M277 95q38 0 64 30.5t26 75.5t-26 73t-64 28t-66 -27.5t-28 -73.5q0 -23 7.5 -42.5t20.5 -33.5t30 -22t36 -8zM183 -114q0 -23 -17 -40t-40 -17t-39.5 17t-16.5 40v470q0 18 13 31t31 13t30.5 -13.5t12.5 -34.5q32 32 68 42.5t65 10.5q41 0 76 -16t60.5 -43.5t39.5 -64.5
t14 -79t-14 -79.5t-38.5 -66t-58 -45t-73.5 -16.5q-25 0 -57.5 8t-55.5 25v-142z" />
    <glyph glyph-name="q" unicode="q" horiz-adv-x="515" 
d="M238 95q19 0 36 8t30 22t20.5 33.5t7.5 42.5q0 46 -28 73.5t-66 27.5t-64 -28t-26 -73t26 -75.5t64 -30.5zM332 28q-23 -17 -55.5 -25t-57.5 -8q-40 0 -73.5 16.5t-58 45t-38.5 66t-14 79.5t14 79t39.5 64.5t60.5 43.5t76 16q29 0 65 -10.5t68 -42.5q0 21 12.5 34.5
t30.5 13.5t31 -13t13 -31v-470q0 -23 -16.5 -40t-39.5 -17t-40 17t-17 40v142z" />
    <glyph glyph-name="r" unicode="r" horiz-adv-x="341" 
d="M268 302q-27 -2 -43.5 -9.5t-25.5 -19.5t-12.5 -28t-3.5 -33v-155q0 -23 -17 -40t-40 -17t-39.5 17t-16.5 40v299q0 18 13 31t31 13t30.5 -13t12.5 -31q32 29 58.5 38t52.5 11h11q20 0 36 -15t16 -37q0 -20 -15.5 -35.5t-35.5 -15.5h-12z" />
    <glyph glyph-name="s" unicode="s" horiz-adv-x="400" 
d="M78 17q-15 5 -23.5 17.5t-8.5 28.5q0 17 12.5 31.5t29.5 14.5q5 0 8 -1q17 -7 42.5 -13.5t54.5 -6.5q6 0 15 1t17.5 4t14.5 7.5t6 12.5q0 13 -15 20.5t-37 14t-48.5 14.5t-48.5 22.5t-37 38.5t-15 63q0 30 12.5 52.5t34 37.5t51 22t63.5 7q26 0 51.5 -4.5t44.5 -10.5
q16 -5 25.5 -18.5t9.5 -30.5t-13.5 -32t-30.5 -15q-5 0 -8 1q-18 5 -41 7.5t-43 2.5q-30 0 -36.5 -6.5t-6.5 -16.5q0 -12 15 -19.5t37 -15t48.5 -16t48.5 -22.5t37 -34.5t15 -52.5q0 -36 -15 -60.5t-38.5 -39.5t-53 -21t-58.5 -6t-58 4t-58 18z" />
    <glyph glyph-name="t" unicode="t" horiz-adv-x="358" 
d="M241 -5q-32 0 -57.5 8t-43 27.5t-26.5 52t-9 82.5v137h-29q-20 0 -35.5 15.5t-15.5 35.5q0 22 15.5 37t35.5 15h29v106q0 23 16.5 40t39.5 17t40 -17t17 -40v-106h47q20 0 35.5 -15t15.5 -37q0 -20 -15.5 -35.5t-35.5 -15.5h-47v-115q0 -29 1 -46.5t5 -28t11.5 -14
t20.5 -3.5h16q20 0 35 -14.5t15 -35.5q0 -20 -15 -35t-35 -15h-31z" />
    <glyph glyph-name="u" unicode="u" 
d="M348 45q-35 -33 -65.5 -41.5t-59.5 -8.5q-42 0 -73 14.5t-51 39.5t-29.5 57t-9.5 68v169q0 23 16.5 40t39.5 17t40 -17t17 -40v-158q0 -18 2 -34.5t10 -29t23 -19.5t42 -7q38 0 54.5 26.5t16.5 63.5v158q0 23 16.5 40t39.5 17t40 -17t17 -40v-299q0 -18 -13 -31t-31 -13
t-30 13.5t-12 31.5z" />
    <glyph glyph-name="v" unicode="v" horiz-adv-x="422" 
d="M211 0q-16 0 -21 14l-174 327q-1 3 -1 10q0 24 18.5 36.5t40.5 12.5q16 0 30 -8t21 -22l86 -177l86 177q7 14 21 22t30 8q22 0 40.5 -12.5t18.5 -36.5q0 -7 -1 -10l-174 -327q-5 -14 -21 -14z" />
    <glyph glyph-name="w" unicode="w" horiz-adv-x="588" 
d="M294 207q-4 0 -6 -1.5t-5 -7.5l-91 -181q-9 -17 -23 -17q-15 0 -22 12l-122 334q0 22 15.5 38t37.5 16q14 0 26.5 -7.5t20.5 -19.5l59 -160l60 127q7 14 20 22.5t30 8.5t30 -8.5t20 -22.5l60 -127l59 160q8 12 20.5 19.5t26.5 7.5q22 0 37.5 -16t15.5 -38l-122 -334
q-7 -12 -22 -12t-23 17l-91 181q-3 6 -5 7.5t-6 1.5z" />
    <glyph glyph-name="x" unicode="x" horiz-adv-x="428" 
d="M213 119l-64 -81q-13 -16 -25.5 -27t-32.5 -11q-21 0 -40.5 16.5t-19.5 40.5q0 8 5 18l102 118l-105 132q-5 10 -5 18q0 24 19.5 40.5t40.5 16.5q20 0 33 -12.5t25 -29.5l68 -86l68 86q12 17 25 29.5t33 12.5q21 0 40.5 -16.5t19.5 -40.5q0 -8 -5 -18l-105 -132l102 -118
q5 -10 5 -18q0 -24 -19.5 -40.5t-40.5 -16.5q-20 0 -32.5 11t-25.5 27z" />
    <glyph glyph-name="y" unicode="y" horiz-adv-x="514" 
d="M119 -172q-12 7 -18.5 18.5t-6.5 24.5q0 17 12.5 33.5t29.5 16.5q15 0 40.5 -9.5t66.5 -9.5q27 0 43.5 6t26.5 17.5t14 27t5 34.5v36q-28 -19 -52 -23.5t-47 -4.5q-42 0 -73 14.5t-51 39.5t-29.5 57t-9.5 68v169q0 23 16.5 40t39.5 17t40 -17t17 -40v-158q0 -18 2 -34.5
t10 -29t23 -19.5t42 -7q38 0 54.5 26.5t16.5 63.5v158q0 23 16.5 40t39.5 17t40 -17t17 -40v-340q0 -54 -17 -92t-44.5 -62t-61.5 -35.5t-68 -11.5q-43 0 -75 5.5t-59 20.5z" />
    <glyph glyph-name="z" unicode="z" horiz-adv-x="415" 
d="M212 101h113q20 0 35 -15t15 -36q0 -20 -15 -35t-35 -15h-259q-10 0 -18 9t-8 22q0 4 2 12l162 254h-113q-20 0 -35.5 15.5t-15.5 35.5q0 22 15.5 37t35.5 15h258q10 0 18 -9t8 -22q0 -4 -2 -12z" />
    <glyph glyph-name="braceleft" unicode="{" horiz-adv-x="438" 
d="M114 327q20 7 33 24t13 38v155q0 50 9 82.5t26.5 52t43 27.5t57.5 8h23q19 0 34 -15.5t15 -35.5q0 -19 -15 -34t-34 -15h-8q-13 0 -20.5 -3.5t-11.5 -14t-5 -28.5t-1 -46v-133q0 -34 -12.5 -64t-34.5 -53q22 -23 34.5 -53t12.5 -64v-135q0 -29 1 -46.5t5 -28t11.5 -14
t20.5 -3.5h8q19 0 34 -15.5t15 -35.5q0 -19 -15 -34t-34 -15h-23q-32 0 -57.5 8t-43 27.5t-26.5 52t-9 82.5v157q0 20 -13 37t-32 24q-22 6 -33.5 22.5t-11.5 31.5q0 17 11 34.5t33 22.5z" />
    <glyph glyph-name="bar" unicode="|" horiz-adv-x="253" 
d="M70 656q0 23 16.5 40t39.5 17t40 -17t17 -40v-770q0 -23 -17 -40t-40 -17t-39.5 17t-16.5 40v770z" />
    <glyph glyph-name="braceright" unicode="}" horiz-adv-x="438" 
d="M324 327q22 -5 33 -22.5t11 -34.5q0 -15 -11.5 -31.5t-33.5 -22.5q-19 -7 -32 -24t-13 -37v-157q0 -50 -9 -82.5t-26.5 -52t-43 -27.5t-57.5 -8h-23q-19 0 -34 15t-15 34q0 20 15 35.5t34 15.5h8q13 0 20.5 3.5t11.5 14t5 28t1 46.5v135q0 34 12.5 64t34.5 53
q-22 23 -34.5 53t-12.5 64v133q0 28 -1 46t-5 28.5t-11.5 14t-20.5 3.5h-8q-19 0 -34 15t-15 34q0 20 15 35.5t34 15.5h23q32 0 57.5 -8t43 -27.5t26.5 -52t9 -82.5v-155q0 -21 13 -38t33 -24z" />
    <glyph glyph-name="asciitilde" unicode="~" horiz-adv-x="424" 
d="M320 128q-14 -7 -28 -11t-29 -4q-16 0 -30 5.5t-27 11.5t-26 11.5t-27 5.5q-5 0 -11.5 -0.5t-11.5 -1.5q-3 -1 -5.5 -1.5t-5.5 -0.5q-15 0 -28.5 10.5t-18.5 24.5q-2 8 -2 13q0 16 10 29t24 18q11 5 23 8.5t26 3.5q25 0 38.5 -5.5t24 -11.5t20.5 -11.5t28 -5.5q17 0 29 4
l6 2t6 1q15 0 28.5 -10.5t18.5 -24.5q2 -8 2 -13q0 -16 -10 -29t-24 -18z" />
    <glyph glyph-name="uni00A0" unicode="&#xa0;" horiz-adv-x="199" 
 />
    <glyph glyph-name="exclamdown" unicode="&#xa1;" horiz-adv-x="260" 
d="M70 508q0 26 17 43t43 17t43 -17t17 -43t-17 -43t-43 -17t-43 17t-17 43zM130 408q18 0 30.5 -13t13.5 -31l14 -314q0 -23 -16.5 -39t-39.5 -16t-41.5 16t-18.5 39l14 314q1 18 13.5 31t30.5 13z" />
    <glyph glyph-name="cent" unicode="&#xa2;" horiz-adv-x="643" 
d="M301 1q-50 10 -92 36t-73 63.5t-48.5 84.5t-17.5 100q0 52 17.5 99t48.5 84.5t73 63.5t92 37v24q0 23 16.5 40t39.5 17t40 -17t17 -40v-23q30 -5 57.5 -16.5t51.5 -27.5q11 -7 19.5 -20t8.5 -27q0 -22 -16 -37.5t-37 -15.5q-5 0 -10 1t-10 3q-25 18 -55.5 29t-63.5 11
q-39 0 -71.5 -15t-55.5 -40.5t-36 -59.5t-13 -73t13 -73t36 -59.5t55.5 -40t71.5 -14.5t73 14.5t60 38.5q13 10 31 10q21 0 35.5 -14.5t14.5 -35.5q0 -14 -7 -25t-18 -18q-28 -23 -62 -40t-72 -25v-34q0 -23 -17 -40t-40 -17t-39.5 17t-16.5 40v35z" />
    <glyph glyph-name="sterling" unicode="&#xa3;" horiz-adv-x="629" 
d="M120 0q-20 0 -35 17.5t-15 37.5q0 21 14.5 36t35.5 21q13 8 21.5 22t10.5 30v48h-32q-20 0 -35 15.5t-15 35.5q0 21 15 36.5t35 15.5h32v66q0 54 17 92t44.5 62t61.5 35.5t68 11.5q43 0 75 -5.5t59 -20.5q12 -7 18.5 -18.5t6.5 -24.5q0 -17 -12.5 -33.5t-29.5 -16.5
q-15 0 -40.5 9.5t-66.5 9.5q-27 0 -43.5 -6t-26 -17.5t-13.5 -27t-5 -34.5v-82h77q20 0 35 -15.5t15 -36.5q0 -20 -15 -35.5t-35 -15.5h-77v-111h245q19 0 34 -15.5t15 -35.5q0 -19 -15 -34.5t-34 -15.5h-390z" />
    <glyph glyph-name="currency" unicode="&#xa4;" horiz-adv-x="520" 
d="M259 170q25 0 42.5 16.5t17.5 40.5t-17.5 41t-42.5 17q-23 0 -40.5 -17t-17.5 -41t17.5 -40.5t40.5 -16.5zM260 82q-23 0 -44.5 6.5t-38.5 17.5l-38 -33q-11 -12 -29 -12q-17 0 -28.5 11.5t-11.5 28.5q0 18 13 29l42 38q-12 27 -12 59q0 33 12 60l-42 39q-13 11 -13 29
q0 17 11.5 28.5t28.5 11.5q18 0 29 -12l38 -35q34 25 83 25t83 -25l38 35q10 12 29 12q17 0 28.5 -11.5t11.5 -28.5q0 -18 -13 -29l-42 -39q12 -27 12 -60q0 -32 -12 -59l42 -38q13 -11 13 -29q0 -17 -11.5 -28.5t-28.5 -11.5q-19 0 -29 12l-38 33q-17 -11 -38.5 -17.5
t-44.5 -6.5z" />
    <glyph glyph-name="yen" unicode="&#xa5;" horiz-adv-x="655" 
d="M585 517q0 -8 -1 -11l-127 -186q18 -2 31.5 -17t13.5 -35t-15 -35.5t-35 -15.5h-65l-3 -5v-27h68q20 0 35 -15.5t15 -36.5q0 -20 -15 -35.5t-35 -15.5h-68v-25q0 -23 -17 -40t-40 -17t-39.5 17t-16.5 40v25h-69q-20 0 -35 15.5t-15 35.5q0 21 15 36.5t35 15.5h69v27l-3 5
h-66q-20 0 -35 15.5t-15 35.5t14 35t32 17l-127 186q-1 3 -1 11q0 25 19.5 38t42.5 13q17 0 31.5 -8.5t22.5 -23.5l142 -210l141 210q8 15 22.5 23.5t31.5 8.5q23 0 42.5 -13t19.5 -38z" />
    <glyph glyph-name="brokenbar" unicode="&#xa6;" horiz-adv-x="253" 
d="M70 657q0 23 16.5 40t39.5 17t40 -17t17 -40v-209q0 -23 -17 -40t-40 -17t-39.5 17t-16.5 40v209zM70 95q0 23 16.5 40t39.5 17t40 -17t17 -40v-209q0 -23 -17 -40t-40 -17t-39.5 17t-16.5 40v209z" />
    <glyph glyph-name="section" unicode="&#xa7;" horiz-adv-x="538" 
d="M183 247q0 -10 10 -17t27 -13q17 -5 38 -9.5t44 -4.5q6 0 15 1t17.5 4t14.5 7.5t6 12.5q0 10 -9 16.5t-23 11.5q-18 6 -46 10t-51 4q-30 0 -36.5 -6.5t-6.5 -16.5zM219 -40q-29 0 -58 4t-58 18q-15 5 -23.5 17.5t-8.5 28.5q0 17 12.5 31.5t29.5 14.5q5 0 8 -1
q17 -7 42.5 -13.5t54.5 -6.5q6 0 15 1t17.5 4t14.5 7.5t6 12.5q0 13 -15 20.5t-37 14t-48.5 14.5t-48.5 22.5t-37 38.5t-15 63q0 44 24 71t65 39q-5 18 -5 40q0 30 12.5 52.5t34 37.5t51 22t63.5 7q26 0 51.5 -4.5t44.5 -10.5q16 -5 25.5 -18.5t9.5 -30.5t-13.5 -32
t-30.5 -15q-5 0 -8 1q-18 5 -41 7.5t-43 2.5q-30 0 -36.5 -6.5t-6.5 -16.5q0 -12 15 -19.5t37 -15t48.5 -16t48.5 -22.5t37 -34.5t15 -52.5q0 -50 -26 -77t-64 -39q6 -15 6 -34q0 -36 -15 -60.5t-38.5 -39.5t-53 -21t-58.5 -6z" />
    <glyph glyph-name="dieresis" unicode="&#xa8;" horiz-adv-x="419" 
d="M70 508q0 26 17 43t43 17t43 -17t17 -43t-17 -43t-43 -17t-43 17t-17 43zM229 508q0 26 17 43t43 17t43 -17t17 -43t-17 -43t-43 -17t-43 17t-17 43z" />
    <glyph glyph-name="copyright" unicode="&#xa9;" horiz-adv-x="713" 
d="M356 568q60 0 112 -22.5t91 -61.5t61.5 -91t22.5 -112q0 -59 -22.5 -111t-61.5 -91t-91 -61.5t-112 -22.5q-59 0 -111 22.5t-91 61.5t-61.5 91t-22.5 111q0 60 22.5 112t61.5 91t91 61.5t111 22.5zM356 49q46 0 88 19t74.5 51t51.5 74t19 88t-19 88t-51.5 74.5
t-74.5 51.5t-88 19t-88 -19t-74 -51.5t-51 -74.5t-19 -88t19 -88t51 -74t74 -51t88 -19zM448 138q-20 -10 -43 -14.5t-44 -4.5q-34 0 -64 13t-52.5 35.5t-35.5 52t-13 62.5t13 62.5t35.5 51t52.5 34t64 12.5q21 0 44 -5.5t43 -15.5q20 -12 20 -35q0 -17 -12 -29t-29 -12
q-4 0 -8 1l-8 2q-11 5 -25.5 8t-25.5 3q-31 0 -53 -20t-22 -58q0 -35 22 -59t53 -24q11 0 25.5 3t25.5 9q4 1 8 2.5t8 1.5q17 0 29 -12t12 -29q0 -23 -20 -35z" />
    <glyph glyph-name="ordfeminine" unicode="&#xaa;" horiz-adv-x="390" 
d="M197 332q4 0 19.5 3t26.5 14v23q-5 8 -13 13.5t-31 5.5q-53 0 -53 -26q0 -17 13.5 -25t37.5 -8zM127 486q-3 -1 -5.5 -1.5t-5.5 -0.5q-14 0 -24 10t-10 24q0 21 19 31q26 12 43.5 15.5t43.5 3.5q73 0 102.5 -36t29.5 -99v-136q0 -13 -9 -21.5t-22 -8.5t-22.5 9.5
t-9.5 22.5q-9 -14 -21.5 -21t-24.5 -10.5t-22 -4t-13 -0.5q-12 0 -30 3t-35 13t-29 29t-12 51q0 49 29 71.5t76 22.5q20 0 38 -4t30 -12q0 29 -13.5 41.5t-45.5 12.5q-5 0 -23 -1t-34 -4z" />
    <glyph glyph-name="guillemotleft" unicode="&#xab;" horiz-adv-x="564" 
d="M77 175q-3 6 -5 12t-2 14q0 12 5 24l65 156q6 16 19.5 26t31.5 10q23 0 39.5 -16.5t16.5 -39.5q0 -11 -5 -23l-60 -136l60 -135q5 -12 5 -23q0 -23 -16.5 -39.5t-39.5 -16.5q-18 0 -31 10t-20 26zM324 175q-3 6 -5 12t-2 14q0 12 5 24l65 156q6 16 19.5 26t31.5 10
q23 0 39.5 -16.5t16.5 -39.5q0 -11 -5 -23l-60 -136l60 -135q5 -12 5 -23q0 -23 -16.5 -39.5t-39.5 -16.5q-18 0 -31 10t-20 26z" />
    <glyph glyph-name="logicalnot" unicode="&#xac;" horiz-adv-x="490" 
d="M370 249q20 0 35 -16t15 -36v-112q0 -23 -17 -40t-40 -17t-39.5 17t-16.5 40v61h-187q-20 0 -35 15.5t-15 35.5q0 21 15 36.5t35 15.5h250v0z" />
    <glyph glyph-name="uni00AD" unicode="&#xad;" horiz-adv-x="198" 
 />
    <glyph glyph-name="registered" unicode="&#xae;" horiz-adv-x="713" 
d="M356 568q60 0 112 -22.5t91 -61.5t61.5 -91t22.5 -112q0 -59 -22.5 -111t-61.5 -91t-91 -61.5t-112 -22.5q-59 0 -111 22.5t-91 61.5t-61.5 91t-22.5 111q0 60 22.5 112t61.5 91t91 61.5t111 22.5zM356 49q46 0 88 19t74.5 51t51.5 74t19 88t-19 88t-51.5 74.5
t-74.5 51.5t-88 19t-88 -19t-74 -51.5t-51 -74.5t-19 -88t19 -88t51 -74t74 -51t88 -19zM360 303q15 0 26 4.5t11 24.5t-11 25.5t-26 5.5h-38v-60h38zM458 174q6 -9 6 -20q0 -15 -11 -25.5t-27 -10.5q-25 0 -33 22l-40 81h-31v-59q0 -19 -13 -31.5t-32 -12.5t-31.5 12.5
t-12.5 31.5v240q0 19 12.5 31.5t31.5 12.5h75q40 0 66 -10t41 -27t21 -38.5t6 -43.5q0 -34 -17 -60t-43 -38z" />
    <glyph glyph-name="macron" unicode="&#xaf;" horiz-adv-x="458" 
d="M120 465q-20 0 -35 15.5t-15 35.5q0 21 15 36.5t35 15.5h218q20 0 35 -15.5t15 -36.5q0 -20 -15 -35.5t-35 -15.5h-218z" />
    <glyph glyph-name="degree" unicode="&#xb0;" horiz-adv-x="427" 
d="M215 568q29 0 54.5 -11t45 -30.5t31 -45.5t11.5 -56q0 -29 -11.5 -55.5t-31 -46t-45 -31t-54.5 -11.5q-30 0 -56 11.5t-46 31t-31.5 46t-11.5 55.5q0 30 11.5 56t31.5 45.5t46 30.5t56 11zM215 366q20 0 35 16.5t15 42.5q0 25 -15 39t-35 14q-22 0 -37.5 -13.5
t-15.5 -39.5t15.5 -42.5t37.5 -16.5z" />
    <glyph glyph-name="plusminus" unicode="&#xb1;" horiz-adv-x="477" 
d="M357 370q20 0 35 -15.5t15 -36.5q0 -20 -15 -35.5t-35 -15.5h-67v-74q0 -22 -15.5 -37.5t-35.5 -15.5q-22 0 -37 15.5t-15 37.5v74h-67q-20 0 -35 15.5t-15 35.5q0 21 15 36.5t35 15.5h67v74q0 22 15 37.5t37 15.5q20 0 35.5 -15.5t15.5 -37.5v-74h67zM120 0
q-20 0 -35 15.5t-15 35.5q0 21 15 36.5t35 15.5h237q20 0 35 -15.5t15 -36.5q0 -20 -15 -35.5t-35 -15.5h-237z" />
    <glyph glyph-name="twosuperior" unicode="&#xb2;" horiz-adv-x="357" 
d="M120 474q-3 -1 -10 -1q-17 0 -28.5 11.5t-11.5 28.5q0 14 7.5 24t18.5 15q15 6 36 11t41 5q113 0 113 -102q0 -16 -6.5 -29.5t-19 -28t-32 -31t-45.5 -37.5h68q15 0 25.5 -10.5t10.5 -25.5t-10.5 -25.5t-25.5 -10.5h-140q-15 0 -25.5 10.5t-10.5 25.5q2 30 22.5 55.5
t44 46t43 35.5t19.5 24q0 2 -1 5t-5 5.5t-12.5 4.5t-22.5 2q-8 0 -21 -2.5t-22 -5.5z" />
    <glyph glyph-name="threesuperior" unicode="&#xb3;" horiz-adv-x="351" 
d="M249 568q7 0 13 -6t6 -16q0 -6 -2 -10l-41 -83q30 -8 43 -33t13 -53q0 -45 -27.5 -74.5t-87.5 -29.5q-17 0 -39.5 5.5t-39.5 14.5t-17 32q0 16 10.5 27t26.5 11q9 0 13 -2q11 -4 23.5 -7.5t23.5 -3.5q23 0 30 8t7 22q0 10 -6.5 16t-16 9.5t-20.5 4.5t-21 1q-7 0 -12 5
t-5 12q0 3 2 7l28 57h-40q-18 0 -30.5 12.5t-12.5 30.5t12.5 30.5t30.5 12.5h136z" />
    <glyph glyph-name="acute" unicode="&#xb4;" horiz-adv-x="271" 
d="M150 440q-9 -11 -18 -18.5t-22 -7.5q-14 0 -27 11t-13 28q0 6 3 12l35 70q8 16 19 24.5t34 8.5q18 0 29 -12.5t11 -31.5q0 -3 -1 -7t-3 -7z" />
    <glyph glyph-name="mu" unicode="&#xb5;" 
d="M60 343q0 23 16.5 40t39.5 17t40 -17t17 -40v-152q0 -18 2 -35.5t10 -31t23 -21.5t42 -8q38 0 54.5 26.5t16.5 63.5v158q0 23 16.5 40t39.5 17t40 -17t17 -40v-299q0 -18 -13 -31t-31 -13t-30 13.5t-12 31.5q-24 -31 -47 -40.5t-52 -9.5q-14 0 -38.5 8.5t-37.5 26.5v-144
q0 -23 -17 -40t-40 -17t-39.5 17t-16.5 40v457z" />
    <glyph glyph-name="paragraph" unicode="&#xb6;" horiz-adv-x="627" 
d="M500 568q23 0 40 -17t17 -40v-625q0 -23 -17 -40t-40 -17t-39.5 17t-16.5 40v550h-78v-550q0 -23 -17 -40t-40 -17t-39.5 17t-16.5 40v262q-39 6 -72.5 24.5t-58 46t-38.5 63t-14 75.5t14.5 76.5t39.5 64.5t59 46.5t73 23.5h244z" />
    <glyph glyph-name="periodcentered" unicode="&#xb7;" horiz-adv-x="271" 
d="M70 194q0 28 19 47t46 19q28 0 47 -19t19 -47q0 -27 -19 -46t-47 -19q-27 0 -46 19t-19 46z" />
    <glyph glyph-name="cedilla" unicode="&#xb8;" horiz-adv-x="316" 
d="M81 -139q-11 8 -11 20q0 11 7.5 19t17.5 8q9 0 16 -5q9 -5 16.5 -6.5t20.5 -3.5q9 0 19 2.5t10 10.5q0 5 -7 10.5t-16.5 11t-21 11t-20.5 10.5l5 48h71l-3 -19q29 -18 45 -34.5t16 -42.5q0 -18 -8 -31t-21 -20.5t-28.5 -11t-31.5 -3.5q-23 0 -40.5 7t-35.5 19z" />
    <glyph glyph-name="onesuperior" unicode="&#xb9;" horiz-adv-x="295" 
d="M96 512q33 10 61.5 25.5t46.5 25.5q2 0 3 0.5t3 0.5q6 0 10.5 -4.5t4.5 -10.5v-252q0 -17 -11 -27.5t-28 -10.5t-27.5 10.5t-10.5 27.5v164q-11 -5 -23 -9t-22 -6q-13 0 -23 10t-10 22q0 13 7.5 22.5t18.5 11.5z" />
    <glyph glyph-name="ordmasculine" unicode="&#xba;" horiz-adv-x="427" 
d="M215 568q29 0 54.5 -11t45 -30.5t31 -45.5t11.5 -56q0 -29 -11.5 -55.5t-31 -46t-45 -31t-54.5 -11.5q-30 0 -56 11.5t-46 31t-31.5 46t-11.5 55.5q0 30 11.5 56t31.5 45.5t46 30.5t56 11zM215 366q20 0 35 16.5t15 42.5q0 25 -15 39t-35 14q-22 0 -37.5 -13.5
t-15.5 -39.5t15.5 -42.5t37.5 -16.5z" />
    <glyph glyph-name="guillemotright" unicode="&#xbb;" horiz-adv-x="564" 
d="M424 24q-7 -16 -20 -26t-31 -10q-23 0 -39.5 16.5t-16.5 39.5q0 11 5 23l60 135l-60 136q-5 12 -5 23q0 23 16.5 39.5t39.5 16.5q18 0 31.5 -10t19.5 -26l65 -156q5 -12 5 -24q0 -8 -2 -14t-5 -12zM177 24q-7 -16 -20 -26t-31 -10q-23 0 -39.5 16.5t-16.5 39.5q0 11 5 23
l60 135l-60 136q-5 12 -5 23q0 23 16.5 39.5t39.5 16.5q18 0 31.5 -10t19.5 -26l65 -156q5 -12 5 -24q0 -8 -2 -14t-5 -12z" />
    <glyph glyph-name="onequarter" unicode="&#xbc;" horiz-adv-x="705" 
d="M96 512q33 10 61.5 25.5t46.5 25.5q2 0 3 0.5t3 0.5q6 0 10.5 -4.5t4.5 -10.5v-252q0 -17 -11 -27.5t-28 -10.5t-27.5 10.5t-10.5 27.5v164q-11 -5 -23 -9t-22 -6q-13 0 -23 10t-10 22q0 13 7.5 22.5t18.5 11.5zM282 29q-5 -13 -15.5 -21t-24.5 -8q-18 0 -31 13t-13 31
q0 10 2 14l182 481q5 13 15.5 21t24.5 8q18 0 31 -13t13 -31q0 -10 -2 -14zM518 191l-48 -69h48v69zM487 284q5 7 12.5 11.5t16.5 4.5h40q17 0 28 -10.5t11 -27.5v-140h9q15 0 26 -11t11 -26t-11 -25.5t-26 -10.5h-9v-11q0 -17 -11 -27.5t-28 -10.5t-27.5 10.5t-10.5 27.5
v11h-87q-21 0 -36.5 14.5t-15.5 36.5v13q0 3 2.5 10t4.5 10z" />
    <glyph glyph-name="onehalf" unicode="&#xbd;" horiz-adv-x="701" 
d="M282 29q-5 -13 -15.5 -21t-24.5 -8q-18 0 -31 13t-13 31q0 10 2 14l182 481q5 13 15.5 21t24.5 8q18 0 31 -13t13 -31q0 -10 -2 -14zM96 512q33 10 61.5 25.5t46.5 25.5q2 0 3 0.5t3 0.5q6 0 10.5 -4.5t4.5 -10.5v-252q0 -17 -11 -27.5t-28 -10.5t-27.5 10.5t-10.5 27.5
v164q-11 -5 -23 -9t-22 -6q-13 0 -23 10t-10 22q0 13 7.5 22.5t18.5 11.5zM464 206q-3 -1 -10 -1q-17 0 -28.5 11.5t-11.5 28.5q0 14 7.5 24t18.5 15q15 6 36 11t41 5q113 0 113 -102q0 -16 -6.5 -29.5t-19 -28t-32 -31t-45.5 -37.5h68q15 0 25.5 -10.5t10.5 -25.5
t-10.5 -25.5t-25.5 -10.5h-140q-15 0 -25.5 10.5t-10.5 25.5q2 30 22.5 55.5t44 46t43 35.5t19.5 24q0 2 -1 5t-5 5.5t-12.5 4.5t-22.5 2q-8 0 -21 -2.5t-22 -5.5z" />
    <glyph glyph-name="threequarters" unicode="&#xbe;" horiz-adv-x="730" 
d="M537 191l-48 -69h48v69zM308 29q-5 -13 -15.5 -21t-24.5 -8q-18 0 -31 13t-13 31q0 10 2 14l182 481q5 13 15.5 21t24.5 8q18 0 31 -13t13 -31q0 -10 -2 -14zM249 568q7 0 13 -6t6 -16q0 -6 -2 -10l-41 -83q30 -8 43 -33t13 -53q0 -45 -27.5 -74.5t-87.5 -29.5
q-17 0 -39.5 5.5t-39.5 14.5t-17 32q0 16 10.5 27t26.5 11q9 0 13 -2q11 -4 23.5 -7.5t23.5 -3.5q23 0 30 8t7 22q0 10 -6.5 16t-16 9.5t-20.5 4.5t-21 1q-7 0 -12 5t-5 12q0 3 2 7l28 57h-40q-18 0 -30.5 12.5t-12.5 30.5t12.5 30.5t30.5 12.5h136zM506 284q5 7 12.5 11.5
t16.5 4.5h40q17 0 28 -10.5t11 -27.5v-140h9q15 0 26 -11t11 -26t-11 -25.5t-26 -10.5h-9v-11q0 -17 -11 -27.5t-28 -10.5t-27.5 10.5t-10.5 27.5v11h-87q-21 0 -36.5 14.5t-15.5 36.5v13q0 3 2.5 10t4.5 10z" />
    <glyph glyph-name="questiondown" unicode="&#xbf;" horiz-adv-x="465" 
d="M307 515q0 -26 -17 -43t-43 -17t-43 17t-17 43t17 43t43 17t43 -17t17 -43zM189 365q4 20 19.5 33.5t36.5 13.5q23 0 39.5 -17t16.5 -40q-5 -43 -24 -74.5t-40 -55.5t-37.5 -43.5t-16.5 -38.5q0 -20 19.5 -32t49.5 -12q17 0 36.5 3.5t35.5 8.5q5 2 10 3t10 1
q20 0 35.5 -15t15.5 -36q0 -14 -8 -27t-19 -19q-21 -11 -52.5 -17t-66.5 -6t-67.5 8.5t-57.5 27t-39.5 47t-14.5 68.5q0 28 16.5 54.5t37 53t40 54t25.5 57.5z" />
    <glyph glyph-name="Agrave" unicode="&#xc0;" horiz-adv-x="586" 
d="M565 59q1 -3 1 -10q0 -24 -19 -36.5t-41 -12.5q-16 0 -30 8t-22 22l-47 93h-228l-47 -93q-8 -14 -22 -22t-30 -8q-22 0 -41 12.5t-19 36.5q0 7 1 10l251 495q5 14 21 14t21 -14zM356 224l-63 126l-63 -126h126zM194 726q-2 3 -3 7t-1 7q0 19 11 31.5t29 12.5
q23 0 34 -8.5t19 -24.5l35 -70q3 -6 3 -12q0 -17 -13 -28t-27 -11q-13 0 -22 7.5t-18 18.5z" />
    <glyph glyph-name="Aacute" unicode="&#xc1;" horiz-adv-x="586" 
d="M565 59q1 -3 1 -10q0 -24 -19 -36.5t-41 -12.5q-16 0 -30 8t-22 22l-47 93h-228l-47 -93q-8 -14 -22 -22t-30 -8q-22 0 -41 12.5t-19 36.5q0 7 1 10l251 495q5 14 21 14t21 -14zM356 224l-63 126l-63 -126h126zM341 656q-9 -11 -18 -18.5t-22 -7.5q-14 0 -27 11t-13 28
q0 6 3 12l35 70q8 16 19 24.5t34 8.5q18 0 29 -12.5t11 -31.5q0 -3 -1 -7t-3 -7z" />
    <glyph glyph-name="Acircumflex" unicode="&#xc2;" horiz-adv-x="586" 
d="M565 59l-251 495q-5 14 -21 14t-21 -14l-251 -495q-1 -3 -1 -10q0 -24 19 -36.5t41 -12.5q16 0 30 8t22 22l47 93h228l47 -93q8 -14 22 -22t30 -8q22 0 41 12.5t19 36.5q0 7 -1 10zM230 224l63 126l63 -126h-126zM303 774q5 0 11 -3t8 -5l86 -64q15 -12 15 -32
q0 -17 -11.5 -28.5t-28.5 -11.5q-16 0 -28 10l-62 51l-62 -51q-12 -10 -28 -10q-17 0 -28.5 11.5t-11.5 28.5q0 20 15 32l86 64q2 2 8 5t11 3h20z" />
    <glyph glyph-name="Atilde" unicode="&#xc3;" horiz-adv-x="586" 
d="M565 59q1 -3 1 -10q0 -24 -19 -36.5t-41 -12.5q-16 0 -30 8t-22 22l-47 93h-228l-47 -93q-8 -14 -22 -22t-30 -8q-22 0 -41 12.5t-19 36.5q0 7 1 10l251 495q5 14 21 14t21 -14zM356 224l-63 126l-63 -126h126zM403 645q-14 -7 -28 -11t-29 -4q-16 0 -30 5.5t-27 11.5
t-26 11.5t-27 5.5q-5 0 -11.5 -0.5t-11.5 -1.5q-3 -1 -5.5 -1.5t-5.5 -0.5q-15 0 -28.5 10.5t-18.5 24.5q-2 8 -2 13q0 16 10 29t24 18q11 5 23 8.5t26 3.5q25 0 38.5 -5.5t24 -11.5t20.5 -11.5t28 -5.5q17 0 29 4l6 2t6 1q15 0 28.5 -10.5t18.5 -24.5q2 -8 2 -13
q0 -16 -10 -29t-24 -18z" />
    <glyph glyph-name="Adieresis" unicode="&#xc4;" horiz-adv-x="586" 
d="M152 699q0 26 17 43t43 17t43 -17t17 -43t-17 -43t-43 -17t-43 17t-17 43zM311 699q0 26 17 43t43 17t43 -17t17 -43t-17 -43t-43 -17t-43 17t-17 43zM565 59q1 -3 1 -10q0 -24 -19 -36.5t-41 -12.5q-16 0 -30 8t-22 22l-47 93h-228l-47 -93q-8 -14 -22 -22t-30 -8
q-22 0 -41 12.5t-19 36.5q0 7 1 10l251 495q5 14 21 14t21 -14zM356 224l-63 126l-63 -126h126z" />
    <glyph glyph-name="Aring" unicode="&#xc5;" horiz-adv-x="586" 
d="M293 863q22 0 42.5 -9t35.5 -24t24 -35.5t9 -43.5t-9 -43t-24 -35.5t-35.5 -24.5t-42.5 -9q-23 0 -43.5 9t-36 24.5t-24.5 35.5t-9 43t9 43.5t24.5 35.5t36 24t43.5 9zM293 705q15 0 27 13t12 33t-12 31t-27 11q-17 0 -29 -11t-12 -31t12 -33t29 -13zM565 59q1 -3 1 -10
q0 -24 -19 -36.5t-41 -12.5q-16 0 -30 8t-22 22l-47 93h-228l-47 -93q-8 -14 -22 -22t-30 -8q-22 0 -41 12.5t-19 36.5q0 7 1 10l251 495q5 14 21 14t21 -14zM356 224l-63 126l-63 -126h126z" />
    <glyph glyph-name="AE" unicode="&#xc6;" horiz-adv-x="852" 
d="M402 242v148l-115 -148h115zM747 568q20 0 35 -15.5t15 -36.5q0 -20 -15 -35.5t-35 -15.5h-232v-139h177q20 0 34.5 -15t14.5 -35t-15 -35t-35 -15h-176v-123h232q20 0 35 -15.5t15 -36.5q0 -20 -15 -35.5t-35 -15.5h-295q-20 0 -35 15.5t-15 35.5v91h-193l-92 -119
q-16 -24 -46 -24q-23 0 -39.5 16.5t-16.5 39.5q0 21 14 37l353 450q23 26 54 26h311z" />
    <glyph glyph-name="Ccedilla" unicode="&#xc7;" horiz-adv-x="583" 
d="M257 -139q-11 8 -11 20q0 11 7.5 19t17.5 8q9 0 16 -5q9 -5 16.5 -6.5t20.5 -3.5q9 0 19 2.5t10 10.5q0 5 -7 10.5t-16.5 11t-21 11t-20.5 10.5l7 49q-53 7 -98.5 32t-79.5 63.5t-53 87.5t-19 104q0 60 23 113t62 92t92 62t113 23q45 0 86.5 -13t76.5 -36q11 -7 19.5 -20
t8.5 -27q0 -22 -16 -37.5t-37 -15.5q-5 0 -10 1t-10 3q-25 18 -55.5 29t-63.5 11q-39 0 -71.5 -15t-55.5 -40.5t-36 -59.5t-13 -73t13 -73t36 -59.5t55.5 -40t71.5 -14.5t73 14.5t60 38.5q13 10 31 10q21 0 35.5 -14.5t14.5 -35.5q0 -14 -7 -25t-18 -18q-32 -27 -72.5 -45
t-85.5 -23l-4 -19q29 -18 45 -34.5t16 -42.5q0 -18 -8 -31t-21 -20.5t-28.5 -11t-31.5 -3.5q-23 0 -40.5 7t-35.5 19z" />
    <glyph glyph-name="Egrave" unicode="&#xc8;" horiz-adv-x="520" 
d="M126 0q-23 0 -39.5 17t-16.5 40v454q0 23 16.5 40t39.5 17h289q20 0 35 -15.5t15 -36.5q0 -20 -15 -35.5t-35 -15.5h-232v-139h177q20 0 34.5 -15t14.5 -35t-14.5 -35t-34.5 -15h-177v-123h232q20 0 35 -15.5t15 -36.5q0 -20 -15 -35.5t-35 -15.5h-289zM173 726
q-2 3 -3 7t-1 7q0 19 11 31.5t29 12.5q23 0 34 -8.5t19 -24.5l35 -70q3 -6 3 -12q0 -17 -13 -28t-27 -11q-13 0 -22 7.5t-18 18.5z" />
    <glyph glyph-name="Eacute" unicode="&#xc9;" horiz-adv-x="520" 
d="M126 0q-23 0 -39.5 17t-16.5 40v454q0 23 16.5 40t39.5 17h289q20 0 35 -15.5t15 -36.5q0 -20 -15 -35.5t-35 -15.5h-232v-139h177q20 0 34.5 -15t14.5 -35t-14.5 -35t-34.5 -15h-177v-123h232q20 0 35 -15.5t15 -36.5q0 -20 -15 -35.5t-35 -15.5h-289zM310 656
q-9 -11 -18 -18.5t-22 -7.5q-14 0 -27 11t-13 28q0 6 3 12l35 70q8 16 19 24.5t34 8.5q18 0 29 -12.5t11 -31.5q0 -3 -1 -7t-3 -7z" />
    <glyph glyph-name="Ecircumflex" unicode="&#xca;" horiz-adv-x="520" 
d="M415 0q20 0 35 15.5t15 35.5q0 21 -15 36.5t-35 15.5h-232v123h177q20 0 34.5 15t14.5 35t-14.5 35t-34.5 15h-177v139h232q20 0 35 15.5t15 35.5q0 21 -15 36.5t-35 15.5h-289q-23 0 -39.5 -17t-16.5 -40v-454q0 -23 16.5 -40t39.5 -17h289zM282 774q5 0 11 -3t8 -5
l86 -64q15 -12 15 -32q0 -17 -11.5 -28.5t-28.5 -11.5q-16 0 -28 10l-62 51l-62 -51q-12 -10 -28 -10q-17 0 -28.5 11.5t-11.5 28.5q0 20 15 32l86 64q2 2 8 5t11 3h20z" />
    <glyph glyph-name="Edieresis" unicode="&#xcb;" horiz-adv-x="520" 
d="M133 690q0 26 17 43t43 17t43 -17t17 -43t-17 -43t-43 -17t-43 17t-17 43zM292 690q0 26 17 43t43 17t43 -17t17 -43t-17 -43t-43 -17t-43 17t-17 43zM126 0q-23 0 -39.5 17t-16.5 40v454q0 23 16.5 40t39.5 17h289q20 0 35 -15.5t15 -36.5q0 -20 -15 -35.5t-35 -15.5
h-232v-139h177q20 0 34.5 -15t14.5 -35t-14.5 -35t-34.5 -15h-177v-123h232q20 0 35 -15.5t15 -36.5q0 -20 -15 -35.5t-35 -15.5h-289z" />
    <glyph glyph-name="Igrave" unicode="&#xcc;" horiz-adv-x="253" 
d="M70 511q0 23 16.5 40t39.5 17t40 -17t17 -40v-454q0 -23 -17 -40t-40 -17t-39.5 17t-16.5 40v454zM27 726q-2 3 -3 7t-1 7q0 19 11 31.5t29 12.5q23 0 34 -8.5t19 -24.5l35 -70q3 -6 3 -12q0 -17 -13 -28t-27 -11q-13 0 -22 7.5t-18 18.5z" />
    <glyph glyph-name="Iacute" unicode="&#xcd;" horiz-adv-x="253" 
d="M70 511q0 23 16.5 40t39.5 17t40 -17t17 -40v-454q0 -23 -17 -40t-40 -17t-39.5 17t-16.5 40v454zM177 656q-9 -11 -18 -18.5t-22 -7.5q-14 0 -27 11t-13 28q0 6 3 12l35 70q8 16 19 24.5t34 8.5q18 0 29 -12.5t11 -31.5q0 -3 -1 -7t-3 -7z" />
    <glyph glyph-name="Icircumflex" unicode="&#xce;" horiz-adv-x="253" 
d="M70 57q0 -23 16.5 -40t39.5 -17t40 17t17 40v454q0 23 -17 40t-40 17t-39.5 -17t-16.5 -40v-454zM136 759q5 0 11 -3t8 -5l86 -64q15 -12 15 -32q0 -17 -11.5 -28.5t-28.5 -11.5q-16 0 -28 10l-62 51l-62 -51q-12 -10 -28 -10q-17 0 -28.5 11.5t-11.5 28.5q0 20 15 32
l86 64q2 2 8 5t11 3h20z" />
    <glyph glyph-name="Idieresis" unicode="&#xcf;" horiz-adv-x="253" 
d="M-11 699q0 26 17 43t43 17t43 -17t17 -43t-17 -43t-43 -17t-43 17t-17 43zM142 699q0 26 17 43t43 17t43 -17t17 -43t-17 -43t-43 -17t-43 17t-17 43zM70 511q0 23 16.5 40t39.5 17t40 -17t17 -40v-454q0 -23 -17 -40t-40 -17t-39.5 17t-16.5 40v454z" />
    <glyph glyph-name="Eth" unicode="&#xd0;" horiz-adv-x="607" 
d="M155 0q-23 0 -39.5 17t-16.5 40v169h-34q-20 0 -35 15.5t-15 35.5q0 21 15 36.5t35 15.5h34v182q0 23 16.5 40t39.5 17h149q60 0 110 -22t86.5 -61t56.5 -91t20 -112t-20 -111.5t-56.5 -89.5t-86.5 -59.5t-110 -21.5h-149zM212 226v-125h74q39 0 71.5 13t56.5 37t37 56.5
t13 71.5t-13 73t-37 58.5t-56.5 39t-71.5 14.5h-74v-135h103q20 0 35 -15.5t15 -36.5q0 -20 -15 -35.5t-35 -15.5h-103z" />
    <glyph glyph-name="Ntilde" unicode="&#xd1;" horiz-adv-x="629" 
d="M70 511q0 23 16.5 40t39.5 17q8 0 18 -2.5t18 -9.5l284 -226v181q0 23 16.5 40t39.5 17t40 -17t17 -40v-454q0 -23 -17 -40t-40 -17t-39.5 17t-16.5 40v133l-263 203v-336q0 -23 -17 -40t-40 -17t-39.5 17t-16.5 40v454zM414 645q-14 -7 -28 -11t-29 -4q-16 0 -30 5.5
t-27 11.5t-26 11.5t-27 5.5q-5 0 -11.5 -0.5t-11.5 -1.5q-3 -1 -5.5 -1.5t-5.5 -0.5q-15 0 -28.5 10.5t-18.5 24.5q-2 8 -2 13q0 16 10 29t24 18q11 5 23 8.5t26 3.5q25 0 38.5 -5.5t24 -11.5t20.5 -11.5t28 -5.5q17 0 29 4l6 2t6 1q15 0 28.5 -10.5t18.5 -24.5q2 -8 2 -13
q0 -16 -10 -29t-24 -18z" />
    <glyph glyph-name="Ograve" unicode="&#xd2;" horiz-adv-x="670" 
d="M335 575q60 0 113 -23t92 -62t62 -92t23 -113t-23 -113t-62 -92t-92 -62t-113 -23t-113 23t-92 62t-62 92t-23 113t23 113t62 92t92 62t113 23zM334 95q39 0 71.5 14.5t56.5 40t37 59.5t13 73t-13 73t-37 59.5t-56.5 40.5t-71.5 15t-71.5 -15t-55.5 -40.5t-36 -59.5
t-13 -73t13 -73t36 -59.5t55.5 -40t71.5 -14.5zM238 726q-2 3 -3 7t-1 7q0 19 11 31.5t29 12.5q23 0 34 -8.5t19 -24.5l35 -70q3 -6 3 -12q0 -17 -13 -28t-27 -11q-13 0 -22 7.5t-18 18.5z" />
    <glyph glyph-name="Oacute" unicode="&#xd3;" horiz-adv-x="670" 
d="M335 575q60 0 113 -23t92 -62t62 -92t23 -113t-23 -113t-62 -92t-92 -62t-113 -23t-113 23t-92 62t-62 92t-23 113t23 113t62 92t92 62t113 23zM336 95q39 0 71.5 14.5t55.5 40t36 59.5t13 73t-13 73t-36 59.5t-55.5 40.5t-71.5 15t-71.5 -15t-56.5 -40.5t-37 -59.5
t-13 -73t13 -73t37 -59.5t56.5 -40t71.5 -14.5zM387 656q-9 -11 -18 -18.5t-22 -7.5q-14 0 -27 11t-13 28q0 6 3 12l35 70q8 16 19 24.5t34 8.5q18 0 29 -12.5t11 -31.5q0 -3 -1 -7t-3 -7z" />
    <glyph glyph-name="Ocircumflex" unicode="&#xd4;" horiz-adv-x="670" 
d="M335 575q-60 0 -113 -23t-92 -62t-62 -92t-23 -113t23 -113t62 -92t92 -62t113 -23t113 23t92 62t62 92t23 113t-23 113t-62 92t-92 62t-113 23zM336 95q-39 0 -71.5 14.5t-56.5 40t-37 59.5t-13 73t13 73t37 59.5t56.5 40.5t71.5 15t71.5 -15t55.5 -40.5t36 -59.5
t13 -73t-13 -73t-36 -59.5t-55.5 -40t-71.5 -14.5zM346 774q5 0 11 -3t8 -5l86 -64q15 -12 15 -32q0 -17 -11.5 -28.5t-28.5 -11.5q-16 0 -28 10l-62 51l-62 -51q-12 -10 -28 -10q-17 0 -28.5 11.5t-11.5 28.5q0 20 15 32l86 64q2 2 8 5t11 3h20z" />
    <glyph glyph-name="Otilde" unicode="&#xd5;" horiz-adv-x="670" 
d="M335 575q60 0 113 -23t92 -62t62 -92t23 -113t-23 -113t-62 -92t-92 -62t-113 -23t-113 23t-92 62t-62 92t-23 113t23 113t62 92t92 62t113 23zM336 95q39 0 71.5 14.5t55.5 40t36 59.5t13 73t-13 73t-36 59.5t-55.5 40.5t-71.5 15t-71.5 -15t-56.5 -40.5t-37 -59.5
t-13 -73t13 -73t37 -59.5t56.5 -40t71.5 -14.5zM444 645q-14 -7 -28 -11t-29 -4q-16 0 -30 5.5t-27 11.5t-26 11.5t-27 5.5q-5 0 -11.5 -0.5t-11.5 -1.5q-3 -1 -5.5 -1.5t-5.5 -0.5q-15 0 -28.5 10.5t-18.5 24.5q-2 8 -2 13q0 16 10 29t24 18q11 5 23 8.5t26 3.5
q25 0 38.5 -5.5t24 -11.5t20.5 -11.5t28 -5.5q17 0 29 4l6 2t6 1q15 0 28.5 -10.5t18.5 -24.5q2 -8 2 -13q0 -16 -10 -29t-24 -18z" />
    <glyph glyph-name="Odieresis" unicode="&#xd6;" horiz-adv-x="670" 
d="M335 575q60 0 113 -23t92 -62t62 -92t23 -113t-23 -113t-62 -92t-92 -62t-113 -23t-113 23t-92 62t-62 92t-23 113t23 113t62 92t92 62t113 23zM336 95q39 0 71.5 14.5t55.5 40t36 59.5t13 73t-13 73t-36 59.5t-55.5 40.5t-71.5 15t-71.5 -15t-56.5 -40.5t-37 -59.5
t-13 -73t13 -73t37 -59.5t56.5 -40t71.5 -14.5zM195 690q0 26 17 43t43 17t43 -17t17 -43t-17 -43t-43 -17t-43 17t-17 43zM354 690q0 26 17 43t43 17t43 -17t17 -43t-17 -43t-43 -17t-43 17t-17 43z" />
    <glyph glyph-name="multiply" unicode="&#xd7;" horiz-adv-x="428" 
d="M214 132l-56 -55q-14 -16 -38 -16q-21 0 -35.5 15t-14.5 37q0 19 12 33l60 59l-60 57q-12 13 -12 33q0 22 14.5 37t35.5 15q24 0 38 -16l56 -54l56 54q14 16 38 16q21 0 35.5 -15t14.5 -37q0 -20 -12 -33l-60 -57l60 -59q12 -14 12 -33q0 -22 -14.5 -37t-35.5 -15
q-24 0 -38 16z" />
    <glyph glyph-name="Oslash" unicode="&#xd8;" horiz-adv-x="670" 
d="M260 -49q-5 -14 -17 -23t-27 -9q-20 0 -34 14t-14 34q0 8 3 16l19 51q-66 38 -105.5 104t-39.5 147q0 60 23 113t62 92t92 62t113 23q30 0 57 -6l19 50q5 14 17 23t27 9q20 0 34 -14t14 -34q0 -9 -3 -16l-19 -51q65 -38 104.5 -104t39.5 -147q0 -60 -23 -113t-62 -92
t-92 -62t-113 -23q-29 0 -57 6zM158 282q0 -47 18.5 -86t50.5 -65l127 338q-5 1 -10 1h-10q-39 0 -71.5 -15t-55.5 -40.5t-36 -59.5t-13 -73zM334 95q39 0 71.5 14.5t56.5 40t37 59.5t13 73q0 47 -18.5 86.5t-51.5 65.5l-128 -338q5 -1 10 -1h10z" />
    <glyph glyph-name="Ugrave" unicode="&#xd9;" horiz-adv-x="618" 
d="M183 251q0 -78 28 -117t98 -39t98 39t28 117v260q0 23 16.5 40t39.5 17t40 -17t17 -40v-260q0 -118 -60 -187t-180 -69q-119 0 -178.5 69t-59.5 187v260q0 23 16.5 40t39.5 17t40 -17t17 -40v-260zM215 726q-2 3 -3 7t-1 7q0 19 11 31.5t29 12.5q23 0 34 -8.5t19 -24.5
l35 -70q3 -6 3 -12q0 -17 -13 -28t-27 -11q-13 0 -22 7.5t-18 18.5z" />
    <glyph glyph-name="Uacute" unicode="&#xda;" horiz-adv-x="618" 
d="M183 251q0 -78 28 -117t98 -39t98 39t28 117v260q0 23 16.5 40t39.5 17t40 -17t17 -40v-260q0 -118 -60 -187t-180 -69q-119 0 -178.5 69t-59.5 187v260q0 23 16.5 40t39.5 17t40 -17t17 -40v-260zM363 656q-9 -11 -18 -18.5t-22 -7.5q-14 0 -27 11t-13 28q0 6 3 12
l35 70q8 16 19 24.5t34 8.5q18 0 29 -12.5t11 -31.5q0 -3 -1 -7t-3 -7z" />
    <glyph glyph-name="Ucircumflex" unicode="&#xdb;" horiz-adv-x="618" 
d="M183 511q0 23 -17 40t-40 17t-39.5 -17t-16.5 -40v-260q0 -118 59.5 -187t178.5 -69q120 0 180 69t60 187v260q0 23 -17 40t-40 17t-39.5 -17t-16.5 -40v-260q0 -78 -28 -117t-98 -39t-98 39t-28 117v260zM320 774q5 0 11 -3t8 -5l86 -64q15 -12 15 -32
q0 -17 -11.5 -28.5t-28.5 -11.5q-16 0 -28 10l-62 51l-62 -51q-12 -10 -28 -10q-17 0 -28.5 11.5t-11.5 28.5q0 20 15 32l86 64q2 2 8 5t11 3h20z" />
    <glyph glyph-name="Udieresis" unicode="&#xdc;" horiz-adv-x="618" 
d="M169 690q0 26 17 43t43 17t43 -17t17 -43t-17 -43t-43 -17t-43 17t-17 43zM328 690q0 26 17 43t43 17t43 -17t17 -43t-17 -43t-43 -17t-43 17t-17 43zM183 251q0 -78 28 -117t98 -39t98 39t28 117v260q0 23 16.5 40t39.5 17t40 -17t17 -40v-260q0 -118 -60 -187t-180 -69
q-119 0 -178.5 69t-59.5 187v260q0 23 16.5 40t39.5 17t40 -17t17 -40v-260z" />
    <glyph glyph-name="Yacute" unicode="&#xdd;" horiz-adv-x="555" 
d="M221 212l-200 294q-1 3 -1 11q0 25 19.5 38t42.5 13q17 0 31.5 -8.5t22.5 -23.5l142 -210l141 210q8 15 22.5 23.5t31.5 8.5q23 0 42.5 -13t19.5 -38q0 -8 -1 -11l-200 -294v-155q0 -23 -17 -40t-40 -17t-39.5 17t-16.5 40v155zM339 656q-9 -11 -18 -18.5t-22 -7.5
q-14 0 -27 11t-13 28q0 6 3 12l35 70q8 16 19 24.5t34 8.5q18 0 29 -12.5t11 -31.5q0 -3 -1 -7t-3 -7z" />
    <glyph glyph-name="Thorn" unicode="&#xde;" horiz-adv-x="519" 
d="M319 209q27 0 47 20t20 62t-20 61.5t-47 19.5h-136v-163h136zM70 511q0 23 16.5 40t39.5 17t40 -17t17 -40v-29h146q35 0 66 -13.5t54 -38.5t36.5 -60t13.5 -78t-13.5 -77.5t-36.5 -59t-54 -38t-66 -13.5h-146v-47q0 -23 -17 -40t-40 -17t-39.5 17t-16.5 40v454z" />
    <glyph glyph-name="germandbls" unicode="&#xdf;" horiz-adv-x="550" 
d="M70 399q0 35 13.5 65.5t36.5 53.5t54 36.5t66 13.5h90q35 0 66 -13.5t54 -36.5t36.5 -53.5t13.5 -65.5q0 -34 -12.5 -64t-34.5 -53q21 -23 33.5 -51.5t12.5 -62.5q0 -35 -13.5 -65.5t-36.5 -53.5t-53.5 -36t-65.5 -13h-32q-21 0 -35.5 14.5t-14.5 35.5t14.5 36t35.5 15
h24q27 0 46.5 20.5t19.5 46.5q0 22 -13 41.5t-35 19.5h-53q-22 0 -37 15t-15 37t15 37.5t37 15.5h36q27 0 46 19.5t19 45.5t-19 45.5t-46 19.5h-76q-27 0 -45.5 -19.5t-18.5 -45.5v-343q0 -23 -17 -39.5t-40 -16.5t-39.5 16.5t-16.5 39.5v343z" />
    <glyph glyph-name="agrave" unicode="&#xe0;" horiz-adv-x="515" 
d="M238 95q19 0 36 8t30 22t20.5 33.5t7.5 42.5q0 46 -28 73.5t-66 27.5t-64 -28t-26 -73t26 -75.5t64 -30.5zM356 57q-8 -16 -24 -28t-35.5 -19.5t-40 -11t-37.5 -3.5q-40 0 -73.5 16.5t-58 45t-38.5 66t-14 79.5t14 79t39.5 64.5t60.5 43.5t76 16q7 0 21.5 -1.5t32.5 -8
t38.5 -19t38.5 -33.5l2 13q0 18 12.5 31t30.5 13t31 -13t13 -31v-312q0 -18 -13 -31t-31 -13t-30.5 13t-12.5 31zM139 566q-2 3 -3 7t-1 7q0 19 11 31.5t29 12.5q23 0 34 -8.5t19 -24.5l35 -70q3 -6 3 -12q0 -17 -13 -28t-27 -11q-13 0 -22 7.5t-18 18.5z" />
    <glyph glyph-name="aacute" unicode="&#xe1;" horiz-adv-x="515" 
d="M238 95q19 0 36 8t30 22t20.5 33.5t7.5 42.5q0 46 -28 73.5t-66 27.5t-64 -28t-26 -73t26 -75.5t64 -30.5zM356 57q-8 -16 -24 -28t-35.5 -19.5t-40 -11t-37.5 -3.5q-40 0 -73.5 16.5t-58 45t-38.5 66t-14 79.5t14 79t39.5 64.5t60.5 43.5t76 16q7 0 21.5 -1.5t32.5 -8
t38.5 -19t38.5 -33.5l2 13q0 18 12.5 31t30.5 13t31 -13t13 -31v-312q0 -18 -13 -31t-31 -13t-30.5 13t-12.5 31zM281 496q-9 -11 -18 -18.5t-22 -7.5q-14 0 -27 11t-13 28q0 6 3 12l35 70q8 16 19 24.5t34 8.5q18 0 29 -12.5t11 -31.5q0 -3 -1 -7t-3 -7z" />
    <glyph glyph-name="acircumflex" unicode="&#xe2;" horiz-adv-x="515" 
d="M238 95q-38 0 -64 30.5t-26 75.5t26 73t64 28t66 -27.5t28 -73.5q0 -23 -7.5 -42.5t-20.5 -33.5t-30 -22t-36 -8zM358 44q0 -18 12.5 -31t30.5 -13t31 13t13 31v312q0 18 -13 31t-31 13t-30.5 -13t-12.5 -31l-2 -13q-18 21 -38.5 33.5t-38.5 19t-32.5 8t-21.5 1.5
q-41 0 -76 -16t-60.5 -43.5t-39.5 -64.5t-14 -79t14 -79.5t38.5 -66t58 -45t73.5 -16.5q17 0 37.5 3.5t40 11t35.5 19.5t24 28zM253 614q5 0 11 -3t8 -5l86 -64q15 -12 15 -32q0 -17 -11.5 -28.5t-28.5 -11.5q-16 0 -28 10l-62 51l-62 -51q-12 -10 -28 -10q-17 0 -28.5 11.5
t-11.5 28.5q0 20 15 32l86 64q2 2 8 5t11 3h20z" />
    <glyph glyph-name="atilde" unicode="&#xe3;" horiz-adv-x="515" 
d="M238 95q19 0 36 8t30 22t20.5 33.5t7.5 42.5q0 46 -28 73.5t-66 27.5t-64 -28t-26 -73t26 -75.5t64 -30.5zM356 57q-8 -16 -24 -28t-35.5 -19.5t-40 -11t-37.5 -3.5q-40 0 -73.5 16.5t-58 45t-38.5 66t-14 79.5t14 79t39.5 64.5t60.5 43.5t76 16q7 0 21.5 -1.5t32.5 -8
t38.5 -19t38.5 -33.5l2 13q0 18 12.5 31t30.5 13t31 -13t13 -31v-312q0 -18 -13 -31t-31 -13t-30.5 13t-12.5 31zM351 485q-14 -7 -28 -11t-29 -4q-16 0 -30 5.5t-27 11.5t-26 11.5t-27 5.5q-5 0 -11.5 -0.5t-11.5 -1.5q-3 -1 -5.5 -1.5t-5.5 -0.5q-15 0 -28.5 10.5
t-18.5 24.5q-2 8 -2 13q0 16 10 29t24 18q11 5 23 8.5t26 3.5q25 0 38.5 -5.5t24 -11.5t20.5 -11.5t28 -5.5q17 0 29 4l6 2t6 1q15 0 28.5 -10.5t18.5 -24.5q2 -8 2 -13q0 -16 -10 -29t-24 -18z" />
    <glyph glyph-name="adieresis" unicode="&#xe4;" horiz-adv-x="515" 
d="M98 530q0 26 17 43t43 17t43 -17t17 -43t-17 -43t-43 -17t-43 17t-17 43zM257 530q0 26 17 43t43 17t43 -17t17 -43t-17 -43t-43 -17t-43 17t-17 43zM238 95q19 0 36 8t30 22t20.5 33.5t7.5 42.5q0 46 -28 73.5t-66 27.5t-64 -28t-26 -73t26 -75.5t64 -30.5zM356 57
q-8 -16 -24 -28t-35.5 -19.5t-40 -11t-37.5 -3.5q-40 0 -73.5 16.5t-58 45t-38.5 66t-14 79.5t14 79t39.5 64.5t60.5 43.5t76 16q7 0 21.5 -1.5t32.5 -8t38.5 -19t38.5 -33.5l2 13q0 18 12.5 31t30.5 13t31 -13t13 -31v-312q0 -18 -13 -31t-31 -13t-30.5 13t-12.5 31z" />
    <glyph glyph-name="aring" unicode="&#xe5;" horiz-adv-x="515" 
d="M231 700q22 0 42.5 -9t35.5 -24t24 -35.5t9 -43.5t-9 -43t-24 -35.5t-35.5 -24.5t-42.5 -9q-23 0 -43.5 9t-36 24.5t-24.5 35.5t-9 43t9 43.5t24.5 35.5t36 24t43.5 9zM231 542q15 0 27 13t12 33t-12 31t-27 11q-17 0 -29 -11t-12 -31t12 -33t29 -13zM238 95q19 0 36 8
t30 22t20.5 33.5t7.5 42.5q0 46 -28 73.5t-66 27.5t-64 -28t-26 -73t26 -75.5t64 -30.5zM356 57q-8 -16 -24 -28t-35.5 -19.5t-40 -11t-37.5 -3.5q-40 0 -73.5 16.5t-58 45t-38.5 66t-14 79.5t14 79t39.5 64.5t60.5 43.5t76 16q7 0 21.5 -1.5t32.5 -8t38.5 -19t38.5 -33.5
l2 13q0 18 12.5 31t30.5 13t31 -13t13 -31v-312q0 -18 -13 -31t-31 -13t-30.5 13t-12.5 31z" />
    <glyph glyph-name="ae" unicode="&#xe6;" horiz-adv-x="693" 
d="M273 141q-7 11 -18 18.5t-41 7.5q-38 0 -55 -9.5t-17 -25.5q0 -23 18.5 -33.5t50.5 -10.5q3 0 10 1t16.5 3t19 6.5t16.5 12.5v30zM548 237q0 18 -8.5 30t-21 19.5t-27 10.5t-25.5 3t-24.5 -3t-25.5 -9.5t-20.5 -17t-10.5 -26.5q1 -2 1 -7h162zM118 295q-8 -2 -14 -2
q-19 0 -33 14t-14 33q0 15 8.5 27.5t22.5 17.5q32 11 59.5 15.5t51.5 4.5q89 0 137 -43q23 20 54.5 31.5t73.5 11.5q41 0 76 -13t61 -37.5t41 -61t16 -82.5q0 -18 -13 -31.5t-31 -13.5h-228v-14q3 -20 14 -32.5t25.5 -19.5t29 -9t24.5 -2q16 0 36.5 3t37.5 11q5 4 13 6.5
t16 2.5q19 0 32.5 -13.5t13.5 -32.5q0 -13 -7 -23.5t-18 -16.5q-26 -19 -58.5 -25t-64.5 -6q-43 0 -80.5 11.5t-66.5 36.5q-20 -18 -39 -28t-34.5 -14.5t-26 -5t-13.5 -0.5q-30 0 -62 4t-58 17t-43 38.5t-17 69.5q0 65 39.5 96t101.5 31q26 0 50.5 -5.5t40.5 -16.5
q0 39 -17.5 56t-61.5 17q-8 0 -31 -1t-44 -6z" />
    <glyph glyph-name="ccedilla" unicode="&#xe7;" horiz-adv-x="422" 
d="M168 -139q-11 8 -11 20q0 11 7.5 19t17.5 8q9 0 16 -5q9 -5 16.5 -6.5t20.5 -3.5q9 0 19 2.5t10 10.5q0 5 -7 10.5t-16.5 11t-21 11t-20.5 10.5l7 50q-36 7 -67.5 25.5t-54.5 45.5t-36 60.5t-13 71.5q0 42 16.5 79t45 64.5t66.5 43.5t81 16q28 0 56 -5.5t52 -16.5
q11 -7 18.5 -18.5t7.5 -25.5q0 -22 -15 -36.5t-36 -14.5q-5 0 -10 1t-10 3q-15 6 -33 7t-31 1q-39 0 -67 -26t-28 -73q0 -23 7.5 -42.5t20.5 -33.5t30 -22t37 -8q14 0 32.5 1.5t36.5 12.5q13 10 30 10q21 0 35.5 -14.5t14.5 -35.5q0 -14 -7 -25t-18 -18q-20 -14 -43.5 -21
t-48.5 -9l-3 -18q29 -18 45 -34.5t16 -42.5q0 -18 -8 -31t-21 -20.5t-28.5 -11t-31.5 -3.5q-23 0 -40.5 7t-35.5 19z" />
    <glyph glyph-name="egrave" unicode="&#xe8;" horiz-adv-x="457" 
d="M230 300q-12 0 -26 -3t-26 -10.5t-20.5 -19.5t-8.5 -30h163q0 18 -8.5 30t-21 19.5t-27 10.5t-25.5 3zM149 166q0 -25 10.5 -40t25.5 -23.5t31 -11t27 -2.5q16 0 36.5 3t37.5 11q5 4 13 6.5t16 2.5q19 0 32.5 -13.5t13.5 -32.5q0 -13 -7 -23.5t-18 -16.5
q-26 -19 -58.5 -25t-64.5 -6q-43 0 -81 11.5t-66.5 36.5t-45 63t-16.5 91q0 42 11 79.5t34.5 66t60 45.5t87.5 17q41 0 76 -13t61 -37.5t41 -61t16 -83.5q0 -18 -13 -31t-31 -13h-229zM136 566q-2 3 -3 7t-1 7q0 19 11 31.5t29 12.5q23 0 34 -8.5t19 -24.5l35 -70
q3 -6 3 -12q0 -17 -13 -28t-27 -11q-13 0 -22 7.5t-18 18.5z" />
    <glyph glyph-name="eacute" unicode="&#xe9;" horiz-adv-x="457" 
d="M230 300q-12 0 -26 -3t-26 -10.5t-20.5 -19.5t-8.5 -30h163q0 18 -8.5 30t-21 19.5t-27 10.5t-25.5 3zM149 166q0 -25 10.5 -40t25.5 -23.5t31 -11t27 -2.5q16 0 36.5 3t37.5 11q5 4 13 6.5t16 2.5q19 0 32.5 -13.5t13.5 -32.5q0 -13 -7 -23.5t-18 -16.5
q-26 -19 -58.5 -25t-64.5 -6q-43 0 -81 11.5t-66.5 36.5t-45 63t-16.5 91q0 42 11 79.5t34.5 66t60 45.5t87.5 17q41 0 76 -13t61 -37.5t41 -61t16 -83.5q0 -18 -13 -31t-31 -13h-229zM276 496q-9 -11 -18 -18.5t-22 -7.5q-14 0 -27 11t-13 28q0 6 3 12l35 70q8 16 19 24.5
t34 8.5q18 0 29 -12.5t11 -31.5q0 -3 -1 -7t-3 -7z" />
    <glyph glyph-name="ecircumflex" unicode="&#xea;" horiz-adv-x="457" 
d="M230 300q11 0 25.5 -3t27 -10.5t21 -19.5t8.5 -30h-163q0 18 8.5 30t20.5 19.5t26 10.5t26 3zM378 166q18 0 31 13t13 31q-1 47 -16 83.5t-41 61t-61 37.5t-76 13q-51 0 -87.5 -17t-60 -45.5t-34.5 -66t-11 -79.5q0 -53 16.5 -91t45 -63t66.5 -36.5t81 -11.5q32 0 64.5 6
t58.5 25q11 6 18 16.5t7 23.5q0 19 -13.5 32.5t-32.5 13.5q-8 0 -16 -2.5t-13 -6.5q-17 -8 -37.5 -11t-36.5 -3q-11 0 -27 2.5t-31 11t-25.5 23.5t-10.5 40h229zM243 614q5 0 11 -3t8 -5l86 -64q15 -12 15 -32q0 -17 -11.5 -28.5t-28.5 -11.5q-16 0 -28 10l-62 51l-62 -51
q-12 -10 -28 -10q-17 0 -28.5 11.5t-11.5 28.5q0 20 15 32l86 64q2 2 8 5t11 3h20z" />
    <glyph glyph-name="edieresis" unicode="&#xeb;" horiz-adv-x="457" 
d="M85 530q0 26 17 43t43 17t43 -17t17 -43t-17 -43t-43 -17t-43 17t-17 43zM244 530q0 26 17 43t43 17t43 -17t17 -43t-17 -43t-43 -17t-43 17t-17 43zM230 300q-12 0 -26 -3t-26 -10.5t-20.5 -19.5t-8.5 -30h163q0 18 -8.5 30t-21 19.5t-27 10.5t-25.5 3zM149 166
q0 -25 10.5 -40t25.5 -23.5t31 -11t27 -2.5q16 0 36.5 3t37.5 11q5 4 13 6.5t16 2.5q19 0 32.5 -13.5t13.5 -32.5q0 -13 -7 -23.5t-18 -16.5q-26 -19 -58.5 -25t-64.5 -6q-43 0 -81 11.5t-66.5 36.5t-45 63t-16.5 91q0 42 11 79.5t34.5 66t60 45.5t87.5 17q41 0 76 -13
t61 -37.5t41 -61t16 -83.5q0 -18 -13 -31t-31 -13h-229z" />
    <glyph glyph-name="igrave" unicode="&#xec;" horiz-adv-x="253" 
d="M70 343q0 23 16.5 40t39.5 17t40 -17t17 -40v-286q0 -23 -17 -40t-40 -17t-39.5 17t-16.5 40v286zM28 566q-2 3 -3 7t-1 7q0 19 11 31.5t29 12.5q23 0 34 -8.5t19 -24.5l35 -70q3 -6 3 -12q0 -17 -13 -28t-27 -11q-13 0 -22 7.5t-18 18.5z" />
    <glyph glyph-name="iacute" unicode="&#xed;" horiz-adv-x="253" 
d="M70 343q0 23 16.5 40t39.5 17t40 -17t17 -40v-286q0 -23 -17 -40t-40 -17t-39.5 17t-16.5 40v286zM179 496q-9 -11 -18 -18.5t-22 -7.5q-14 0 -27 11t-13 28q0 6 3 12l35 70q8 16 19 24.5t34 8.5q18 0 29 -12.5t11 -31.5q0 -3 -1 -7t-3 -7z" />
    <glyph glyph-name="icircumflex" unicode="&#xee;" horiz-adv-x="253" 
d="M70 57q0 -23 16.5 -40t39.5 -17t40 17t17 40v286q0 23 -17 40t-40 17t-39.5 -17t-16.5 -40v-286zM137 590q5 0 11 -3t8 -5l72 -64q15 -12 15 -32q0 -17 -11.5 -28.5t-28.5 -11.5q-16 0 -28 10l-48 51l-47 -51q-12 -10 -28 -10q-17 0 -28.5 11.5t-11.5 28.5q0 20 15 32
l71 64q2 2 8 5t11 3h20z" />
    <glyph glyph-name="idieresis" unicode="&#xef;" horiz-adv-x="253" 
d="M-11 531q0 26 17 43t43 17t43 -17t17 -43t-17 -43t-43 -17t-43 17t-17 43zM142 531q0 26 17 43t43 17t43 -17t17 -43t-17 -43t-43 -17t-43 17t-17 43zM70 343q0 23 16.5 40t39.5 17t40 -17t17 -40v-286q0 -23 -17 -40t-40 -17t-39.5 17t-16.5 40v286z" />
    <glyph glyph-name="eth" unicode="&#xf0;" horiz-adv-x="502" 
d="M364 431l81 -148q22 -39 22 -85q0 -51 -18 -89t-47.5 -63.5t-68.5 -38t-81 -12.5q-43 0 -82 12.5t-69 38t-48 63.5t-18 89q0 42 17.5 77.5t47.5 61.5t69 40.5t82 14.5h8l-22 39h-74q-17 0 -29 13t-12 28q0 17 12 29.5t29 12.5h26l-7 13q-5 10 -5 18q0 24 16.5 37.5
t37.5 13.5q20 0 35.5 -7t29.5 -32l23 -43h89q17 0 29 -12.5t12 -29.5q0 -15 -12 -28t-29 -13h-44zM251 287q-20 0 -38.5 -6t-32.5 -18t-23 -29.5t-9 -40.5t9 -41.5t23 -31t32.5 -19t38.5 -6.5q19 0 38 6.5t33 19t23 31t9 41.5t-9 40.5t-23 29.5t-33 18t-38 6z" />
    <glyph glyph-name="ntilde" unicode="&#xf1;" 
d="M183 57q0 -23 -17 -40t-40 -17t-39.5 17t-16.5 40v299q0 18 13 31t31 13t30.5 -13t12.5 -31q35 32 65 40.5t59 8.5q42 0 73 -14.5t51 -39.5t29.5 -57t9.5 -68v-169q0 -23 -17 -40t-40 -17t-39.5 17t-16.5 40v155q0 18 -2 34.5t-10 29t-23 19.5t-42 7q-38 0 -54.5 -26.5
t-16.5 -63.5v-155zM375 485q-14 -7 -28 -11t-29 -4q-16 0 -30 5.5t-27 11.5t-26 11.5t-27 5.5q-5 0 -11.5 -0.5t-11.5 -1.5q-3 -1 -5.5 -1.5t-5.5 -0.5q-15 0 -28.5 10.5t-18.5 24.5q-2 8 -2 13q0 16 10 29t24 18q11 5 23 8.5t26 3.5q25 0 38.5 -5.5t24 -11.5t20.5 -11.5
t28 -5.5q17 0 29 4l6 2t6 1q15 0 28.5 -10.5t18.5 -24.5q2 -8 2 -13q0 -16 -10 -29t-24 -18z" />
    <glyph glyph-name="ograve" unicode="&#xf2;" horiz-adv-x="480" 
d="M244 405q41 0 77.5 -16t64 -43.5t43.5 -64.5t16 -79t-16 -79.5t-43.5 -66t-64 -45t-77.5 -16.5q-43 0 -81 16.5t-66.5 45t-45 66t-16.5 79.5t16.5 79t45 64.5t66.5 43.5t81 16zM243 95q18 0 34 8t28.5 22t19.5 33.5t7 42.5q0 46 -26.5 72.5t-62.5 26.5q-39 0 -67 -26
t-28 -73q0 -23 7.5 -42.5t20.5 -33.5t30 -22t37 -8zM138 566q-2 3 -3 7t-1 7q0 19 11 31.5t29 12.5q23 0 34 -8.5t19 -24.5l35 -70q3 -6 3 -12q0 -17 -13 -28t-27 -11q-13 0 -22 7.5t-18 18.5z" />
    <glyph glyph-name="oacute" unicode="&#xf3;" horiz-adv-x="480" 
d="M244 405q41 0 77.5 -16t64 -43.5t43.5 -64.5t16 -79t-16 -79.5t-43.5 -66t-64 -45t-77.5 -16.5q-43 0 -81 16.5t-66.5 45t-45 66t-16.5 79.5t16.5 79t45 64.5t66.5 43.5t81 16zM243 95q18 0 34 8t28.5 22t19.5 33.5t7 42.5q0 46 -26.5 72.5t-62.5 26.5q-39 0 -67 -26
t-28 -73q0 -23 7.5 -42.5t20.5 -33.5t30 -22t37 -8zM298 496q-9 -11 -18 -18.5t-22 -7.5q-14 0 -27 11t-13 28q0 6 3 12l35 70q8 16 19 24.5t34 8.5q18 0 29 -12.5t11 -31.5q0 -3 -1 -7t-3 -7z" />
    <glyph glyph-name="ocircumflex" unicode="&#xf4;" horiz-adv-x="480" 
d="M244 405q-43 0 -81 -16t-66.5 -43.5t-45 -64.5t-16.5 -79t16.5 -79.5t45 -66t66.5 -45t81 -16.5q41 0 77.5 16.5t64 45t43.5 66t16 79.5t-16 79t-43.5 64.5t-64 43.5t-77.5 16zM243 95q-20 0 -37 8t-30 22t-20.5 33.5t-7.5 42.5q0 47 28 73t67 26q36 0 62.5 -26.5
t26.5 -72.5q0 -23 -7 -42.5t-19.5 -33.5t-28.5 -22t-34 -8zM255 614q5 0 11 -3t8 -5l86 -64q15 -12 15 -32q0 -17 -11.5 -28.5t-28.5 -11.5q-16 0 -28 10l-62 51l-62 -51q-12 -10 -28 -10q-17 0 -28.5 11.5t-11.5 28.5q0 20 15 32l86 64q2 2 8 5t11 3h20z" />
    <glyph glyph-name="otilde" unicode="&#xf5;" horiz-adv-x="480" 
d="M244 405q41 0 77.5 -16t64 -43.5t43.5 -64.5t16 -79t-16 -79.5t-43.5 -66t-64 -45t-77.5 -16.5q-43 0 -81 16.5t-66.5 45t-45 66t-16.5 79.5t16.5 79t45 64.5t66.5 43.5t81 16zM243 95q18 0 34 8t28.5 22t19.5 33.5t7 42.5q0 46 -26.5 72.5t-62.5 26.5q-39 0 -67 -26
t-28 -73q0 -23 7.5 -42.5t20.5 -33.5t30 -22t37 -8zM353 485q-14 -7 -28 -11t-29 -4q-16 0 -30 5.5t-27 11.5t-26 11.5t-27 5.5q-5 0 -11.5 -0.5t-11.5 -1.5q-3 -1 -5.5 -1.5t-5.5 -0.5q-15 0 -28.5 10.5t-18.5 24.5q-2 8 -2 13q0 16 10 29t24 18q11 5 23 8.5t26 3.5
q25 0 38.5 -5.5t24 -11.5t20.5 -11.5t28 -5.5q17 0 29 4l6 2t6 1q15 0 28.5 -10.5t18.5 -24.5q2 -8 2 -13q0 -16 -10 -29t-24 -18z" />
    <glyph glyph-name="odieresis" unicode="&#xf6;" horiz-adv-x="480" 
d="M244 405q41 0 77.5 -16t64 -43.5t43.5 -64.5t16 -79t-16 -79.5t-43.5 -66t-64 -45t-77.5 -16.5q-43 0 -81 16.5t-66.5 45t-45 66t-16.5 79.5t16.5 79t45 64.5t66.5 43.5t81 16zM243 95q18 0 34 8t28.5 22t19.5 33.5t7 42.5q0 46 -26.5 72.5t-62.5 26.5q-39 0 -67 -26
t-28 -73q0 -23 7.5 -42.5t20.5 -33.5t30 -22t37 -8zM106 530q0 26 17 43t43 17t43 -17t17 -43t-17 -43t-43 -17t-43 17t-17 43zM265 530q0 26 17 43t43 17t43 -17t17 -43t-17 -43t-43 -17t-43 17t-17 43z" />
    <glyph glyph-name="divide" unicode="&#xf7;" horiz-adv-x="490" 
d="M184 356q0 26 17 43t43 17t43 -17t17 -43t-17 -43t-43 -17t-43 17t-17 43zM184 54q0 26 17 43t43 17t43 -17t17 -43t-17 -43t-43 -17t-43 17t-17 43zM120 153q-20 0 -35 15.5t-15 35.5q0 21 15 36.5t35 15.5h250q20 0 35 -15.5t15 -36.5q0 -20 -15 -35.5t-35 -15.5h-250z
" />
    <glyph glyph-name="oslash" unicode="&#xf8;" horiz-adv-x="480" 
d="M148 201q0 -18 5 -34t13 -29l61 161q-34 -5 -56.5 -30.5t-22.5 -67.5zM251 95q34 4 57.5 33t23.5 73q0 36 -18 62zM355 371q41 -28 65.5 -72t24.5 -97q0 -42 -16 -79.5t-43.5 -66t-64 -45t-77.5 -16.5q-8 0 -15 0.5t-15 1.5l-9 -23q-5 -14 -17 -23t-27 -9q-20 0 -34 14
t-14 34q0 8 3 16l10 26q-42 29 -66.5 73.5t-24.5 96.5q0 42 16.5 79t45 64.5t66.5 43.5t81 16h11.5t10.5 -1l8 21q5 14 17 23t27 9q20 0 34 -14t14 -34q0 -9 -3 -16z" />
    <glyph glyph-name="ugrave" unicode="&#xf9;" 
d="M348 45q-35 -33 -65.5 -41.5t-59.5 -8.5q-42 0 -73 14.5t-51 39.5t-29.5 57t-9.5 68v169q0 23 16.5 40t39.5 17t40 -17t17 -40v-158q0 -18 2 -34.5t10 -29t23 -19.5t42 -7q38 0 54.5 26.5t16.5 63.5v158q0 23 16.5 40t39.5 17t40 -17t17 -40v-299q0 -18 -13 -31t-31 -13
t-30 13.5t-12 31.5zM148 566q-2 3 -3 7t-1 7q0 19 11 31.5t29 12.5q23 0 34 -8.5t19 -24.5l35 -70q3 -6 3 -12q0 -17 -13 -28t-27 -11q-13 0 -22 7.5t-18 18.5z" />
    <glyph glyph-name="uacute" unicode="&#xfa;" 
d="M348 45q-35 -33 -65.5 -41.5t-59.5 -8.5q-42 0 -73 14.5t-51 39.5t-29.5 57t-9.5 68v169q0 23 16.5 40t39.5 17t40 -17t17 -40v-158q0 -18 2 -34.5t10 -29t23 -19.5t42 -7q38 0 54.5 26.5t16.5 63.5v158q0 23 16.5 40t39.5 17t40 -17t17 -40v-299q0 -18 -13 -31t-31 -13
t-30 13.5t-12 31.5zM297 496q-9 -11 -18 -18.5t-22 -7.5q-14 0 -27 11t-13 28q0 6 3 12l35 70q8 16 19 24.5t34 8.5q18 0 29 -12.5t11 -31.5q0 -3 -1 -7t-3 -7z" />
    <glyph glyph-name="ucircumflex" unicode="&#xfb;" 
d="M348 45q0 -18 12 -31.5t30 -13.5t31 13t13 31v299q0 23 -17 40t-40 17t-39.5 -17t-16.5 -40v-158q0 -37 -16.5 -63.5t-54.5 -26.5q-27 0 -42 7t-23 19.5t-10 29t-2 34.5v158q0 23 -17 40t-40 17t-39.5 -17t-16.5 -40v-169q0 -36 9.5 -68t29.5 -57t51 -39.5t73 -14.5
q29 0 59.5 8.5t65.5 41.5zM261 614q5 0 11 -3t8 -5l86 -64q15 -12 15 -32q0 -17 -11.5 -28.5t-28.5 -11.5q-16 0 -28 10l-62 51l-62 -51q-12 -10 -28 -10q-17 0 -28.5 11.5t-11.5 28.5q0 20 15 32l86 64q2 2 8 5t11 3h20z" />
    <glyph glyph-name="udieresis" unicode="&#xfc;" 
d="M104 530q0 26 17 43t43 17t43 -17t17 -43t-17 -43t-43 -17t-43 17t-17 43zM263 530q0 26 17 43t43 17t43 -17t17 -43t-17 -43t-43 -17t-43 17t-17 43zM348 45q-35 -33 -65.5 -41.5t-59.5 -8.5q-42 0 -73 14.5t-51 39.5t-29.5 57t-9.5 68v169q0 23 16.5 40t39.5 17t40 -17
t17 -40v-158q0 -18 2 -34.5t10 -29t23 -19.5t42 -7q38 0 54.5 26.5t16.5 63.5v158q0 23 16.5 40t39.5 17t40 -17t17 -40v-299q0 -18 -13 -31t-31 -13t-30 13.5t-12 31.5z" />
    <glyph glyph-name="yacute" unicode="&#xfd;" 
d="M109 -172q-12 7 -18.5 18.5t-6.5 24.5q0 17 12.5 33.5t29.5 16.5q15 0 40.5 -9.5t66.5 -9.5q27 0 43.5 6t26.5 17.5t14 27t5 34.5v36q-28 -19 -52 -23.5t-47 -4.5q-42 0 -73 14.5t-51 39.5t-29.5 57t-9.5 68v169q0 23 16.5 40t39.5 17t40 -17t17 -40v-158q0 -18 2 -34.5
t10 -29t23 -19.5t42 -7q38 0 54.5 26.5t16.5 63.5v158q0 23 16.5 40t39.5 17t40 -17t17 -40v-340q0 -54 -17 -92t-44.5 -62t-61.5 -35.5t-68 -11.5q-43 0 -75 5.5t-59 20.5zM291 496q-9 -11 -18 -18.5t-22 -7.5q-14 0 -27 11t-13 28q0 6 3 12l35 70q8 16 19 24.5t34 8.5
q18 0 29 -12.5t11 -31.5q0 -3 -1 -7t-3 -7z" />
    <glyph glyph-name="thorn" unicode="&#xfe;" horiz-adv-x="515" 
d="M277 95q38 0 64 30.5t26 75.5t-26 73t-64 28t-66 -27.5t-28 -73.5q0 -23 7.5 -42.5t20.5 -33.5t30 -22t36 -8zM183 374q27 19 55.5 25t51.5 6q41 0 76 -16t60.5 -43.5t39.5 -64.5t14 -79t-14 -79.5t-38.5 -66t-58 -45t-73.5 -16.5q-25 0 -57.5 8t-55.5 25v-142
q0 -23 -17 -40t-40 -17t-39.5 17t-16.5 40v625q0 23 16.5 40t39.5 17t40 -17t17 -40v-137z" />
    <glyph glyph-name="ydieresis" unicode="&#xff;" 
d="M102 530q0 26 17 43t43 17t43 -17t17 -43t-17 -43t-43 -17t-43 17t-17 43zM261 530q0 26 17 43t43 17t43 -17t17 -43t-17 -43t-43 -17t-43 17t-17 43zM109 -172q-12 7 -18.5 18.5t-6.5 24.5q0 17 12.5 33.5t29.5 16.5q15 0 40.5 -9.5t66.5 -9.5q27 0 43.5 6t26.5 17.5
t14 27t5 34.5v36q-28 -19 -52 -23.5t-47 -4.5q-42 0 -73 14.5t-51 39.5t-29.5 57t-9.5 68v169q0 23 16.5 40t39.5 17t40 -17t17 -40v-158q0 -18 2 -34.5t10 -29t23 -19.5t42 -7q38 0 54.5 26.5t16.5 63.5v158q0 23 16.5 40t39.5 17t40 -17t17 -40v-340q0 -54 -17 -92
t-44.5 -62t-61.5 -35.5t-68 -11.5q-43 0 -75 5.5t-59 20.5z" />
    <glyph glyph-name="Amacron" unicode="&#x100;" horiz-adv-x="586" 
d="M565 59q1 -3 1 -10q0 -24 -19 -36.5t-41 -12.5q-16 0 -30 8t-22 22l-47 93h-228l-47 -93q-8 -14 -22 -22t-30 -8q-22 0 -41 12.5t-19 36.5q0 7 1 10l251 495q5 14 21 14t21 -14zM356 224l-63 126l-63 -126h126zM184 630q-20 0 -35 15.5t-15 35.5q0 21 15 36.5t35 15.5
h218q20 0 35 -15.5t15 -36.5q0 -20 -15 -35.5t-35 -15.5h-218z" />
    <glyph glyph-name="amacron" unicode="&#x101;" horiz-adv-x="515" 
d="M238 95q19 0 36 8t30 22t20.5 33.5t7.5 42.5q0 46 -28 73.5t-66 27.5t-64 -28t-26 -73t26 -75.5t64 -30.5zM356 57q-8 -16 -24 -28t-35.5 -19.5t-40 -11t-37.5 -3.5q-40 0 -73.5 16.5t-58 45t-38.5 66t-14 79.5t14 79t39.5 64.5t60.5 43.5t76 16q7 0 21.5 -1.5t32.5 -8
t38.5 -19t38.5 -33.5l2 13q0 18 12.5 31t30.5 13t31 -13t13 -31v-312q0 -18 -13 -31t-31 -13t-30.5 13t-12.5 31zM119 470q-20 0 -35 15.5t-15 35.5q0 21 15 36.5t35 15.5h222q20 0 35 -15.5t15 -36.5q0 -20 -15 -35.5t-35 -15.5h-222z" />
    <glyph glyph-name="Abreve" unicode="&#x102;" horiz-adv-x="586" 
d="M565 59q1 -3 1 -10q0 -24 -19 -36.5t-41 -12.5q-16 0 -30 8t-22 22l-47 93h-228l-47 -93q-8 -14 -22 -22t-30 -8q-22 0 -41 12.5t-19 36.5q0 7 1 10l251 495q5 14 21 14t21 -14zM356 224l-63 126l-63 -126h126zM294 630q-60 0 -102.5 23.5t-61.5 62.5q-4 9 -4 21
q0 23 16.5 40t39.5 17q17 0 27.5 -8.5t25.5 -26.5q17 -21 34 -25t26 -4t26 4t34 25q15 18 25.5 26.5t27.5 8.5q23 0 39.5 -17t16.5 -40q0 -12 -4 -21q-19 -39 -61.5 -62.5t-104.5 -23.5z" />
    <glyph glyph-name="abreve" unicode="&#x103;" horiz-adv-x="515" 
d="M238 95q19 0 36 8t30 22t20.5 33.5t7.5 42.5q0 46 -28 73.5t-66 27.5t-64 -28t-26 -73t26 -75.5t64 -30.5zM356 57q-8 -16 -24 -28t-35.5 -19.5t-40 -11t-37.5 -3.5q-40 0 -73.5 16.5t-58 45t-38.5 66t-14 79.5t14 79t39.5 64.5t60.5 43.5t76 16q7 0 21.5 -1.5t32.5 -8
t38.5 -19t38.5 -33.5l2 13q0 18 12.5 31t30.5 13t31 -13t13 -31v-312q0 -18 -13 -31t-31 -13t-30.5 13t-12.5 31zM240 466q-60 0 -102.5 23.5t-61.5 62.5q-4 9 -4 21q0 23 16.5 40t39.5 17q17 0 27.5 -8.5t25.5 -26.5q17 -21 34 -25t26 -4t26 4t34 25q15 18 25.5 26.5
t27.5 8.5q23 0 39.5 -17t16.5 -40q0 -12 -4 -21q-19 -39 -61.5 -62.5t-104.5 -23.5z" />
    <glyph glyph-name="Aogonek" unicode="&#x104;" horiz-adv-x="586" 
d="M356 224l-63 126l-63 -126h126zM407 123h-228l-47 -93q-8 -14 -22 -22t-30 -8q-22 0 -41 12.5t-19 36.5q0 7 1 10l251 495q5 14 21 14t21 -14l251 -495q1 -3 1 -10q0 -24 -19 -36.5t-41 -12.5q-6 0 -14 2q-11 -8 -15.5 -17.5t-4.5 -13.5q0 -9 4 -13.5t18 -4.5q7 0 13 1
t11 3q6 2 11 2q14 0 23.5 -9.5t9.5 -23.5q0 -16 -15 -26q-11 -8 -25.5 -13t-33.5 -5q-16 0 -31.5 2.5t-27.5 9.5t-19.5 19t-7.5 30q0 7 2 16.5t7.5 21.5t16 25t27.5 26z" />
    <glyph glyph-name="aogonek" unicode="&#x105;" horiz-adv-x="515" 
d="M238 95q19 0 36 8t30 22t20.5 33.5t7.5 42.5q0 46 -28 73.5t-66 27.5t-64 -28t-26 -73t26 -75.5t64 -30.5zM417 -15q-14 -6 -28.5 -15t-14.5 -18q0 -7 4 -8.5t8 -1.5q2 0 8 2q2 1 6 2t7 1q14 0 23 -7.5t9 -21.5q0 -19 -15 -29q-11 -7 -24.5 -11t-32.5 -4q-32 0 -50 19
t-18 37q0 3 1.5 13.5t7.5 23t18.5 25t35.5 21.5l-6 44q-8 -16 -24 -28t-35.5 -19.5t-40 -11t-37.5 -3.5q-40 0 -73.5 16.5t-58 45t-38.5 66t-14 79.5t14 79t39.5 64.5t60.5 43.5t76 16q7 0 21.5 -1.5t32.5 -8t38.5 -19t38.5 -33.5l2 13q0 18 12.5 31t30.5 13t31 -13t13 -31
v-328q0 -14 -8 -26t-20 -17z" />
    <glyph glyph-name="Cacute" unicode="&#x106;" horiz-adv-x="583" 
d="M498 526q11 -7 19.5 -20t8.5 -27q0 -22 -16 -37.5t-37 -15.5q-5 0 -10 1t-10 3q-25 18 -55.5 29t-63.5 11q-39 0 -71.5 -15t-55.5 -40.5t-36 -59.5t-13 -73t13 -73t36 -59.5t55.5 -40t71.5 -14.5t73 14.5t60 38.5q13 10 31 10q21 0 35.5 -14.5t14.5 -35.5q0 -14 -7 -25
t-18 -18q-38 -32 -86.5 -51t-101.5 -19q-60 0 -113 23t-92 62t-62 92t-23 113t23 113t62 92t92 62t113 23q45 0 86.5 -13t76.5 -36zM353 656q-9 -11 -18 -18.5t-22 -7.5q-14 0 -27 11t-13 28q0 6 3 12l35 70q8 16 19 24.5t34 8.5q18 0 29 -12.5t11 -31.5q0 -3 -1 -7t-3 -7z
" />
    <glyph glyph-name="cacute" unicode="&#x107;" horiz-adv-x="422" 
d="M307 292q-15 6 -33 7t-31 1q-39 0 -67 -26t-28 -73q0 -23 7.5 -42.5t20.5 -33.5t30 -22t37 -8q14 0 32.5 1.5t36.5 12.5q13 10 30 10q21 0 35.5 -14.5t14.5 -35.5q0 -14 -7 -25t-18 -18q-26 -19 -58.5 -25t-64.5 -6q-43 0 -81 16.5t-66.5 45t-45 66t-16.5 79.5t16.5 79
t45 64.5t66.5 43.5t81 16q28 0 56 -5.5t52 -16.5q11 -7 18.5 -18.5t7.5 -25.5q0 -22 -15 -36.5t-36 -14.5q-5 0 -10 1t-10 3zM269 496q-9 -11 -18 -18.5t-22 -7.5q-14 0 -27 11t-13 28q0 6 3 12l35 70q8 16 19 24.5t34 8.5q18 0 29 -12.5t11 -31.5q0 -3 -1 -7t-3 -7z" />
    <glyph glyph-name="Ccircumflex" unicode="&#x108;" horiz-adv-x="583" 
d="M498 526q-35 23 -76.5 36t-86.5 13q-60 0 -113 -23t-92 -62t-62 -92t-23 -113t23 -113t62 -92t92 -62t113 -23q53 0 101.5 19t86.5 51q11 7 18 18t7 25q0 21 -14.5 35.5t-35.5 14.5q-18 0 -31 -10q-26 -24 -60 -38.5t-73 -14.5t-71.5 14.5t-55.5 40t-36 59.5t-13 73
t13 73t36 59.5t55.5 40.5t71.5 15q33 0 63.5 -11t55.5 -29q5 -2 10 -3t10 -1q21 0 37 15.5t16 37.5q0 14 -8.5 27t-19.5 20zM343 774q5 0 11 -3t8 -5l86 -64q15 -12 15 -32q0 -17 -11.5 -28.5t-28.5 -11.5q-16 0 -28 10l-62 51l-62 -51q-12 -10 -28 -10q-17 0 -28.5 11.5
t-11.5 28.5q0 20 15 32l86 64q2 2 8 5t11 3h20z" />
    <glyph glyph-name="ccircumflex" unicode="&#x109;" horiz-adv-x="422" 
d="M307 292q5 -2 10 -3t10 -1q21 0 36 14.5t15 36.5q0 14 -7.5 25.5t-18.5 18.5q-24 11 -52 16.5t-56 5.5q-43 0 -81 -16t-66.5 -43.5t-45 -64.5t-16.5 -79t16.5 -79.5t45 -66t66.5 -45t81 -16.5q32 0 64.5 6t58.5 25q11 7 18 18t7 25q0 21 -14.5 35.5t-35.5 14.5
q-17 0 -30 -10q-18 -11 -36.5 -12.5t-32.5 -1.5q-20 0 -37 8t-30 22t-20.5 33.5t-7.5 42.5q0 47 28 73t67 26q13 0 31 -1t33 -7zM239 614q5 0 11 -3t8 -5l86 -64q15 -12 15 -32q0 -17 -11.5 -28.5t-28.5 -11.5q-16 0 -28 10l-62 51l-62 -51q-12 -10 -28 -10
q-17 0 -28.5 11.5t-11.5 28.5q0 20 15 32l86 64q2 2 8 5t11 3h20z" />
    <glyph glyph-name="Cdotaccent" unicode="&#x10a;" horiz-adv-x="583" 
d="M268 699q0 26 17 43t43 17t43 -17t17 -43t-17 -43t-43 -17t-43 17t-17 43zM498 526q11 -7 19.5 -20t8.5 -27q0 -22 -16 -37.5t-37 -15.5q-5 0 -10 1t-10 3q-25 18 -55.5 29t-63.5 11q-39 0 -71.5 -15t-55.5 -40.5t-36 -59.5t-13 -73t13 -73t36 -59.5t55.5 -40t71.5 -14.5
t73 14.5t60 38.5q13 10 31 10q21 0 35.5 -14.5t14.5 -35.5q0 -14 -7 -25t-18 -18q-38 -32 -86.5 -51t-101.5 -19q-60 0 -113 23t-92 62t-62 92t-23 113t23 113t62 92t92 62t113 23q45 0 86.5 -13t76.5 -36z" />
    <glyph glyph-name="cdotaccent" unicode="&#x10b;" horiz-adv-x="422" 
d="M172 536q0 26 17 43t43 17t43 -17t17 -43t-17 -43t-43 -17t-43 17t-17 43zM307 292q-15 6 -33 7t-31 1q-39 0 -67 -26t-28 -73q0 -23 7.5 -42.5t20.5 -33.5t30 -22t37 -8q14 0 32.5 1.5t36.5 12.5q13 10 30 10q21 0 35.5 -14.5t14.5 -35.5q0 -14 -7 -25t-18 -18
q-26 -19 -58.5 -25t-64.5 -6q-43 0 -81 16.5t-66.5 45t-45 66t-16.5 79.5t16.5 79t45 64.5t66.5 43.5t81 16q28 0 56 -5.5t52 -16.5q11 -7 18.5 -18.5t7.5 -25.5q0 -22 -15 -36.5t-36 -14.5q-5 0 -10 1t-10 3z" />
    <glyph glyph-name="Ccaron" unicode="&#x10c;" horiz-adv-x="583" 
d="M498 526q-35 23 -76.5 36t-86.5 13q-60 0 -113 -23t-92 -62t-62 -92t-23 -113t23 -113t62 -92t92 -62t113 -23q53 0 101.5 19t86.5 51q11 7 18 18t7 25q0 21 -14.5 35.5t-35.5 14.5q-18 0 -31 -10q-26 -24 -60 -38.5t-73 -14.5t-71.5 14.5t-55.5 40t-36 59.5t-13 73
t13 73t36 59.5t55.5 40.5t71.5 15q33 0 63.5 -11t55.5 -29q5 -2 10 -3t10 -1q21 0 37 15.5t16 37.5q0 14 -8.5 27t-19.5 20zM295 630q-5 0 -11 3t-8 5l-86 64q-15 12 -15 32q0 17 11.5 28.5t28.5 11.5q16 0 28 -10l62 -51l62 51q12 10 28 10q17 0 28.5 -11.5t11.5 -28.5
q0 -20 -15 -32l-86 -64q-2 -2 -8 -5t-11 -3h-20z" />
    <glyph glyph-name="ccaron" unicode="&#x10d;" horiz-adv-x="422" 
d="M307 292q5 -2 10 -3t10 -1q21 0 36 14.5t15 36.5q0 14 -7.5 25.5t-18.5 18.5q-24 11 -52 16.5t-56 5.5q-43 0 -81 -16t-66.5 -43.5t-45 -64.5t-16.5 -79t16.5 -79.5t45 -66t66.5 -45t81 -16.5q32 0 64.5 6t58.5 25q11 7 18 18t7 25q0 21 -14.5 35.5t-35.5 14.5
q-17 0 -30 -10q-18 -11 -36.5 -12.5t-32.5 -1.5q-20 0 -37 8t-30 22t-20.5 33.5t-7.5 42.5q0 47 28 73t67 26q13 0 31 -1t33 -7zM217 465q-5 0 -11 3t-8 5l-86 64q-15 12 -15 32q0 17 11.5 28.5t28.5 11.5q16 0 28 -10l62 -51l62 51q12 10 28 10q17 0 28.5 -11.5t11.5 -28.5
q0 -20 -15 -32l-86 -64q-2 -2 -8 -5t-11 -3h-20z" />
    <glyph glyph-name="Dcaron" unicode="&#x10e;" horiz-adv-x="578" 
d="M275 0q60 0 110 21.5t86.5 59.5t56.5 89.5t20 111.5t-20 112t-56.5 91t-86.5 61t-110 22h-149q-23 0 -39.5 -17t-16.5 -40v-454q0 -23 16.5 -40t39.5 -17h149zM257 101h-74v363h74q39 0 71.5 -14.5t56.5 -39t37 -58.5t13 -73t-13 -71.5t-37 -56.5t-56.5 -37t-71.5 -13z
M262 630q-5 0 -11 3t-8 5l-86 64q-15 12 -15 32q0 17 11.5 28.5t28.5 11.5q16 0 28 -10l62 -51l62 51q12 10 28 10q17 0 28.5 -11.5t11.5 -28.5q0 -20 -15 -32l-86 -64q-2 -2 -8 -5t-11 -3h-20z" />
    <glyph glyph-name="dcaron" unicode="&#x10f;" horiz-adv-x="632" 
d="M238 95q19 0 36 8t30 22t20.5 33.5t7.5 42.5q0 46 -28 73.5t-66 27.5t-64 -28t-26 -73t26 -75.5t64 -30.5zM445 44q0 -18 -13 -31t-31 -13t-30.5 13t-12.5 31l-2 13q-8 -16 -24 -28t-35.5 -19.5t-40 -11t-37.5 -3.5q-40 0 -73.5 16.5t-58 45t-38.5 66t-14 79.5t14 79
t39.5 64.5t60.5 43.5t76 16q7 0 19.5 -1t27.5 -5.5t30.5 -14t29.5 -25.5v152q0 23 17 40t40 17t39.5 -17t16.5 -40v-467zM579 398q-8 -17 -18 -20.5t-22 -3.5q-25 0 -25 24l20 59q-28 16 -28 51q0 26 17.5 43t43.5 17t43 -17t17 -43q0 -16 -7 -26z" />
    <glyph glyph-name="Dcroat" unicode="&#x110;" horiz-adv-x="607" 
d="M155 0q-23 0 -39.5 17t-16.5 40v169h-34q-20 0 -35 15.5t-15 35.5q0 21 15 36.5t35 15.5h34v182q0 23 16.5 40t39.5 17h149q60 0 110 -22t86.5 -61t56.5 -91t20 -112t-20 -111.5t-56.5 -89.5t-86.5 -59.5t-110 -21.5h-149zM212 226v-125h74q39 0 71.5 13t56.5 37t37 56.5
t13 71.5t-13 73t-37 58.5t-56.5 39t-71.5 14.5h-74v-135h103q20 0 35 -15.5t15 -36.5q0 -20 -15 -35.5t-35 -15.5h-103z" />
    <glyph glyph-name="dcroat" unicode="&#x111;" horiz-adv-x="529" 
d="M332 509q0 25 17 42t40 17t39.5 -17t16.5 -42h28q17 0 29 -12.5t12 -29.5q0 -15 -12 -28t-29 -13h-28v-382q0 -18 -13 -31t-31 -13t-30.5 13t-12.5 31l-2 13q-8 -16 -24 -28t-35.5 -19.5t-40 -11t-37.5 -3.5q-40 0 -73.5 16.5t-58 45t-38.5 66t-14 79.5t14 79t39.5 64.5
t60.5 43.5t76 16q7 0 19.5 -1t27.5 -5.5t30.5 -14t29.5 -25.5v67h-55q-17 0 -29 13t-12 28q0 17 12 29.5t29 12.5h55zM238 95q19 0 36 8t30 22t20.5 33.5t7.5 42.5q0 46 -28 73.5t-66 27.5t-64 -28t-26 -73t26 -75.5t64 -30.5z" />
    <glyph glyph-name="Emacron" unicode="&#x112;" horiz-adv-x="520" 
d="M126 0q-23 0 -39.5 17t-16.5 40v454q0 23 16.5 40t39.5 17h289q20 0 35 -15.5t15 -36.5q0 -20 -15 -35.5t-35 -15.5h-232v-139h177q20 0 34.5 -15t14.5 -35t-14.5 -35t-34.5 -15h-177v-123h232q20 0 35 -15.5t15 -36.5q0 -20 -15 -35.5t-35 -15.5h-289zM155 630
q-20 0 -35 15.5t-15 35.5q0 21 15 36.5t35 15.5h218q20 0 35 -15.5t15 -36.5q0 -20 -15 -35.5t-35 -15.5h-218z" />
    <glyph glyph-name="emacron" unicode="&#x113;" horiz-adv-x="457" 
d="M230 300q-12 0 -26 -3t-26 -10.5t-20.5 -19.5t-8.5 -30h163q0 18 -8.5 30t-21 19.5t-27 10.5t-25.5 3zM149 166q0 -25 10.5 -40t25.5 -23.5t31 -11t27 -2.5q16 0 36.5 3t37.5 11q5 4 13 6.5t16 2.5q19 0 32.5 -13.5t13.5 -32.5q0 -13 -7 -23.5t-18 -16.5
q-26 -19 -58.5 -25t-64.5 -6q-43 0 -81 11.5t-66.5 36.5t-45 63t-16.5 91q0 42 11 79.5t34.5 66t60 45.5t87.5 17q41 0 76 -13t61 -37.5t41 -61t16 -83.5q0 -18 -13 -31t-31 -13h-229zM117 470q-20 0 -35 15.5t-15 35.5q0 21 15 36.5t35 15.5h218q20 0 35 -15.5t15 -36.5
q0 -20 -15 -35.5t-35 -15.5h-218z" />
    <glyph glyph-name="Edotaccent" unicode="&#x116;" horiz-adv-x="520" 
d="M206 699q0 26 17 43t43 17t43 -17t17 -43t-17 -43t-43 -17t-43 17t-17 43zM126 0q-23 0 -39.5 17t-16.5 40v454q0 23 16.5 40t39.5 17h289q20 0 35 -15.5t15 -36.5q0 -20 -15 -35.5t-35 -15.5h-232v-139h177q20 0 34.5 -15t14.5 -35t-14.5 -35t-34.5 -15h-177v-123h232
q20 0 35 -15.5t15 -36.5q0 -20 -15 -35.5t-35 -15.5h-289z" />
    <glyph glyph-name="edotaccent" unicode="&#x117;" horiz-adv-x="457" 
d="M167 536q0 26 17 43t43 17t43 -17t17 -43t-17 -43t-43 -17t-43 17t-17 43zM230 300q-12 0 -26 -3t-26 -10.5t-20.5 -19.5t-8.5 -30h163q0 18 -8.5 30t-21 19.5t-27 10.5t-25.5 3zM149 166q0 -25 10.5 -40t25.5 -23.5t31 -11t27 -2.5q16 0 36.5 3t37.5 11q5 4 13 6.5
t16 2.5q19 0 32.5 -13.5t13.5 -32.5q0 -13 -7 -23.5t-18 -16.5q-26 -19 -58.5 -25t-64.5 -6q-43 0 -81 11.5t-66.5 36.5t-45 63t-16.5 91q0 42 11 79.5t34.5 66t60 45.5t87.5 17q41 0 76 -13t61 -37.5t41 -61t16 -83.5q0 -18 -13 -31t-31 -13h-229z" />
    <glyph glyph-name="Eogonek" unicode="&#x118;" horiz-adv-x="521" 
d="M373 0q-3 -7 -4.5 -14.5t-1.5 -11.5q0 -9 4 -13.5t18 -4.5q17 0 27 5q7 6 18 6q14 0 23 -9t9 -23q0 -8 -6 -17t-13 -13q-14 -11 -27.5 -15.5t-36.5 -4.5q-16 0 -31.5 2.5t-27.5 9.5t-19.5 19t-7.5 30q0 11 5.5 26.5t12.5 27.5h-189q-23 0 -39.5 17t-16.5 40v454
q0 23 16.5 40t39.5 17h289q20 0 35 -15.5t15 -36.5q0 -20 -15 -35.5t-35 -15.5h-232v-139h177q20 0 34.5 -15t14.5 -35t-14.5 -35t-34.5 -15h-177v-123h232q20 0 35 -15.5t15 -36.5q0 -20 -15 -35.5t-35 -15.5h-42z" />
    <glyph glyph-name="eogonek" unicode="&#x119;" horiz-adv-x="457" 
d="M343 -39q7 6 18 6q14 0 23 -9t9 -23q0 -8 -6 -17t-13 -13q-14 -11 -27.5 -15.5t-36.5 -4.5q-16 0 -31.5 2.5t-27.5 9.5t-19.5 19t-7.5 30q0 26 17 49q-42 0 -79.5 12t-65.5 37t-44.5 62.5t-16.5 90.5q0 42 11 79.5t34.5 66t60 45.5t87.5 17q41 0 76 -13t61 -37.5t41 -61
t16 -83.5q0 -18 -13 -31t-31 -13h-229q0 -25 10.5 -40t25.5 -23.5t31 -11t27 -2.5q16 0 36.5 3t37.5 11q5 4 13 6.5t16 2.5q19 0 32.5 -13.5t13.5 -32.5q0 -13 -7 -23.5t-18 -16.5q-14 -11 -31 -17t-34 -9q-4 -7 -6 -14t-2 -12q0 -9 4 -13.5t18 -4.5q17 0 27 5zM230 300
q-12 0 -26 -3t-26 -10.5t-20.5 -19.5t-8.5 -30h163q0 18 -8.5 30t-21 19.5t-27 10.5t-25.5 3z" />
    <glyph glyph-name="Ecaron" unicode="&#x11a;" horiz-adv-x="520" 
d="M415 0q20 0 35 15.5t15 35.5q0 21 -15 36.5t-35 15.5h-232v123h177q20 0 34.5 15t14.5 35t-14.5 35t-34.5 15h-177v139h232q20 0 35 15.5t15 35.5q0 21 -15 36.5t-35 15.5h-289q-23 0 -39.5 -17t-16.5 -40v-454q0 -23 16.5 -40t39.5 -17h289zM262 630q-5 0 -11 3t-8 5
l-86 64q-15 12 -15 32q0 17 11.5 28.5t28.5 11.5q16 0 28 -10l62 -51l62 51q12 10 28 10q17 0 28.5 -11.5t11.5 -28.5q0 -20 -15 -32l-86 -64q-2 -2 -8 -5t-11 -3h-20z" />
    <glyph glyph-name="ecaron" unicode="&#x11b;" horiz-adv-x="457" 
d="M421 178v9.5t0.5 5.5t0.5 5v8q0 48 -15 85t-41 62.5t-61.5 38.5t-76.5 13q-51 0 -87.5 -17t-60 -45.5t-34.5 -66t-11 -79.5q0 -53 16.5 -91t45 -63t66.5 -36.5t81 -11.5q40 0 80 10t66 43q3 4 3 11t-3 10l-30 50q-3 3 -7 3q-6 0 -15 -6q-16 -14 -44.5 -20.5t-50.5 -6.5
q-11 0 -27 2.5t-31 11t-25.5 23.5t-10.5 40h260q12 0 12 12zM230 300q11 0 25.5 -3t27 -10.5t21 -19.5t8.5 -30h-163q0 18 8.5 30t20.5 19.5t26 10.5t26 3zM217 465q-5 0 -11 3t-8 5l-86 64q-15 12 -15 32q0 17 11.5 28.5t28.5 11.5q16 0 28 -10l62 -51l62 51q12 10 28 10
q17 0 28.5 -11.5t11.5 -28.5q0 -20 -15 -32l-86 -64q-2 -2 -8 -5t-11 -3h-20z" />
    <glyph glyph-name="Gcircumflex" unicode="&#x11c;" horiz-adv-x="633" 
d="M568 256q0 21 -15 36.5t-35 15.5h-146q-20 0 -35 -15.5t-15 -36.5q0 -20 15 -35.5t35 -15.5h83v-68q-51 -42 -121 -42q-39 0 -71.5 14.5t-55.5 40t-36 59.5t-13 73t13 73t36 59.5t55.5 40.5t71.5 15q33 0 64 -11t56 -29q5 -2 10 -3t10 -1q21 0 37 15.5t16 37.5
q0 14 -8.5 27t-19.5 20q-35 23 -76.5 36t-86.5 13q-60 0 -113 -23t-92.5 -62t-62.5 -92t-23 -113t23 -113t62 -92t92 -62t113 -23q41 0 78.5 10.5t70.5 30.5l11 -13q7 -8 15 -15.5t19 -7.5q16 0 27.5 11.5t11.5 27.5v217zM319 774q5 0 11 -3t8 -5l86 -64q15 -12 15 -32
q0 -17 -11.5 -28.5t-28.5 -11.5q-16 0 -28 10l-62 51l-62 -51q-12 -10 -28 -10q-17 0 -28.5 11.5t-11.5 28.5q0 20 15 32l86 64q2 2 8 5t11 3h20z" />
    <glyph glyph-name="gcircumflex" unicode="&#x11d;" horiz-adv-x="515" 
d="M238 95q-38 0 -64 30.5t-26 75.5t26 73t64 28t66 -27.5t28 -73.5q0 -23 -7.5 -42.5t-20.5 -33.5t-30 -22t-36 -8zM350 355q-35 33 -65.5 41.5t-59.5 8.5q-41 0 -76 -16t-60.5 -43.5t-39.5 -64.5t-14 -79t14 -79.5t38.5 -66t58 -45t73.5 -16.5q12 0 27 1t30.5 5.5t30 12.5
t26.5 23v-50q-1 -19 -5 -34.5t-14 -27t-26.5 -17.5t-43.5 -6q-41 0 -66.5 9.5t-40.5 9.5q-17 0 -29.5 -16.5t-12.5 -33.5q0 -13 6.5 -24.5t18.5 -18.5q27 -15 59 -20.5t75 -5.5q34 0 68 11.5t61.5 35.5t44.5 62t17 92v353q0 18 -13 31t-31 13t-32 -11t-19 -34zM256 614
q5 0 11 -3t8 -5l86 -64q15 -12 15 -32q0 -17 -11.5 -28.5t-28.5 -11.5q-16 0 -28 10l-62 51l-62 -51q-12 -10 -28 -10q-17 0 -28.5 11.5t-11.5 28.5q0 20 15 32l86 64q2 2 8 5t11 3h20z" />
    <glyph glyph-name="Gbreve" unicode="&#x11e;" horiz-adv-x="633" 
d="M568 39q0 -16 -11.5 -27.5t-27.5 -11.5q-11 0 -19 7.5t-15 15.5l-11 13q-33 -20 -70.5 -30.5t-78.5 -10.5q-60 0 -113 23t-92 62t-62 92t-23 113t23 113t62.5 92t92.5 62t113 23q45 0 86.5 -13t76.5 -36q11 -7 19.5 -20t8.5 -27q0 -22 -16 -37.5t-37 -15.5q-5 0 -10 1
t-10 3q-25 18 -56 29t-64 11q-39 0 -71.5 -15t-55.5 -40.5t-36 -59.5t-13 -73t13 -73t36 -59.5t55.5 -40t71.5 -14.5q70 0 121 42v68h-83q-20 0 -35 15.5t-15 35.5q0 21 15 36.5t35 15.5h146q20 0 35 -15.5t15 -36.5v-217zM308 630q-60 0 -102.5 23.5t-61.5 62.5q-4 9 -4 21
q0 23 16.5 40t39.5 17q17 0 27.5 -8.5t25.5 -26.5q17 -21 34 -25t26 -4t26 4t34 25q15 18 25.5 26.5t27.5 8.5q23 0 39.5 -17t16.5 -40q0 -12 -4 -21q-19 -39 -61.5 -62.5t-104.5 -23.5z" />
    <glyph glyph-name="gbreve" unicode="&#x11f;" horiz-adv-x="515" 
d="M238 95q19 0 36 8t30 22t20.5 33.5t7.5 42.5q0 46 -28 73.5t-66 27.5t-64 -28t-26 -73t26 -75.5t64 -30.5zM350 355q5 23 19 34t32 11t31 -13t13 -31v-353q0 -54 -17 -92t-44.5 -62t-61.5 -35.5t-68 -11.5q-43 0 -75 5.5t-59 20.5q-12 7 -18.5 18.5t-6.5 24.5
q0 17 12.5 33.5t29.5 16.5q15 0 40.5 -9.5t66.5 -9.5q27 0 43.5 6t26.5 17.5t14 27t5 34.5v50q-12 -15 -26.5 -23t-30 -12.5t-30.5 -5.5t-27 -1q-40 0 -73.5 16.5t-58 45t-38.5 66t-14 79.5t14 79t39.5 64.5t60.5 43.5t76 16q29 0 59.5 -8.5t65.5 -41.5zM240 466
q-60 0 -102.5 23.5t-61.5 62.5q-4 9 -4 21q0 23 16.5 40t39.5 17q17 0 27.5 -8.5t25.5 -26.5q17 -21 34 -25t26 -4t26 4t34 25q15 18 25.5 26.5t27.5 8.5q23 0 39.5 -17t16.5 -40q0 -12 -4 -21q-19 -39 -61.5 -62.5t-104.5 -23.5z" />
    <glyph glyph-name="Gdotaccent" unicode="&#x120;" horiz-adv-x="633" 
d="M260 699q0 26 17 43t43 17t43 -17t17 -43t-17 -43t-43 -17t-43 17t-17 43zM568 39q0 -16 -11.5 -27.5t-27.5 -11.5q-11 0 -19 7.5t-15 15.5l-11 13q-33 -20 -70.5 -30.5t-78.5 -10.5q-60 0 -113 23t-92 62t-62 92t-23 113t23 113t62.5 92t92.5 62t113 23q45 0 86.5 -13
t76.5 -36q11 -7 19.5 -20t8.5 -27q0 -22 -16 -37.5t-37 -15.5q-5 0 -10 1t-10 3q-25 18 -56 29t-64 11q-39 0 -71.5 -15t-55.5 -40.5t-36 -59.5t-13 -73t13 -73t36 -59.5t55.5 -40t71.5 -14.5q70 0 121 42v68h-83q-20 0 -35 15.5t-15 35.5q0 21 15 36.5t35 15.5h146
q20 0 35 -15.5t15 -36.5v-217z" />
    <glyph glyph-name="gdotaccent" unicode="&#x121;" horiz-adv-x="515" 
d="M174 536q0 26 17 43t43 17t43 -17t17 -43t-17 -43t-43 -17t-43 17t-17 43zM238 95q19 0 36 8t30 22t20.5 33.5t7.5 42.5q0 46 -28 73.5t-66 27.5t-64 -28t-26 -73t26 -75.5t64 -30.5zM350 355q5 23 19 34t32 11t31 -13t13 -31v-353q0 -54 -17 -92t-44.5 -62t-61.5 -35.5
t-68 -11.5q-43 0 -75 5.5t-59 20.5q-12 7 -18.5 18.5t-6.5 24.5q0 17 12.5 33.5t29.5 16.5q15 0 40.5 -9.5t66.5 -9.5q27 0 43.5 6t26.5 17.5t14 27t5 34.5v50q-12 -15 -26.5 -23t-30 -12.5t-30.5 -5.5t-27 -1q-40 0 -73.5 16.5t-58 45t-38.5 66t-14 79.5t14 79t39.5 64.5
t60.5 43.5t76 16q29 0 59.5 -8.5t65.5 -41.5z" />
    <glyph glyph-name="uni0122" unicode="&#x122;" horiz-adv-x="633" 
d="M568 39q0 -16 -11.5 -27.5t-27.5 -11.5q-11 0 -19 7.5t-15 15.5l-11 13q-33 -20 -70.5 -30.5t-78.5 -10.5q-60 0 -113 23t-92 62t-62 92t-23 113t23 113t62.5 92t92.5 62t113 23q45 0 86.5 -13t76.5 -36q11 -7 19.5 -20t8.5 -27q0 -22 -16 -37.5t-37 -15.5q-5 0 -10 1
t-10 3q-25 18 -56 29t-64 11q-39 0 -71.5 -15t-55.5 -40.5t-36 -59.5t-13 -73t13 -73t36 -59.5t55.5 -40t71.5 -14.5q70 0 121 42v68h-83q-20 0 -35 15.5t-15 35.5q0 21 15 36.5t35 15.5h146q20 0 35 -15.5t15 -36.5v-217zM332 -218q-8 -17 -18 -20.5t-22 -3.5q-25 0 -25 24
l20 59q-28 16 -28 51q0 26 17.5 43t43.5 17t43 -17t17 -43q0 -16 -7 -26z" />
    <glyph glyph-name="uni0123" unicode="&#x123;" horiz-adv-x="515" 
d="M238 95q19 0 36 8t30 22t20.5 33.5t7.5 42.5q0 46 -28 73.5t-66 27.5t-64 -28t-26 -73t26 -75.5t64 -30.5zM350 355q5 23 19 34t32 11t31 -13t13 -31v-353q0 -54 -17 -92t-44.5 -62t-61.5 -35.5t-68 -11.5q-43 0 -75 5.5t-59 20.5q-12 7 -18.5 18.5t-6.5 24.5
q0 17 12.5 33.5t29.5 16.5q15 0 40.5 -9.5t66.5 -9.5q27 0 43.5 6t26.5 17.5t14 27t5 34.5v50q-12 -15 -26.5 -23t-30 -12.5t-30.5 -5.5t-27 -1q-40 0 -73.5 16.5t-58 45t-38.5 66t-14 79.5t14 79t39.5 64.5t60.5 43.5t76 16q29 0 59.5 -8.5t65.5 -41.5zM224 646
q8 17 18 20.5t22 3.5q25 0 25 -24l-20 -59q28 -16 28 -51q0 -26 -17.5 -43t-43.5 -17t-43 17t-17 43q0 16 7 26z" />
    <glyph glyph-name="Hcircumflex" unicode="&#x124;" horiz-adv-x="588" 
d="M70 57q0 -23 16.5 -40t39.5 -17t40 17t17 40v169h222v-169q0 -23 16.5 -40t39.5 -17t40 17t17 40v454q0 23 -17 40t-40 17t-39.5 -17t-16.5 -40v-185h-222v185q0 23 -17 40t-40 17t-39.5 -17t-16.5 -40v-454zM302 774q5 0 11 -3t8 -5l86 -64q15 -12 15 -32
q0 -17 -11.5 -28.5t-28.5 -11.5q-16 0 -28 10l-62 51l-62 -51q-12 -10 -28 -10q-17 0 -28.5 11.5t-11.5 28.5q0 20 15 32l86 64q2 2 8 5t11 3h20z" />
    <glyph glyph-name="hcircumflex" unicode="&#x125;" 
d="M70 57q0 -23 16.5 -40t39.5 -17t40 17t17 40v155q0 37 16.5 63.5t54.5 26.5q27 0 42 -7t23 -19.5t10 -29t2 -34.5v-155q0 -23 16.5 -40t39.5 -17t40 17t17 40v169q0 36 -9.5 68t-29.5 57t-51 39.5t-73 14.5q-24 0 -46 -4t-52 -26v136q0 23 -17 40t-40 17t-39.5 -17
t-16.5 -40v-454zM284 774q5 0 11 -3t8 -5l86 -64q15 -12 15 -32q0 -17 -11.5 -28.5t-28.5 -11.5q-16 0 -28 10l-62 51l-62 -51q-12 -10 -28 -10q-17 0 -28.5 11.5t-11.5 28.5q0 20 15 32l86 64q2 2 8 5t11 3h20z" />
    <glyph glyph-name="Hbar" unicode="&#x126;" horiz-adv-x="616" 
d="M533 399v-342q0 -23 -17 -40t-40 -17t-39.5 17t-16.5 40v169h-222v-169q0 -23 -17 -40t-40 -17t-39.5 17t-16.5 40v342h-10q-20 0 -35 15.5t-15 35.5q0 21 15 36.5t35 15.5h10v9q0 23 16.5 40t39.5 17t40 -17t17 -40v-9h222v9q0 23 16.5 40t39.5 17t40 -17t17 -40v-9h8
q20 0 35 -15.5t15 -36.5q0 -20 -15 -35.5t-35 -15.5h-8zM420 399h-223v-73h223v73z" />
    <glyph glyph-name="hbar" unicode="&#x127;" horiz-adv-x="513" 
d="M56 433q-17 0 -29 13t-12 28q0 17 12 29.5t29 12.5h28q0 25 16.5 42t39.5 17t40 -17t17 -42h55q17 0 29 -12.5t12 -29.5q0 -15 -12 -28t-29 -13h-55v-58q30 22 52 26t46 4q42 0 73 -14.5t51 -39.5t29.5 -57t9.5 -68v-169q0 -23 -17 -40t-40 -17t-39.5 17t-16.5 40v155
q0 18 -2 34.5t-10 29t-23 19.5t-42 7q-38 0 -54.5 -26.5t-16.5 -63.5v-155q0 -23 -17 -40t-40 -17t-39.5 17t-16.5 40v376h-28z" />
    <glyph glyph-name="Itilde" unicode="&#x128;" horiz-adv-x="254" 
d="M71 511q0 23 16.5 40t39.5 17t40 -17t17 -40v-454q0 -23 -17 -40t-40 -17t-39.5 17t-16.5 40v454zM235 654q-14 -7 -28.5 -11t-29.5 -4q-16 0 -30 5.5t-27 11.5t-26 11.5t-27 5.5h-12t-10 -2q-8 -2 -12 -2q-15 0 -28.5 10.5t-18.5 24.5q-2 8 -2 13q0 16 10 29.5t24 18.5
q24 11 49 11t38.5 -5.5t24 -11.5t20.5 -11.5t28 -5.5q17 0 28 4q3 1 6.5 2t6.5 1q15 0 28.5 -10.5t18.5 -24.5q2 -8 2 -13q0 -16 -9.5 -29t-23.5 -18z" />
    <glyph glyph-name="itilde" unicode="&#x129;" horiz-adv-x="254" 
d="M71 343q0 23 16.5 40t39.5 17t40 -17t17 -40v-286q0 -23 -17 -40t-40 -17t-39.5 17t-16.5 40v286zM236 491q-14 -7 -28 -11t-29 -4q-16 0 -30 5.5t-27 11.5t-26 11.5t-27 5.5q-5 0 -11.5 -0.5t-11.5 -1.5q-3 -1 -5.5 -1.5t-5.5 -0.5q-15 0 -28.5 10.5t-18.5 24.5
q-2 8 -2 13q0 16 10 29t24 18q11 5 23 8.5t26 3.5q25 0 38.5 -5.5t24 -11.5t20.5 -11.5t28 -5.5q17 0 29 4l6 2t6 1q15 0 28.5 -10.5t18.5 -24.5q2 -8 2 -13q0 -16 -10 -29t-24 -18z" />
    <glyph glyph-name="Imacron" unicode="&#x12a;" horiz-adv-x="254" 
d="M71 511q0 23 16.5 40t39.5 17t40 -17t17 -40v-454q0 -23 -17 -40t-40 -17t-39.5 17t-16.5 40v454zM16 630q-20 0 -35 15.5t-15 35.5q0 21 15 36.5t35 15.5h222q20 0 35 -15.5t15 -36.5q0 -20 -15 -35.5t-35 -15.5h-222z" />
    <glyph glyph-name="imacron" unicode="&#x12b;" horiz-adv-x="254" 
d="M16 470q-20 0 -35 15.5t-15 35.5q0 21 15 36.5t35 15.5h222q20 0 35 -15.5t15 -36.5q0 -20 -15 -35.5t-35 -15.5h-222zM71 343q0 23 16.5 40t39.5 17t40 -17t17 -40v-286q0 -23 -17 -40t-40 -17t-39.5 17t-16.5 40v286z" />
    <glyph glyph-name="Iogonek" unicode="&#x12e;" horiz-adv-x="254" 
d="M181 -39q7 6 18 6q14 0 23 -9t9 -23q0 -8 -6 -17t-13 -13q-14 -11 -27.5 -15.5t-36.5 -4.5q-16 0 -31.5 2.5t-27.5 9.5t-19.5 19t-7.5 30q0 14 7.5 34t20.5 34q-19 16 -19 43v454q0 23 16.5 40t39.5 17t40 -17t17 -40v-454q0 -18 -10 -32.5t-26 -20.5q-6 -8 -11 -16.5
t-5 -13.5q0 -9 4 -13.5t18 -4.5q17 0 27 5z" />
    <glyph glyph-name="iogonek" unicode="&#x12f;" horiz-adv-x="254" 
d="M62 508q0 28 19 47.5t46 19.5q28 0 47.5 -19.5t19.5 -47.5q0 -27 -19.5 -46t-47.5 -19q-27 0 -46 19t-19 46zM180 -39q7 6 18 6q14 0 23 -9t9 -23q0 -8 -6 -17t-13 -13q-14 -11 -27.5 -15.5t-36.5 -4.5q-16 0 -31.5 2.5t-27.5 9.5t-19.5 19t-7.5 30q0 14 7.5 34t20.5 34
q-19 16 -19 43v286q0 23 16.5 40t39.5 17t40 -17t17 -40v-286q0 -18 -10 -32.5t-26 -20.5q-6 -8 -11 -16.5t-5 -13.5q0 -9 4 -13.5t18 -4.5q17 0 27 5z" />
    <glyph glyph-name="Idotaccent" unicode="&#x130;" horiz-adv-x="254" 
d="M71 511q0 23 16.5 40t39.5 17t40 -17t17 -40v-454q0 -23 -17 -40t-40 -17t-39.5 17t-16.5 40v454zM62 695q0 28 19 47.5t46 19.5q28 0 47.5 -19.5t19.5 -47.5q0 -27 -19.5 -46t-47.5 -19q-27 0 -46 19t-19 46z" />
    <glyph glyph-name="dotlessi" unicode="&#x131;" horiz-adv-x="253" 
d="M70 343q0 23 16.5 40t39.5 17t40 -17t17 -40v-286q0 -23 -17 -40t-40 -17t-39.5 17t-16.5 40v286z" />
    <glyph glyph-name="Jcircumflex" unicode="&#x134;" horiz-adv-x="452" 
d="M279 269q0 -53 -4.5 -86.5t-16 -53t-31.5 -27t-50 -7.5q-29 0 -48.5 3.5t-39.5 15.5q-11 6 -23 6q-13 0 -25 -6.5t-19 -18.5q-6 -12 -6 -25q0 -28 23 -42q55 -33 137 -33q60 0 101 13t66.5 43t37 80t11.5 125v255q0 23 -17 40t-40 17t-39.5 -17t-16.5 -40v-242zM270 774
q5 0 11 -3t8 -5l86 -64q15 -12 15 -32q0 -17 -11.5 -28.5t-28.5 -11.5q-16 0 -28 10l-62 51l-62 -51q-12 -10 -28 -10q-17 0 -28.5 11.5t-11.5 28.5q0 20 15 32l86 64q2 2 8 5t11 3h20z" />
    <glyph glyph-name="jcircumflex" unicode="&#x135;" horiz-adv-x="253" 
d="M7 -98q-21 0 -38 -12.5t-17 -33.5q0 -17 11.5 -30t28.5 -17q24 -7 55 -7q32 0 57.5 7.5t43 27.5t26.5 55t9 91v360q0 23 -17 40t-40 17t-39.5 -17t-16.5 -40v-349q0 -29 -1.5 -46.5t-5 -28t-10 -14t-15.5 -3.5h-31zM136 594q5 0 11 -3t8 -5l86 -64q15 -12 15 -32
q0 -17 -11.5 -28.5t-28.5 -11.5q-16 0 -28 10l-62 51l-62 -51q-12 -10 -28 -10q-17 0 -28.5 11.5t-11.5 28.5q0 20 15 32l86 64q2 2 8 5t11 3h20z" />
    <glyph glyph-name="uni0136" unicode="&#x136;" horiz-adv-x="587" 
d="M378 353l184 -279q5 -8 5 -17q0 -24 -19.5 -40.5t-40.5 -16.5q-20 0 -33.5 12t-24.5 29l-155 232l-111 -109v-107q0 -23 -17 -40t-40 -17t-39.5 17t-16.5 40v454q0 23 16.5 40t39.5 17t40 -17t17 -40v-191l227 221q15 15 25.5 21t30.5 6q10 0 21.5 -4.5t20.5 -12t15 -18
t6 -22.5q0 -8 -5 -18zM363 -134q7 10 7 26q0 26 -17 43t-43 17t-43.5 -17t-17.5 -43q0 -35 28 -51l-20 -59q0 -24 25 -24q12 0 22 3.5t18 20.5z" />
    <glyph glyph-name="uni0137" unicode="&#x137;" horiz-adv-x="439" 
d="M411 83q8 -13 8 -27q0 -22 -17 -39t-39 -17q-15 0 -27.5 9.5t-22.5 21.5l-130 149v-123q0 -23 -17 -40t-40 -17t-39.5 17t-16.5 40v454q0 23 16.5 40t39.5 17t40 -17t17 -40v-283l130 142q10 11 22 20.5t27 9.5q21 0 37.5 -16.5t16.5 -38.5q0 -15 -7 -26l-103 -111z
M237 -218q-8 -17 -18 -20.5t-22 -3.5q-25 0 -25 24l20 59q-28 16 -28 51q0 26 17.5 43t43.5 17t43 -17t17 -43q0 -16 -7 -26z" />
    <glyph glyph-name="kgreenlandic" unicode="&#x138;" horiz-adv-x="439" 
d="M411 83q8 -13 8 -27q0 -22 -17 -39t-39 -17q-15 0 -27.5 9.5t-22.5 21.5l-130 149v-123q0 -23 -17 -40t-40 -17t-39.5 17t-16.5 40v286q0 23 16.5 40t39.5 17t40 -17t17 -40v-115l130 142q10 11 22 20.5t27 9.5q21 0 37.5 -16.5t16.5 -38.5q0 -15 -7 -26l-103 -111
l105 -125v0z" />
    <glyph glyph-name="Lacute" unicode="&#x139;" horiz-adv-x="509" 
d="M126 0q-23 0 -39.5 17t-16.5 40v454q0 23 16.5 40t39.5 17t40 -17t17 -40v-410h232q20 0 35 -15t15 -36q0 -20 -15 -35t-35 -15h-289zM175 656q-9 -11 -18 -18.5t-22 -7.5q-14 0 -27 11t-13 28q0 6 3 12l35 70q8 16 19 24.5t34 8.5q18 0 29 -12.5t11 -31.5q0 -3 -1 -7
t-3 -7z" />
    <glyph glyph-name="lacute" unicode="&#x13a;" horiz-adv-x="254" 
d="M71 511q0 23 16.5 40t39.5 17t40 -17t17 -40v-454q0 -23 -17 -40t-40 -17t-39.5 17t-16.5 40v454zM180 656q-9 -11 -18 -18.5t-22 -7.5q-14 0 -27 11t-13 28q0 6 3 12l35 70q8 16 19 24.5t34 8.5q18 0 29 -12.5t11 -31.5q0 -3 -1 -7t-3 -7z" />
    <glyph glyph-name="uni013B" unicode="&#x13b;" horiz-adv-x="509" 
d="M126 0q-23 0 -39.5 17t-16.5 40v454q0 23 16.5 40t39.5 17t40 -17t17 -40v-410h232q20 0 35 -15t15 -36q0 -20 -15 -35t-35 -15h-289zM281 -218q-8 -17 -18 -20.5t-22 -3.5q-25 0 -25 24l20 59q-28 16 -28 51q0 26 17.5 43t43.5 17t43 -17t17 -43q0 -16 -7 -26z" />
    <glyph glyph-name="uni013C" unicode="&#x13c;" horiz-adv-x="254" 
d="M71 511q0 23 16.5 40t39.5 17t40 -17t17 -40v-454q0 -23 -17 -40t-40 -17t-39.5 17t-16.5 40v454zM144 -218q-8 -17 -18 -20.5t-22 -3.5q-25 0 -25 24l20 59q-28 16 -28 51q0 26 17.5 43t43.5 17t43 -17t17 -43q0 -16 -7 -26z" />
    <glyph glyph-name="Lcaron" unicode="&#x13d;" horiz-adv-x="509" 
d="M126 0q-23 0 -39.5 17t-16.5 40v454q0 23 16.5 40t39.5 17t40 -17t17 -40v-410h232q20 0 35 -15t15 -36q0 -20 -15 -35t-35 -15h-289zM348 392q-7 -19 -27 -19q-12 0 -20.5 8.5t-8.5 20.5q0 6 1 9l15 46q-28 16 -28 51q0 26 17.5 43t43.5 17t43 -17t17 -43q0 -16 -7 -26z
" />
    <glyph glyph-name="lcaron" unicode="&#x13e;" horiz-adv-x="367" 
d="M70 511q0 23 16.5 40t39.5 17t40 -17t17 -40v-454q0 -23 -17 -40t-40 -17t-39.5 17t-16.5 40v454zM309 392q-7 -19 -27 -19q-12 0 -20.5 8.5t-8.5 20.5q0 6 1 9l15 46q-28 16 -28 51q0 26 17.5 43t43.5 17t43 -17t17 -43q0 -16 -7 -26z" />
    <glyph glyph-name="Lslash" unicode="&#x141;" horiz-adv-x="549" 
d="M110 244l-35 -8q-3 -1 -10 -1q-21 0 -35.5 14.5t-14.5 35.5q0 18 11 32t28 18l56 12v164q0 23 16.5 40t39.5 17t40 -17t17 -40v-138l54 13q3 1 10 1q21 0 35.5 -14.5t14.5 -35.5q0 -18 -11 -32t-28 -18l-75 -17v-169h232q20 0 35 -15t15 -36q0 -20 -15 -35t-35 -15h-289
q-23 0 -39.5 17t-16.5 40v187z" />
    <glyph glyph-name="lslash" unicode="&#x142;" horiz-adv-x="322" 
d="M100 248l-35 -8q-3 -1 -10 -1q-21 0 -35.5 14.5t-14.5 35.5q0 18 11 32t28 18l56 12v160q0 23 16.5 40t39.5 17t40 -17t17 -40v-135l44 10q3 1 10 1q21 0 35.5 -14.5t14.5 -35.5q0 -18 -11 -32t-28 -18l-65 -13v-217q0 -23 -17 -40t-40 -17t-39.5 17t-16.5 40v191z" />
    <glyph glyph-name="Nacute" unicode="&#x143;" horiz-adv-x="629" 
d="M70 511q0 23 16.5 40t39.5 17q8 0 18 -2.5t18 -9.5l284 -226v181q0 23 16.5 40t39.5 17t40 -17t17 -40v-454q0 -23 -17 -40t-40 -17t-39.5 17t-16.5 40v133l-263 203v-336q0 -23 -17 -40t-40 -17t-39.5 17t-16.5 40v454zM364 656q-9 -11 -18 -18.5t-22 -7.5q-14 0 -27 11
t-13 28q0 6 3 12l35 70q8 16 19 24.5t34 8.5q18 0 29 -12.5t11 -31.5q0 -3 -1 -7t-3 -7z" />
    <glyph glyph-name="nacute" unicode="&#x144;" 
d="M183 57q0 -23 -17 -40t-40 -17t-39.5 17t-16.5 40v299q0 18 13 31t31 13t30.5 -13t12.5 -31q35 32 65 40.5t59 8.5q42 0 73 -14.5t51 -39.5t29.5 -57t9.5 -68v-169q0 -23 -17 -40t-40 -17t-39.5 17t-16.5 40v155q0 18 -2 34.5t-10 29t-23 19.5t-42 7q-38 0 -54.5 -26.5
t-16.5 -63.5v-155zM314 496q-9 -11 -18 -18.5t-22 -7.5q-14 0 -27 11t-13 28q0 6 3 12l35 70q8 16 19 24.5t34 8.5q18 0 29 -12.5t11 -31.5q0 -3 -1 -7t-3 -7z" />
    <glyph glyph-name="uni0145" unicode="&#x145;" horiz-adv-x="629" 
d="M70 511q0 23 16.5 40t39.5 17q8 0 18 -2.5t18 -9.5l284 -226v181q0 23 16.5 40t39.5 17t40 -17t17 -40v-454q0 -23 -17 -40t-40 -17t-39.5 17t-16.5 40v133l-263 203v-336q0 -23 -17 -40t-40 -17t-39.5 17t-16.5 40v454zM321 -218q-8 -17 -18 -20.5t-22 -3.5
q-25 0 -25 24l20 59q-28 16 -28 51q0 26 17.5 43t43.5 17t43 -17t17 -43q0 -16 -7 -26z" />
    <glyph glyph-name="uni0146" unicode="&#x146;" 
d="M183 57q0 -23 -17 -40t-40 -17t-39.5 17t-16.5 40v299q0 18 13 31t31 13t30.5 -13t12.5 -31q35 32 65 40.5t59 8.5q42 0 73 -14.5t51 -39.5t29.5 -57t9.5 -68v-169q0 -23 -17 -40t-40 -17t-39.5 17t-16.5 40v155q0 18 -2 34.5t-10 29t-23 19.5t-42 7q-38 0 -54.5 -26.5
t-16.5 -63.5v-155zM267 -218q-8 -17 -18 -20.5t-22 -3.5q-25 0 -25 24l20 59q-28 16 -28 51q0 26 17.5 43t43.5 17t43 -17t17 -43q0 -16 -7 -26z" />
    <glyph glyph-name="Ncaron" unicode="&#x147;" horiz-adv-x="629" 
d="M70 57q0 -23 16.5 -40t39.5 -17t40 17t17 40v336l263 -203v-133q0 -23 16.5 -40t39.5 -17t40 17t17 40v454q0 23 -17 40t-40 17t-39.5 -17t-16.5 -40v-181l-284 226q-8 7 -18 9.5t-18 2.5q-23 0 -39.5 -17t-16.5 -40v-454zM311 630q-5 0 -11 3t-8 5l-86 64q-15 12 -15 32
q0 17 11.5 28.5t28.5 11.5q16 0 28 -10l62 -51l62 51q12 10 28 10q17 0 28.5 -11.5t11.5 -28.5q0 -20 -15 -32l-86 -64q-2 -2 -8 -5t-11 -3h-20z" />
    <glyph glyph-name="ncaron" unicode="&#x148;" 
d="M183 212q0 37 16.5 63.5t54.5 26.5q27 0 42 -7t23 -19.5t10 -29t2 -34.5v-155q0 -23 16.5 -40t39.5 -17t40 17t17 40v169q0 36 -9.5 68t-29.5 57t-51 39.5t-73 14.5q-29 0 -59 -8.5t-65 -40.5q0 18 -12.5 31t-30.5 13t-31 -13t-13 -31v-299q0 -23 16.5 -40t39.5 -17
t40 17t17 40v155zM256 465q-5 0 -11 3t-8 5l-86 64q-15 12 -15 32q0 17 11.5 28.5t28.5 11.5q16 0 28 -10l62 -51l62 51q12 10 28 10q17 0 28.5 -11.5t11.5 -28.5q0 -20 -15 -32l-86 -64q-2 -2 -8 -5t-11 -3h-20z" />
    <glyph glyph-name="Eng" unicode="&#x14a;" horiz-adv-x="629" 
d="M559 -17q0 -56 -9 -91t-26.5 -55t-43 -27.5t-57.5 -7.5q-31 0 -55 7q-17 4 -28.5 17t-11.5 30q0 21 17 33.5t38 12.5h31q9 0 15.5 3.5t10 14t5 28t1.5 46.5v196l-263 203v-336q0 -23 -17 -40t-40 -17t-39.5 17t-16.5 40v454q0 23 16.5 40t39.5 17q8 0 18 -2.5t18 -9.5
l284 -226v181q0 23 16.5 40t39.5 17t40 -17t17 -40v-528z" />
    <glyph glyph-name="eng" unicode="&#x14b;" 
d="M444 -17q0 -56 -9 -91t-26.5 -55t-43 -27.5t-57.5 -7.5q-31 0 -55 7q-17 4 -28.5 17t-11.5 30q0 21 17 33.5t38 12.5h31q9 0 15.5 3.5t10 14t5 28t1.5 46.5v218q0 18 -2 34.5t-10 29t-23 19.5t-42 7q-38 0 -54.5 -26.5t-16.5 -63.5v-155q0 -23 -17 -40t-40 -17t-39.5 17
t-16.5 40v299q0 18 13 31t31 13t30.5 -13t12.5 -31q35 32 65 40.5t59 8.5q42 0 73 -14.5t51 -39.5t29.5 -57t9.5 -68v-243z" />
    <glyph glyph-name="Omacron" unicode="&#x14c;" horiz-adv-x="670" 
d="M335 575q60 0 113 -23t92 -62t62 -92t23 -113t-23 -113t-62 -92t-92 -62t-113 -23t-113 23t-92 62t-62 92t-23 113t23 113t62 92t92 62t113 23zM334 95q39 0 71.5 14.5t56.5 40t37 59.5t13 73t-13 73t-37 59.5t-56.5 40.5t-71.5 15t-71.5 -15t-55.5 -40.5t-36 -59.5
t-13 -73t13 -73t36 -59.5t55.5 -40t71.5 -14.5zM226 630q-20 0 -35 15.5t-15 35.5q0 21 15 36.5t35 15.5h218q20 0 35 -15.5t15 -36.5q0 -20 -15 -35.5t-35 -15.5h-218z" />
    <glyph glyph-name="omacron" unicode="&#x14d;" horiz-adv-x="480" 
d="M244 405q41 0 77.5 -16t64 -43.5t43.5 -64.5t16 -79t-16 -79.5t-43.5 -66t-64 -45t-77.5 -16.5q-43 0 -81 16.5t-66.5 45t-45 66t-16.5 79.5t16.5 79t45 64.5t66.5 43.5t81 16zM243 95q18 0 34 8t28.5 22t19.5 33.5t7 42.5q0 46 -26.5 72.5t-62.5 26.5q-39 0 -67 -26
t-28 -73q0 -23 7.5 -42.5t20.5 -33.5t30 -22t37 -8zM136 470q-20 0 -35 15.5t-15 35.5q0 21 15 36.5t35 15.5h218q20 0 35 -15.5t15 -36.5q0 -20 -15 -35.5t-35 -15.5h-218z" />
    <glyph glyph-name="Ohungarumlaut" unicode="&#x150;" horiz-adv-x="670" 
d="M335 575q60 0 113 -23t92 -62t62 -92t23 -113t-23 -113t-62 -92t-92 -62t-113 -23t-113 23t-92 62t-62 92t-23 113t23 113t62 92t92 62t113 23zM336 95q39 0 71.5 14.5t55.5 40t36 59.5t13 73t-13 73t-36 59.5t-55.5 40.5t-71.5 15t-71.5 -15t-56.5 -40.5t-37 -59.5
t-13 -73t13 -73t37 -59.5t56.5 -40t71.5 -14.5zM292 655q-8 -11 -17.5 -18t-31.5 -7q-26 0 -26 33q0 2 2 7.5t4 8.5l34 74q8 17 20 26t36 9q19 0 30 -12t11 -32q0 -4 -4 -14zM461 655q-8 -11 -17.5 -18t-31.5 -7q-26 0 -26 33q0 2 2 7.5t4 8.5l34 74q8 17 20 26t36 9
q19 0 30 -12t11 -32q0 -4 -4 -14z" />
    <glyph glyph-name="ohungarumlaut" unicode="&#x151;" horiz-adv-x="480" 
d="M244 405q41 0 77.5 -16t64 -43.5t43.5 -64.5t16 -79t-16 -79.5t-43.5 -66t-64 -45t-77.5 -16.5q-43 0 -81 16.5t-66.5 45t-45 66t-16.5 79.5t16.5 79t45 64.5t66.5 43.5t81 16zM243 95q18 0 34 8t28.5 22t19.5 33.5t7 42.5q0 46 -26.5 72.5t-62.5 26.5q-39 0 -67 -26
t-28 -73q0 -23 7.5 -42.5t20.5 -33.5t30 -22t37 -8zM192 495q-8 -11 -17.5 -18t-31.5 -7q-26 0 -26 33q0 2 2 7.5t4 8.5l34 74q8 17 20 26t36 9q19 0 30 -12t11 -32q0 -4 -4 -14zM361 495q-8 -11 -17.5 -18t-31.5 -7q-26 0 -26 33q0 2 2 7.5t4 8.5l34 74q8 17 20 26t36 9
q19 0 30 -12t11 -32q0 -4 -4 -14z" />
    <glyph glyph-name="OE" unicode="&#x152;" horiz-adv-x="838" 
d="M334 95q14 0 27 2t26 5v361q-12 3 -25.5 5t-27.5 2q-39 0 -71.5 -15t-55.5 -40.5t-36 -59.5t-13 -73t13 -73t36 -59.5t55.5 -40t71.5 -14.5zM399 0q-4 0 -5 1q-29 -6 -59 -6q-60 0 -113 23t-92 62t-62 92t-23 113t23 113t62 92t92 62t113 23q17 0 33 -1.5t31 -5.5h334
q20 0 35 -15.5t15 -36.5q0 -20 -15 -35.5t-35 -15.5h-233v-139h178q20 0 34.5 -15t14.5 -35t-14.5 -35t-34.5 -15h-178v-123h233q20 0 35 -15.5t15 -36.5q0 -20 -15 -35.5t-35 -15.5h-334z" />
    <glyph glyph-name="oe" unicode="&#x153;" horiz-adv-x="753" 
d="M718 210q0 -18 -13 -31t-31 -13h-228q0 -25 10.5 -40t25 -23.5t30.5 -11t27 -2.5q16 0 36.5 3t37.5 11q5 4 13 6.5t16 2.5q19 0 32.5 -13.5t13.5 -32.5q0 -13 -7 -23.5t-18 -16.5q-26 -19 -58 -25t-64 -6q-48 0 -88.5 14.5t-69.5 44.5q-28 -27 -63.5 -43t-75.5 -16
q-43 0 -81 16.5t-66.5 45t-45 66t-16.5 79.5t16.5 79t45 64.5t66.5 43.5t81 16q40 0 75.5 -15.5t63.5 -41.5q23 26 58.5 41.5t83.5 15.5q41 0 76.5 -12.5t61.5 -37t40.5 -61t14.5 -84.5zM243 95q18 0 34 8t28.5 22t19.5 33.5t7 42.5q0 46 -26.5 72.5t-62.5 26.5
q-39 0 -67 -26t-28 -73q0 -23 7.5 -42.5t20.5 -33.5t30 -22t37 -8zM609 237q0 18 -8.5 30t-21 19.5t-27 10.5t-25.5 3q-12 0 -26 -3t-26 -10.5t-20.5 -19.5t-8.5 -30h163z" />
    <glyph glyph-name="Racute" unicode="&#x154;" horiz-adv-x="548" 
d="M330 312q27 0 46 20t19 55t-19 56t-46 21h-147v-152h147zM478 75q5 -10 5 -18q0 -24 -20 -40.5t-41 -16.5q-20 0 -34 11.5t-24 29.5l-86 167h-95v-151q0 -23 -17 -40t-40 -17t-39.5 17t-16.5 40v454q0 23 16.5 40t39.5 17h212q35 0 66 -13.5t54 -37.5t36.5 -57t13.5 -72
q0 -59 -29 -103t-75 -64zM308 656q-9 -11 -18 -18.5t-22 -7.5q-14 0 -27 11t-13 28q0 6 3 12l35 70q8 16 19 24.5t34 8.5q18 0 29 -12.5t11 -31.5q0 -3 -1 -7t-3 -7z" />
    <glyph glyph-name="racute" unicode="&#x155;" horiz-adv-x="341" 
d="M268 302q-27 -2 -43.5 -9.5t-25.5 -19.5t-12.5 -28t-3.5 -33v-155q0 -23 -17 -40t-40 -17t-39.5 17t-16.5 40v299q0 18 13 31t31 13t30.5 -13t12.5 -31q32 29 58.5 38t52.5 11h11q20 0 36 -15t16 -37q0 -20 -15.5 -35.5t-35.5 -15.5h-12zM235 496q-9 -11 -18 -18.5
t-22 -7.5q-14 0 -27 11t-13 28q0 6 3 12l35 70q8 16 19 24.5t34 8.5q18 0 29 -12.5t11 -31.5q0 -3 -1 -7t-3 -7z" />
    <glyph glyph-name="uni0156" unicode="&#x156;" horiz-adv-x="548" 
d="M330 312q27 0 46 20t19 55t-19 56t-46 21h-147v-152h147zM478 75q5 -10 5 -18q0 -24 -20 -40.5t-41 -16.5q-20 0 -34 11.5t-24 29.5l-86 167h-95v-151q0 -23 -17 -40t-40 -17t-39.5 17t-16.5 40v454q0 23 16.5 40t39.5 17h212q35 0 66 -13.5t54 -37.5t36.5 -57t13.5 -72
q0 -59 -29 -103t-75 -64zM288 -218q-8 -17 -18 -20.5t-22 -3.5q-25 0 -25 24l20 59q-28 16 -28 51q0 26 17.5 43t43.5 17t43 -17t17 -43q0 -16 -7 -26z" />
    <glyph glyph-name="uni0157" unicode="&#x157;" horiz-adv-x="341" 
d="M268 302q-27 -2 -43.5 -9.5t-25.5 -19.5t-12.5 -28t-3.5 -33v-155q0 -23 -17 -40t-40 -17t-39.5 17t-16.5 40v299q0 18 13 31t31 13t30.5 -13t12.5 -31q32 29 58.5 38t52.5 11h11q20 0 36 -15t16 -37q0 -20 -15.5 -35.5t-35.5 -15.5h-12zM145 -218q-8 -17 -18 -20.5
t-22 -3.5q-25 0 -25 24l20 59q-28 16 -28 51q0 26 17.5 43t43.5 17t43 -17t17 -43q0 -16 -7 -26z" />
    <glyph glyph-name="Rcaron" unicode="&#x158;" horiz-adv-x="548" 
d="M330 312h-147v152h147q27 0 46 -21t19 -56t-19 -55t-46 -20zM404 221q46 20 75 64t29 103q0 39 -13.5 72t-36.5 57t-54 37.5t-66 13.5h-212q-23 0 -39.5 -17t-16.5 -40v-454q0 -23 16.5 -40t39.5 -17t40 17t17 40v151h95l86 -167q10 -18 24 -29.5t34 -11.5q21 0 41 16.5
t20 40.5q0 8 -5 18zM228 630q-5 0 -11 3t-8 5l-86 64q-15 12 -15 32q0 17 11.5 28.5t28.5 11.5q16 0 28 -10l62 -51l62 51q12 10 28 10q17 0 28.5 -11.5t11.5 -28.5q0 -20 -15 -32l-86 -64q-2 -2 -8 -5t-11 -3h-20z" />
    <glyph glyph-name="rcaron" unicode="&#x159;" horiz-adv-x="341" 
d="M280 302q20 0 35.5 15.5t15.5 35.5q0 22 -16 37t-36 15h-11q-26 -2 -52.5 -11t-58.5 -38q0 18 -12.5 31t-30.5 13t-31 -13t-13 -31v-299q0 -23 16.5 -40t39.5 -17t40 17t17 40v155q0 17 3.5 33t12.5 28t25.5 19.5t43.5 9.5h12zM195 470q-5 0 -11 3t-8 5l-76 64
q-15 12 -15 32q0 17 11.5 28.5t28.5 11.5q16 0 28 -10l52 -51l51 51q12 10 28 10q17 0 28.5 -11.5t11.5 -28.5q0 -20 -15 -32l-75 -64q-2 -2 -8 -5t-11 -3h-20z" />
    <glyph glyph-name="Sacute" unicode="&#x15a;" horiz-adv-x="511" 
d="M388 445l-25 7.5t-32.5 8.5t-34.5 7t-31 3q-33 0 -51.5 -8.5t-27.5 -19t-10.5 -21.5t-1.5 -15q0 -26 22 -42t54.5 -29t71 -26t71 -33.5t54.5 -51.5t22 -79q0 -35 -18.5 -63t-46.5 -47.5t-61.5 -30t-63.5 -10.5q-46 0 -95.5 6t-94.5 29q-16 5 -25 18.5t-9 30.5
q0 18 13 34.5t32 16.5q5 0 8 -2q16 -9 58 -21t99 -12q18 0 34.5 4.5t29 12.5t20.5 19t8 23q0 23 -22 37.5t-55 26.5t-71 25t-71 34t-55 53t-22 82q0 77 52 120t149 43q38 0 75 -9.5t63 -18.5q17 -6 27 -20.5t10 -31.5q0 -19 -15.5 -34.5t-33.5 -15.5zM291 656
q-9 -11 -18 -18.5t-22 -7.5q-14 0 -27 11t-13 28q0 6 3 12l35 70q8 16 19 24.5t34 8.5q18 0 29 -12.5t11 -31.5q0 -3 -1 -7t-3 -7z" />
    <glyph glyph-name="sacute" unicode="&#x15b;" horiz-adv-x="400" 
d="M78 17q-15 5 -23.5 17.5t-8.5 28.5q0 17 12.5 31.5t29.5 14.5q5 0 8 -1q17 -7 42.5 -13.5t54.5 -6.5q6 0 15 1t17.5 4t14.5 7.5t6 12.5q0 13 -15 20.5t-37 14t-48.5 14.5t-48.5 22.5t-37 38.5t-15 63q0 30 12.5 52.5t34 37.5t51 22t63.5 7q26 0 51.5 -4.5t44.5 -10.5
q16 -5 25.5 -18.5t9.5 -30.5t-13.5 -32t-30.5 -15q-5 0 -8 1q-18 5 -41 7.5t-43 2.5q-30 0 -36.5 -6.5t-6.5 -16.5q0 -12 15 -19.5t37 -15t48.5 -16t48.5 -22.5t37 -34.5t15 -52.5q0 -36 -15 -60.5t-38.5 -39.5t-53 -21t-58.5 -6t-58 4t-58 18zM246 496q-9 -11 -18 -18.5
t-22 -7.5q-14 0 -27 11t-13 28q0 6 3 12l35 70q8 16 19 24.5t34 8.5q18 0 29 -12.5t11 -31.5q0 -3 -1 -7t-3 -7z" />
    <glyph glyph-name="Scircumflex" unicode="&#x15c;" horiz-adv-x="511" 
d="M388 445q18 0 33.5 15.5t15.5 34.5q0 17 -10 31.5t-27 20.5q-26 9 -63 18.5t-75 9.5q-97 0 -149 -43t-52 -120q0 -50 22 -82t55 -53t71 -34t71 -25t55 -26.5t22 -37.5q0 -12 -8 -23t-20.5 -19t-29 -12.5t-34.5 -4.5q-57 0 -99 12t-58 21q-3 2 -8 2q-19 0 -32 -16.5
t-13 -34.5q0 -17 9 -30.5t25 -18.5q45 -23 94.5 -29t95.5 -6q30 0 63.5 10.5t61.5 30t46.5 47.5t18.5 63q0 48 -22 79t-54.5 51.5t-71 33.5t-71 26t-54.5 29t-22 42q0 4 1.5 15t10.5 21.5t27.5 19t51.5 8.5q14 0 31 -3t34.5 -7t32.5 -8.5zM273 774q5 0 11 -3t8 -5l86 -64
q15 -12 15 -32q0 -17 -11.5 -28.5t-28.5 -11.5q-16 0 -28 10l-62 51l-62 -51q-12 -10 -28 -10q-17 0 -28.5 11.5t-11.5 28.5q0 20 15 32l86 64q2 2 8 5t11 3h20z" />
    <glyph glyph-name="scircumflex" unicode="&#x15d;" horiz-adv-x="400" 
d="M78 17q29 -14 58 -18t58 -4t58.5 6t53 21t38.5 39.5t15 60.5q0 32 -15 52.5t-37 34.5t-48.5 22.5t-48.5 16t-37 15t-15 19.5q0 10 6.5 16.5t36.5 6.5q20 0 43 -2.5t41 -7.5q3 -1 8 -1q17 0 30.5 15t13.5 32t-9.5 30.5t-25.5 18.5q-19 6 -44.5 10.5t-51.5 4.5
q-34 0 -63.5 -7t-51 -22t-34 -37.5t-12.5 -52.5q0 -39 15 -63t37 -38.5t48.5 -22.5t48.5 -14.5t37 -14t15 -20.5q0 -8 -6 -12.5t-14.5 -7.5t-17.5 -4t-15 -1q-29 0 -54.5 6.5t-42.5 13.5q-3 1 -8 1q-17 0 -29.5 -14.5t-12.5 -31.5q0 -16 8.5 -28.5t23.5 -17.5zM204 614
q5 0 11 -3t8 -5l86 -64q15 -12 15 -32q0 -17 -11.5 -28.5t-28.5 -11.5q-16 0 -28 10l-62 51l-62 -51q-12 -10 -28 -10q-17 0 -28.5 11.5t-11.5 28.5q0 20 15 32l86 64q2 2 8 5t11 3h20z" />
    <glyph glyph-name="Scedilla" unicode="&#x15e;" horiz-adv-x="511" 
d="M184 -139q-11 8 -11 20q0 11 7.5 19t17.5 8q9 0 16 -5q9 -5 16.5 -6.5t20.5 -3.5q9 0 19 2.5t10 10.5q0 5 -7 10.5t-16.5 11t-21 11t-20.5 10.5l6 48q-33 2 -67 9t-65 24q-16 5 -25 18.5t-9 30.5q0 18 13 34.5t32 16.5q5 0 8 -2q16 -9 58 -21t99 -12q18 0 34.5 4.5
t29 12.5t20.5 19t8 23q0 23 -22 37.5t-55 26.5t-71 25t-71 34t-55 53t-22 82q0 77 52 120t149 43q38 0 75 -9.5t63 -18.5q17 -6 27 -20.5t10 -31.5q0 -19 -15.5 -34.5t-33.5 -15.5l-25 7.5t-32.5 8.5t-34.5 7t-31 3q-33 0 -51.5 -8.5t-27.5 -19t-10.5 -21.5t-1.5 -15
q0 -26 22 -42t54.5 -29t71 -26t71 -33.5t54.5 -51.5t22 -79q0 -33 -16.5 -60t-42.5 -46.5t-57 -30.5t-61 -13l-4 -18q29 -18 45 -34.5t16 -42.5q0 -18 -8 -31t-21 -20.5t-28.5 -11t-31.5 -3.5q-23 0 -40.5 7t-35.5 19z" />
    <glyph glyph-name="scedilla" unicode="&#x15f;" horiz-adv-x="400" 
d="M127 -139q-11 8 -11 20q0 11 7.5 19t17.5 8q9 0 16 -5q9 -5 16.5 -6.5t20.5 -3.5q9 0 19 2.5t10 10.5q0 5 -7 10.5t-16.5 11t-21 11t-20.5 10.5l5 47q-22 2 -43 6.5t-42 14.5q-15 5 -23.5 17.5t-8.5 28.5q0 17 12.5 31.5t29.5 14.5q5 0 8 -1q17 -7 42.5 -13.5t54.5 -6.5
q6 0 15 1t17.5 4t14.5 7.5t6 12.5q0 13 -15 20.5t-37 14t-48.5 14.5t-48.5 22.5t-37 38.5t-15 63q0 30 12.5 52.5t34 37.5t51 22t63.5 7q26 0 51.5 -4.5t44.5 -10.5q16 -5 25.5 -18.5t9.5 -30.5t-13.5 -32t-30.5 -15q-5 0 -8 1q-18 5 -41 7.5t-43 2.5q-30 0 -36.5 -6.5
t-6.5 -16.5q0 -12 15 -19.5t37 -15t48.5 -16t48.5 -22.5t37 -34.5t15 -52.5q0 -30 -10.5 -52t-28 -37t-40 -23.5t-47.5 -11.5l-2 -20q29 -18 45 -34.5t16 -42.5q0 -18 -8 -31t-21 -20.5t-28.5 -11t-31.5 -3.5q-23 0 -40.5 7t-35.5 19z" />
    <glyph glyph-name="Scaron" unicode="&#x160;" horiz-adv-x="511" 
d="M388 445q18 0 33.5 15.5t15.5 34.5q0 17 -10 31.5t-27 20.5q-26 9 -63 18.5t-75 9.5q-97 0 -149 -43t-52 -120q0 -50 22 -82t55 -53t71 -34t71 -25t55 -26.5t22 -37.5q0 -12 -8 -23t-20.5 -19t-29 -12.5t-34.5 -4.5q-57 0 -99 12t-58 21q-3 2 -8 2q-19 0 -32 -16.5
t-13 -34.5q0 -17 9 -30.5t25 -18.5q45 -23 94.5 -29t95.5 -6q30 0 63.5 10.5t61.5 30t46.5 47.5t18.5 63q0 48 -22 79t-54.5 51.5t-71 33.5t-71 26t-54.5 29t-22 42q0 4 1.5 15t10.5 21.5t27.5 19t51.5 8.5q14 0 31 -3t34.5 -7t32.5 -8.5zM252 630q-5 0 -11 3t-8 5l-86 64
q-15 12 -15 32q0 17 11.5 28.5t28.5 11.5q16 0 28 -10l62 -51l62 51q12 10 28 10q17 0 28.5 -11.5t11.5 -28.5q0 -20 -15 -32l-86 -64q-2 -2 -8 -5t-11 -3h-20z" />
    <glyph glyph-name="scaron" unicode="&#x161;" horiz-adv-x="400" 
d="M78 17q29 -14 58 -18t58 -4t58.5 6t53 21t38.5 39.5t15 60.5q0 32 -15 52.5t-37 34.5t-48.5 22.5t-48.5 16t-37 15t-15 19.5q0 10 6.5 16.5t36.5 6.5q20 0 43 -2.5t41 -7.5q3 -1 8 -1q17 0 30.5 15t13.5 32t-9.5 30.5t-25.5 18.5q-19 6 -44.5 10.5t-51.5 4.5
q-34 0 -63.5 -7t-51 -22t-34 -37.5t-12.5 -52.5q0 -39 15 -63t37 -38.5t48.5 -22.5t48.5 -14.5t37 -14t15 -20.5q0 -8 -6 -12.5t-14.5 -7.5t-17.5 -4t-15 -1q-29 0 -54.5 6.5t-42.5 13.5q-3 1 -8 1q-17 0 -29.5 -14.5t-12.5 -31.5q0 -16 8.5 -28.5t23.5 -17.5zM190 470
q-5 0 -11 3t-8 5l-86 64q-15 12 -15 32q0 17 11.5 28.5t28.5 11.5q16 0 28 -10l62 -51l62 51q12 10 28 10q17 0 28.5 -11.5t11.5 -28.5q0 -20 -15 -32l-86 -64q-2 -2 -8 -5t-11 -3h-20z" />
    <glyph glyph-name="uni0162" unicode="&#x162;" horiz-adv-x="503" 
d="M80 465q-20 0 -35 15.5t-15 35.5q0 21 15 36.5t35 15.5h343q20 0 35 -15.5t15 -36.5q0 -20 -15 -35.5t-35 -15.5h-115v-408q0 -23 -17 -40t-40 -17t-39.5 17t-16.5 40v408h-115zM263 -218q-8 -17 -18 -20.5t-22 -3.5q-25 0 -25 24l20 59q-28 16 -28 51q0 26 17.5 43
t43.5 17t43 -17t17 -43q0 -16 -7 -26z" />
    <glyph glyph-name="uni0163" unicode="&#x163;" horiz-adv-x="358" 
d="M241 -5q-32 0 -57.5 8t-43 27.5t-26.5 52t-9 82.5v137h-29q-20 0 -35.5 15.5t-15.5 35.5q0 22 15.5 37t35.5 15h29v106q0 23 16.5 40t39.5 17t40 -17t17 -40v-106h47q20 0 35.5 -15t15.5 -37q0 -20 -15.5 -35.5t-35.5 -15.5h-47v-115q0 -29 1 -46.5t5 -28t11.5 -14
t20.5 -3.5h16q20 0 35 -14.5t15 -35.5q0 -20 -15 -35t-35 -15h-31zM233 -218q-8 -17 -18 -20.5t-22 -3.5q-25 0 -25 24l20 59q-28 16 -28 51q0 26 17.5 43t43.5 17t43 -17t17 -43q0 -16 -7 -26z" />
    <glyph glyph-name="Tcaron" unicode="&#x164;" horiz-adv-x="503" 
d="M195 465v-408q0 -23 16.5 -40t39.5 -17t40 17t17 40v408h115q20 0 35 15.5t15 35.5q0 21 -15 36.5t-35 15.5h-343q-20 0 -35 -15.5t-15 -36.5q0 -20 15 -35.5t35 -15.5h115zM240 630q-5 0 -11 3t-8 5l-86 64q-15 12 -15 32q0 17 11.5 28.5t28.5 11.5q16 0 28 -10l62 -51
l62 51q12 10 28 10q17 0 28.5 -11.5t11.5 -28.5q0 -20 -15 -32l-86 -64q-2 -2 -8 -5t-11 -3h-20z" />
    <glyph glyph-name="tcaron" unicode="&#x165;" horiz-adv-x="482" 
d="M241 -5q-32 0 -57.5 8t-43 27.5t-26.5 52t-9 82.5v137h-29q-20 0 -35.5 15.5t-15.5 35.5q0 22 15.5 37t35.5 15h29v106q0 23 16.5 40t39.5 17t40 -17t17 -40v-106h47q20 0 35.5 -15t15.5 -37q0 -20 -15.5 -35.5t-35.5 -15.5h-47v-115q0 -29 1 -46.5t5 -28t11.5 -14
t20.5 -3.5h16q20 0 35 -14.5t15 -35.5q0 -20 -15 -35t-35 -15h-31zM424 392q-7 -19 -27 -19q-12 0 -20.5 8.5t-8.5 20.5q0 6 1 9l15 46q-28 16 -28 51q0 26 17.5 43t43.5 17t43 -17t17 -43q0 -16 -7 -26z" />
    <glyph glyph-name="Tbar" unicode="&#x166;" horiz-adv-x="503" 
d="M308 235v-178q0 -23 -17 -40t-40 -17t-39.5 17t-16.5 40v178h-54q-20 0 -35 15.5t-15 35.5q0 21 15 36.5t35 15.5h54v127h-115q-20 0 -35 15.5t-15 35.5q0 21 15 36.5t35 15.5h343q20 0 35 -15.5t15 -36.5q0 -20 -15 -35.5t-35 -15.5h-115v-127h54q20 0 35 -15.5
t15 -36.5q0 -20 -15 -35.5t-35 -15.5h-54z" />
    <glyph glyph-name="tbar" unicode="&#x167;" horiz-adv-x="358" 
d="M218 190q0 -30 1 -48.5t5 -29t11.5 -14t20.5 -3.5h16q20 0 35 -14.5t15 -35.5q0 -20 -15 -35t-35 -15h-31q-32 0 -57.5 8t-43 27.5t-26.5 52t-9 82.5v25h-29q-20 0 -35.5 15.5t-15.5 35.5q0 22 15.5 37t35.5 15h29v74h-29q-20 0 -35.5 15.5t-15.5 35.5q0 22 15.5 37
t35.5 15h29v41q0 23 16.5 40t39.5 17t40 -17t17 -40v-41h47q20 0 35.5 -15t15.5 -37q0 -20 -15.5 -35.5t-35.5 -15.5h-47v-74h47q20 0 35.5 -15t15.5 -37q0 -20 -15.5 -35.5t-35.5 -15.5h-47z" />
    <glyph glyph-name="Utilde" unicode="&#x168;" horiz-adv-x="618" 
d="M183 251q0 -78 28 -117t98 -39t98 39t28 117v260q0 23 16.5 40t39.5 17t40 -17t17 -40v-260q0 -118 -60 -187t-180 -69q-119 0 -178.5 69t-59.5 187v260q0 23 16.5 40t39.5 17t40 -17t17 -40v-260zM416 645q-14 -7 -28 -11t-29 -4q-16 0 -30 5.5t-27 11.5t-26 11.5
t-27 5.5q-5 0 -11.5 -0.5t-11.5 -1.5q-3 -1 -5.5 -1.5t-5.5 -0.5q-15 0 -28.5 10.5t-18.5 24.5q-2 8 -2 13q0 16 10 29t24 18q11 5 23 8.5t26 3.5q25 0 38.5 -5.5t24 -11.5t20.5 -11.5t28 -5.5q17 0 29 4l6 2t6 1q15 0 28.5 -10.5t18.5 -24.5q2 -8 2 -13q0 -16 -10 -29
t-24 -18z" />
    <glyph glyph-name="utilde" unicode="&#x169;" 
d="M348 45q-35 -33 -65.5 -41.5t-59.5 -8.5q-42 0 -73 14.5t-51 39.5t-29.5 57t-9.5 68v169q0 23 16.5 40t39.5 17t40 -17t17 -40v-158q0 -18 2 -34.5t10 -29t23 -19.5t42 -7q38 0 54.5 26.5t16.5 63.5v158q0 23 16.5 40t39.5 17t40 -17t17 -40v-299q0 -18 -13 -31t-31 -13
t-30 13.5t-12 31.5zM360 485q-14 -7 -28 -11t-29 -4q-16 0 -30 5.5t-27 11.5t-26 11.5t-27 5.5q-5 0 -11.5 -0.5t-11.5 -1.5q-3 -1 -5.5 -1.5t-5.5 -0.5q-15 0 -28.5 10.5t-18.5 24.5q-2 8 -2 13q0 16 10 29t24 18q11 5 23 8.5t26 3.5q25 0 38.5 -5.5t24 -11.5t20.5 -11.5
t28 -5.5q17 0 29 4l6 2t6 1q15 0 28.5 -10.5t18.5 -24.5q2 -8 2 -13q0 -16 -10 -29t-24 -18z" />
    <glyph glyph-name="Umacron" unicode="&#x16a;" horiz-adv-x="618" 
d="M183 251q0 -78 28 -117t98 -39t98 39t28 117v260q0 23 16.5 40t39.5 17t40 -17t17 -40v-260q0 -118 -60 -187t-180 -69q-119 0 -178.5 69t-59.5 187v260q0 23 16.5 40t39.5 17t40 -17t17 -40v-260zM200 630q-20 0 -35 15.5t-15 35.5q0 21 15 36.5t35 15.5h218
q20 0 35 -15.5t15 -36.5q0 -20 -15 -35.5t-35 -15.5h-218z" />
    <glyph glyph-name="umacron" unicode="&#x16b;" 
d="M348 45q-35 -33 -65.5 -41.5t-59.5 -8.5q-42 0 -73 14.5t-51 39.5t-29.5 57t-9.5 68v169q0 23 16.5 40t39.5 17t40 -17t17 -40v-158q0 -18 2 -34.5t10 -29t23 -19.5t42 -7q38 0 54.5 26.5t16.5 63.5v158q0 23 16.5 40t39.5 17t40 -17t17 -40v-299q0 -18 -13 -31t-31 -13
t-30 13.5t-12 31.5zM136 470q-20 0 -35 15.5t-15 35.5q0 21 15 36.5t35 15.5h218q20 0 35 -15.5t15 -36.5q0 -20 -15 -35.5t-35 -15.5h-218z" />
    <glyph glyph-name="Ubreve" unicode="&#x16c;" horiz-adv-x="618" 
d="M183 251q0 -78 28 -117t98 -39t98 39t28 117v260q0 23 16.5 40t39.5 17t40 -17t17 -40v-260q0 -118 -60 -187t-180 -69q-119 0 -178.5 69t-59.5 187v260q0 23 16.5 40t39.5 17t40 -17t17 -40v-260zM310 629q-60 0 -102.5 23.5t-61.5 62.5q-4 9 -4 21q0 23 16.5 40
t39.5 17q17 0 27.5 -8.5t25.5 -26.5q17 -21 34 -25t26 -4t26 4t34 25q15 18 25.5 26.5t27.5 8.5q23 0 39.5 -17t16.5 -40q0 -12 -4 -21q-19 -39 -61.5 -62.5t-104.5 -23.5z" />
    <glyph glyph-name="ubreve" unicode="&#x16d;" 
d="M348 45q-35 -33 -65.5 -41.5t-59.5 -8.5q-42 0 -73 14.5t-51 39.5t-29.5 57t-9.5 68v169q0 23 16.5 40t39.5 17t40 -17t17 -40v-158q0 -18 2 -34.5t10 -29t23 -19.5t42 -7q38 0 54.5 26.5t16.5 63.5v158q0 23 16.5 40t39.5 17t40 -17t17 -40v-299q0 -18 -13 -31t-31 -13
t-30 13.5t-12 31.5zM244 466q-60 0 -102.5 23.5t-61.5 62.5q-4 9 -4 21q0 23 16.5 40t39.5 17q17 0 27.5 -8.5t25.5 -26.5q17 -21 34 -25t26 -4t26 4t34 25q15 18 25.5 26.5t27.5 8.5q23 0 39.5 -17t16.5 -40q0 -12 -4 -21q-19 -39 -61.5 -62.5t-104.5 -23.5z" />
    <glyph glyph-name="Uring" unicode="&#x16e;" horiz-adv-x="618" 
d="M308 863q22 0 42.5 -9t35.5 -24t24 -35.5t9 -43.5t-9 -43t-24 -35.5t-35.5 -24.5t-42.5 -9q-23 0 -43.5 9t-36 24.5t-24.5 35.5t-9 43t9 43.5t24.5 35.5t36 24t43.5 9zM308 705q15 0 27 13t12 33t-12 31t-27 11q-17 0 -29 -11t-12 -31t12 -33t29 -13zM183 251
q0 -78 28 -117t98 -39t98 39t28 117v260q0 23 16.5 40t39.5 17t40 -17t17 -40v-260q0 -118 -60 -187t-180 -69q-119 0 -178.5 69t-59.5 187v260q0 23 16.5 40t39.5 17t40 -17t17 -40v-260z" />
    <glyph glyph-name="uring" unicode="&#x16f;" 
d="M248 700q22 0 42.5 -9t35.5 -24t24 -35.5t9 -43.5t-9 -43t-24 -35.5t-35.5 -24.5t-42.5 -9q-23 0 -43.5 9t-36 24.5t-24.5 35.5t-9 43t9 43.5t24.5 35.5t36 24t43.5 9zM248 542q15 0 27 13t12 33t-12 31t-27 11q-17 0 -29 -11t-12 -31t12 -33t29 -13zM348 45
q-35 -33 -65.5 -41.5t-59.5 -8.5q-42 0 -73 14.5t-51 39.5t-29.5 57t-9.5 68v169q0 23 16.5 40t39.5 17t40 -17t17 -40v-158q0 -18 2 -34.5t10 -29t23 -19.5t42 -7q38 0 54.5 26.5t16.5 63.5v158q0 23 16.5 40t39.5 17t40 -17t17 -40v-299q0 -18 -13 -31t-31 -13t-30 13.5
t-12 31.5z" />
    <glyph glyph-name="Uhungarumlaut" unicode="&#x170;" horiz-adv-x="618" 
d="M183 251q0 -78 28 -117t98 -39t98 39t28 117v260q0 23 16.5 40t39.5 17t40 -17t17 -40v-260q0 -118 -60 -187t-180 -69q-119 0 -178.5 69t-59.5 187v260q0 23 16.5 40t39.5 17t40 -17t17 -40v-260zM276 655q-8 -11 -17.5 -18t-31.5 -7q-26 0 -26 33q0 2 2 7.5t4 8.5
l34 74q8 17 20 26t36 9q19 0 30 -12t11 -32q0 -4 -4 -14zM445 655q-8 -11 -17.5 -18t-31.5 -7q-26 0 -26 33q0 2 2 7.5t4 8.5l34 74q8 17 20 26t36 9q19 0 30 -12t11 -32q0 -4 -4 -14z" />
    <glyph glyph-name="uhungarumlaut" unicode="&#x171;" 
d="M348 45q-35 -33 -65.5 -41.5t-59.5 -8.5q-42 0 -73 14.5t-51 39.5t-29.5 57t-9.5 68v169q0 23 16.5 40t39.5 17t40 -17t17 -40v-158q0 -18 2 -34.5t10 -29t23 -19.5t42 -7q38 0 54.5 26.5t16.5 63.5v158q0 23 16.5 40t39.5 17t40 -17t17 -40v-299q0 -18 -13 -31t-31 -13
t-30 13.5t-12 31.5zM182 495q-8 -11 -17.5 -18t-31.5 -7q-26 0 -26 33q0 2 2 7.5t4 8.5l34 74q8 17 20 26t36 9q19 0 30 -12t11 -32q0 -4 -4 -14zM351 495q-8 -11 -17.5 -18t-31.5 -7q-26 0 -26 33q0 2 2 7.5t4 8.5l34 74q8 17 20 26t36 9q19 0 30 -12t11 -32q0 -4 -4 -14z
" />
    <glyph glyph-name="Uogonek" unicode="&#x172;" horiz-adv-x="618" 
d="M376 -39q7 6 18 6q14 0 23 -9t9 -23q0 -8 -6 -17t-13 -13q-14 -11 -27.5 -15.5t-36.5 -4.5q-16 0 -31.5 2.5t-27.5 9.5t-19.5 19t-7.5 30q0 25 18 51q-103 9 -154 76.5t-51 177.5v260q0 23 16.5 40t39.5 17t40 -17t17 -40v-260q0 -78 28 -117t98 -39t98 39t28 117v260
q0 23 16.5 40t39.5 17t40 -17t17 -40v-260q0 -111 -53 -179t-159 -76q-9 -9 -9 -22q0 -9 4 -13.5t18 -4.5q17 0 27 5z" />
    <glyph glyph-name="uogonek" unicode="&#x173;" 
d="M348 45q-35 -33 -65.5 -41.5t-59.5 -8.5q-42 0 -73 14.5t-51 39.5t-29.5 57t-9.5 68v169q0 23 16.5 40t39.5 17t40 -17t17 -40v-158q0 -18 2 -34.5t10 -29t23 -19.5t42 -7q38 0 54.5 26.5t16.5 63.5v158q0 23 16.5 40t39.5 17t40 -17t17 -40v-316q0 -14 -8 -26t-20 -17
q-14 -6 -28.5 -15t-14.5 -23q0 -10 4 -12.5t8 -2.5q2 0 8 2q2 1 6 2t7 1q14 0 23 -7.5t9 -21.5q0 -19 -15 -29q-11 -7 -24.5 -11t-32.5 -4q-32 0 -50 19t-18 37q0 3 1 14t8 25.5t20.5 30t39.5 28.5z" />
    <glyph glyph-name="Ydieresis" unicode="&#x178;" horiz-adv-x="555" 
d="M137 699q0 26 17 43t43 17t43 -17t17 -43t-17 -43t-43 -17t-43 17t-17 43zM296 699q0 26 17 43t43 17t43 -17t17 -43t-17 -43t-43 -17t-43 17t-17 43zM221 212l-200 294q-1 3 -1 11q0 25 19.5 38t42.5 13q17 0 31.5 -8.5t22.5 -23.5l142 -210l141 210q8 15 22.5 23.5
t31.5 8.5q23 0 42.5 -13t19.5 -38q0 -8 -1 -11l-200 -294v-155q0 -23 -17 -40t-40 -17t-39.5 17t-16.5 40v155z" />
    <glyph glyph-name="Zacute" unicode="&#x179;" horiz-adv-x="495" 
d="M199 101h216q20 0 35 -15t15 -35q0 -21 -15 -36t-35 -15h-359q-10 0 -18 9t-8 22q0 4 2 12l263 422h-213q-20 0 -35.5 15.5t-15.5 35.5q0 22 15.5 37t35.5 15h357q10 0 18 -9t8 -22q0 -4 -2 -12zM298 656q-9 -11 -18 -18.5t-22 -7.5q-14 0 -27 11t-13 28q0 6 3 12l35 70
q8 16 19 24.5t34 8.5q18 0 29 -12.5t11 -31.5q0 -3 -1 -7t-3 -7z" />
    <glyph glyph-name="zacute" unicode="&#x17a;" horiz-adv-x="415" 
d="M212 101h113q20 0 35 -15t15 -36q0 -20 -15 -35t-35 -15h-259q-10 0 -18 9t-8 22q0 4 2 12l162 254h-113q-20 0 -35.5 15.5t-15.5 35.5q0 22 15.5 37t35.5 15h258q10 0 18 -9t8 -22q0 -4 -2 -12zM246 496q-9 -11 -18 -18.5t-22 -7.5q-14 0 -27 11t-13 28q0 6 3 12l35 70
q8 16 19 24.5t34 8.5q18 0 29 -12.5t11 -31.5q0 -3 -1 -7t-3 -7z" />
    <glyph glyph-name="Zdotaccent" unicode="&#x17b;" horiz-adv-x="495" 
d="M189 690q0 26 17 43t43 17t43 -17t17 -43t-17 -43t-43 -17t-43 17t-17 43zM199 101h216q20 0 35 -15t15 -35q0 -21 -15 -36t-35 -15h-359q-10 0 -18 9t-8 22q0 4 2 12l263 422h-213q-20 0 -35.5 15.5t-15.5 35.5q0 22 15.5 37t35.5 15h357q10 0 18 -9t8 -22q0 -4 -2 -12z
" />
    <glyph glyph-name="zdotaccent" unicode="&#x17c;" horiz-adv-x="415" 
d="M145 536q0 26 17 43t43 17t43 -17t17 -43t-17 -43t-43 -17t-43 17t-17 43zM212 101h113q20 0 35 -15t15 -36q0 -20 -15 -35t-35 -15h-259q-10 0 -18 9t-8 22q0 4 2 12l162 254h-113q-20 0 -35.5 15.5t-15.5 35.5q0 22 15.5 37t35.5 15h258q10 0 18 -9t8 -22q0 -4 -2 -12z
" />
    <glyph glyph-name="Zcaron" unicode="&#x17d;" horiz-adv-x="495" 
d="M463 525q2 8 2 12q0 13 -8 22t-18 9h-357q-20 0 -35.5 -15t-15.5 -37q0 -20 15.5 -35.5t35.5 -15.5h213l-263 -422q-2 -8 -2 -12q0 -13 8 -22t18 -9h359q20 0 35 15t15 36q0 20 -15 35t-35 15h-216zM237 630q-5 0 -11 3t-8 5l-86 64q-15 12 -15 32q0 17 11.5 28.5
t28.5 11.5q16 0 28 -10l62 -51l62 51q12 10 28 10q17 0 28.5 -11.5t11.5 -28.5q0 -20 -15 -32l-86 -64q-2 -2 -8 -5t-11 -3h-20z" />
    <glyph glyph-name="zcaron" unicode="&#x17e;" horiz-adv-x="415" 
d="M373 357q2 8 2 12q0 13 -8 22t-18 9h-258q-20 0 -35.5 -15t-15.5 -37q0 -20 15.5 -35.5t35.5 -15.5h113l-162 -254q-2 -8 -2 -12q0 -13 8 -22t18 -9h259q20 0 35 15t15 35q0 21 -15 36t-35 15h-113zM197 470q-5 0 -11 3t-8 5l-86 64q-15 12 -15 32q0 17 11.5 28.5
t28.5 11.5q16 0 28 -10l62 -51l62 51q12 10 28 10q17 0 28.5 -11.5t11.5 -28.5q0 -20 -15 -32l-86 -64q-2 -2 -8 -5t-11 -3h-20z" />
    <glyph glyph-name="florin" unicode="&#x192;" horiz-adv-x="363" 
d="M334 560q14 -5 23 -17.5t9 -28.5q0 -20 -14.5 -34t-34.5 -14q-5 1 -12 1.5t-11 0.5q-29 0 -40 -23.5t-18 -65.5h49q22 0 36.5 -15t14.5 -37t-14.5 -36.5t-36.5 -14.5h-70l-80 -392q-5 -25 -19.5 -40t-37.5 -15t-38 16t-15 39l77 392h-36q-22 0 -36.5 14.5t-14.5 36.5
t14.5 37t36.5 15h56q15 94 49.5 141.5t105.5 47.5q8 0 24 -1.5t33 -6.5z" />
    <glyph glyph-name="uni0218" unicode="&#x218;" horiz-adv-x="514" 
d="M388 445l-25 7.5t-32.5 8.5t-34.5 7t-31 3q-33 0 -51.5 -8.5t-27.5 -19t-10.5 -21.5t-1.5 -15q0 -26 22 -42t54.5 -29t71 -26t71 -33.5t54.5 -51.5t22 -79q0 -35 -18.5 -63t-46.5 -47.5t-61.5 -30t-63.5 -10.5q-46 0 -95.5 6t-94.5 29q-16 5 -25 18.5t-9 30.5
q0 18 13 34.5t32 16.5q5 0 8 -2q16 -9 58 -21t99 -12q18 0 34.5 4.5t29 12.5t20.5 19t8 23q0 23 -22 37.5t-55 26.5t-71 25t-71 34t-55 53t-22 82q0 77 52 120t149 43q38 0 75 -9.5t63 -18.5q17 -6 27 -20.5t10 -31.5q0 -19 -15.5 -34.5t-33.5 -15.5zM288 -218
q-8 -17 -18 -20.5t-22 -3.5q-25 0 -25 24l20 59q-28 16 -28 51q0 26 17.5 43t43.5 17t43 -17t17 -43q0 -16 -7 -26z" />
    <glyph glyph-name="uni0219" unicode="&#x219;" horiz-adv-x="400" 
d="M78 17q-15 5 -23.5 17.5t-8.5 28.5q0 17 12.5 31.5t29.5 14.5q5 0 8 -1q17 -7 42.5 -13.5t54.5 -6.5q6 0 15 1t17.5 4t14.5 7.5t6 12.5q0 13 -15 20.5t-37 14t-48.5 14.5t-48.5 22.5t-37 38.5t-15 63q0 30 12.5 52.5t34 37.5t51 22t63.5 7q26 0 51.5 -4.5t44.5 -10.5
q16 -5 25.5 -18.5t9.5 -30.5t-13.5 -32t-30.5 -15q-5 0 -8 1q-18 5 -41 7.5t-43 2.5q-30 0 -36.5 -6.5t-6.5 -16.5q0 -12 15 -19.5t37 -15t48.5 -16t48.5 -22.5t37 -34.5t15 -52.5q0 -36 -15 -60.5t-38.5 -39.5t-53 -21t-58.5 -6t-58 4t-58 18zM218 -218q-8 -17 -18 -20.5
t-22 -3.5q-25 0 -25 24l20 59q-28 16 -28 51q0 26 17.5 43t43.5 17t43 -17t17 -43q0 -16 -7 -26z" />
    <glyph glyph-name="uni021A" unicode="&#x21a;" horiz-adv-x="503" 
d="M80 465q-20 0 -35 15.5t-15 35.5q0 21 15 36.5t35 15.5h343q20 0 35 -15.5t15 -36.5q0 -20 -15 -35.5t-35 -15.5h-115v-408q0 -23 -17 -40t-40 -17t-39.5 17t-16.5 40v408h-115zM261 -218q-8 -17 -18 -20.5t-22 -3.5q-25 0 -25 24l20 59q-28 16 -28 51q0 26 17.5 43
t43.5 17t43 -17t17 -43q0 -16 -7 -26z" />
    <glyph glyph-name="uni021B" unicode="&#x21b;" horiz-adv-x="358" 
d="M241 -5q-32 0 -57.5 8t-43 27.5t-26.5 52t-9 82.5v137h-29q-20 0 -35.5 15.5t-15.5 35.5q0 22 15.5 37t35.5 15h29v106q0 23 16.5 40t39.5 17t40 -17t17 -40v-106h47q20 0 35.5 -15t15.5 -37q0 -20 -15.5 -35.5t-35.5 -15.5h-47v-115q0 -29 1 -46.5t5 -28t11.5 -14
t20.5 -3.5h16q20 0 35 -14.5t15 -35.5q0 -20 -15 -35t-35 -15h-31zM234 -218q-8 -17 -18 -20.5t-22 -3.5q-25 0 -25 24l20 59q-28 16 -28 51q0 26 17.5 43t43.5 17t43 -17t17 -43q0 -16 -7 -26z" />
    <glyph glyph-name="circumflex" unicode="&#x2c6;" horiz-adv-x="400" 
d="M210 568q5 0 11 -3t8 -5l86 -64q15 -12 15 -32q0 -17 -11.5 -28.5t-28.5 -11.5q-16 0 -28 10l-62 51l-62 -51q-12 -10 -28 -10q-17 0 -28.5 11.5t-11.5 28.5q0 20 15 32l86 64q2 2 8 5t11 3h20z" />
    <glyph glyph-name="caron" unicode="&#x2c7;" horiz-adv-x="400" 
d="M190 424q-5 0 -11 3t-8 5l-86 64q-15 12 -15 32q0 17 11.5 28.5t28.5 11.5q16 0 28 -10l62 -51l62 51q12 10 28 10q17 0 28.5 -11.5t11.5 -28.5q0 -20 -15 -32l-86 -64q-2 -2 -8 -5t-11 -3h-20z" />
    <glyph glyph-name="breve" unicode="&#x2d8;" horiz-adv-x="478" 
d="M238 404q-60 0 -102.5 23.5t-61.5 62.5q-4 9 -4 21q0 23 16.5 40t39.5 17q17 0 27.5 -8.5t25.5 -26.5q17 -21 34 -25t26 -4t26 4t34 25q15 18 25.5 26.5t27.5 8.5q23 0 39.5 -17t16.5 -40q0 -12 -4 -21q-19 -39 -61.5 -62.5t-104.5 -23.5z" />
    <glyph glyph-name="dotaccent" unicode="&#x2d9;" horiz-adv-x="260" 
d="M70 508q0 26 17 43t43 17t43 -17t17 -43t-17 -43t-43 -17t-43 17t-17 43z" />
    <glyph glyph-name="ring" unicode="&#x2da;" horiz-adv-x="364" 
d="M183 568q22 0 42.5 -9t35.5 -24t24 -35.5t9 -43.5t-9 -43t-24 -35.5t-35.5 -24.5t-42.5 -9q-23 0 -43.5 9t-36 24.5t-24.5 35.5t-9 43t9 43.5t24.5 35.5t36 24t43.5 9zM183 410q15 0 27 13t12 33t-12 31t-27 11q-17 0 -29 -11t-12 -31t12 -33t29 -13z" />
    <glyph glyph-name="ogonek" unicode="&#x2db;" horiz-adv-x="309" 
d="M189 -39q7 6 18 6q14 0 23 -9t9 -23q0 -8 -6 -17t-13 -13q-14 -11 -27.5 -15.5t-36.5 -4.5q-16 0 -31.5 2.5t-27.5 9.5t-19.5 19t-7.5 30q0 27 21 54h62q-13 -13 -13 -26q0 -9 4 -13.5t18 -4.5q17 0 27 5z" />
    <glyph glyph-name="tilde" unicode="&#x2dc;" horiz-adv-x="424" 
d="M320 446q-14 -7 -28 -11t-29 -4q-16 0 -30 5.5t-27 11.5t-26 11.5t-27 5.5q-5 0 -11.5 -0.5t-11.5 -1.5q-3 -1 -5.5 -1.5t-5.5 -0.5q-15 0 -28.5 10.5t-18.5 24.5q-2 8 -2 13q0 16 10 29t24 18q11 5 23 8.5t26 3.5q25 0 38.5 -5.5t24 -11.5t20.5 -11.5t28 -5.5q17 0 29 4
l6 2t6 1q15 0 28.5 -10.5t18.5 -24.5q2 -8 2 -13q0 -16 -10 -29t-24 -18z" />
    <glyph glyph-name="hungarumlaut" unicode="&#x2dd;" horiz-adv-x="446" 
d="M145 435q-8 -11 -17.5 -18t-31.5 -7q-26 0 -26 33q0 2 2 7.5t4 8.5l34 74q8 17 20 26t36 9q19 0 30 -12t11 -32q0 -4 -4 -14zM314 435q-8 -11 -17.5 -18t-31.5 -7q-26 0 -26 33q0 2 2 7.5t4 8.5l34 74q8 17 20 26t36 9q19 0 30 -12t11 -32q0 -4 -4 -14z" />
    <glyph glyph-name="uni03A9" unicode="&#x3a9;" horiz-adv-x="776" 
d="M387 470q-39 0 -67 -15t-46 -40.5t-26.5 -59.5t-8.5 -73q0 -63 4 -102.5t24 -65.5q3 -5 5.5 -9.5t2.5 -10.5v-43q0 -20 -15 -35.5t-35 -15.5h-105q-20 0 -35 15.5t-15 35.5q0 22 15 37.5t35 15.5h43q-13 16 -20.5 32.5t-11 37.5t-4.5 48t-1 63q0 60 18.5 113t52.5 92
t82.5 62t108.5 23t108.5 -23t82.5 -62t52.5 -92t18.5 -113q0 -36 -1 -63t-5 -48t-11 -37.5t-20 -32.5h43q20 0 35 -15.5t15 -37.5q0 -20 -15 -35.5t-35 -15.5h-105q-20 0 -35 15.5t-15 35.5v43q0 6 2.5 10.5t5.5 9.5q20 26 24 65.5t4 102.5q0 39 -8.5 73t-26.5 59.5
t-46.5 40.5t-68.5 15z" />
    <glyph glyph-name="pi" unicode="&#x3c0;" horiz-adv-x="698" 
d="M578 405q20 0 35 -15.5t15 -36.5q0 -20 -15 -35.5t-35 -15.5h-57v-245q0 -23 -17 -40t-40 -17t-39.5 17t-16.5 40v245h-118v-245q0 -23 -17 -40t-40 -17t-39.5 17t-16.5 40v245h-57q-20 0 -35 15.5t-15 35.5q0 21 15 36.5t35 15.5h458z" />
    <glyph glyph-name="ZWSP" unicode="&#x200b;" horiz-adv-x="0" 
 />
    <glyph glyph-name="endash" unicode="&#x2013;" horiz-adv-x="490" 
d="M120 145q-20 0 -35 15.5t-15 35.5q0 21 15 36.5t35 15.5h250q20 0 35 -15.5t15 -36.5q0 -20 -15 -35.5t-35 -15.5h-250z" />
    <glyph glyph-name="emdash" unicode="&#x2014;" horiz-adv-x="536" 
d="M120 145q-20 0 -35 15.5t-15 35.5q0 21 15 36.5t35 15.5h296q20 0 35 -15.5t15 -36.5q0 -20 -15 -35.5t-35 -15.5h-296z" />
    <glyph glyph-name="quoteleft" unicode="&#x2018;" horiz-adv-x="261" 
d="M123 549q7 19 27 19q12 0 20.5 -8.5t8.5 -20.5q0 -6 -1 -9l-15 -46q28 -16 28 -51q0 -26 -17.5 -43t-43.5 -17t-43 17t-17 43q0 16 7 26z" />
    <glyph glyph-name="quoteright" unicode="&#x2019;" horiz-adv-x="261" 
d="M138 392q-7 -19 -27 -19q-12 0 -20.5 8.5t-8.5 20.5q0 6 1 9l15 46q-28 16 -28 51q0 26 17.5 43t43.5 17t43 -17t17 -43q0 -16 -7 -26z" />
    <glyph glyph-name="quotesinglbase" unicode="&#x201a;" horiz-adv-x="261" 
d="M138 -69q-7 -19 -27 -19q-12 0 -20.5 8.5t-8.5 20.5q0 6 1 9l15 46q-28 16 -28 51q0 26 17.5 43t43.5 17t43 -17t17 -43q0 -16 -7 -26z" />
    <glyph glyph-name="quotedblleft" unicode="&#x201c;" horiz-adv-x="429" 
d="M123 549q7 19 27 19q12 0 20.5 -8.5t8.5 -20.5q0 -6 -1 -9l-15 -46q28 -16 28 -51q0 -26 -17.5 -43t-43.5 -17t-43 17t-17 43q0 16 7 26zM291 549q7 19 27 19q12 0 20.5 -8.5t8.5 -20.5q0 -6 -1 -9l-15 -46q28 -16 28 -51q0 -26 -17.5 -43t-43.5 -17t-43 17t-17 43
q0 16 7 26z" />
    <glyph glyph-name="quotedblright" unicode="&#x201d;" horiz-adv-x="429" 
d="M306 392q-7 -19 -27 -19q-12 0 -20.5 8.5t-8.5 20.5q0 6 1 9l15 46q-28 16 -28 51q0 26 17.5 43t43.5 17t43 -17t17 -43q0 -16 -7 -26zM138 392q-7 -19 -27 -19q-12 0 -20.5 8.5t-8.5 20.5q0 6 1 9l15 46q-28 16 -28 51q0 26 17.5 43t43.5 17t43 -17t17 -43q0 -16 -7 -26
z" />
    <glyph glyph-name="quotedblbase" unicode="&#x201e;" horiz-adv-x="429" 
d="M306 -69q-7 -19 -27 -19q-12 0 -20.5 8.5t-8.5 20.5q0 6 1 9l15 46q-28 16 -28 51q0 26 17.5 43t43.5 17t43 -17t17 -43q0 -16 -7 -26zM138 -69q-7 -19 -27 -19q-12 0 -20.5 8.5t-8.5 20.5q0 6 1 9l15 46q-28 16 -28 51q0 26 17.5 43t43.5 17t43 -17t17 -43q0 -16 -7 -26
z" />
    <glyph glyph-name="dagger" unicode="&#x2020;" horiz-adv-x="449" 
d="M281 302v-416q0 -23 -17 -40t-40 -17t-39.5 17t-16.5 40v416h-48q-20 0 -35 15.5t-15 35.5q0 21 15 36.5t35 15.5h48v106q0 23 16.5 40t39.5 17t40 -17t17 -40v-106h48q20 0 35 -15.5t15 -36.5q0 -20 -15 -35.5t-35 -15.5h-48z" />
    <glyph glyph-name="daggerdbl" unicode="&#x2021;" horiz-adv-x="449" 
d="M168 103v199h-48q-20 0 -35 15.5t-15 35.5q0 21 15 36.5t35 15.5h48v106q0 23 16.5 40t39.5 17t40 -17t17 -40v-106h48q20 0 35 -15.5t15 -36.5q0 -20 -15 -35.5t-35 -15.5h-48v-199h48q20 0 35 -15.5t15 -36.5q0 -20 -15 -35.5t-35 -15.5h-48v-114q0 -23 -17 -40
t-40 -17t-39.5 17t-16.5 40v114h-48q-20 0 -35 15.5t-15 35.5q0 21 15 36.5t35 15.5h48z" />
    <glyph glyph-name="bullet" unicode="&#x2022;" horiz-adv-x="281" 
d="M70 197q0 29 20.5 50t49.5 21t50 -21t21 -50t-21 -49.5t-50 -20.5t-49.5 20.5t-20.5 49.5z" />
    <glyph glyph-name="ellipsis" unicode="&#x2026;" horiz-adv-x="704" 
d="M70 55q0 26 17 43t43 17t43 -17t17 -43t-17 -43t-43 -17t-43 17t-17 43zM292 55q0 26 17 43t43 17t43 -17t17 -43t-17 -43t-43 -17t-43 17t-17 43zM514 55q0 26 17 43t43 17t43 -17t17 -43t-17 -43t-43 -17t-43 17t-17 43z" />
    <glyph glyph-name="perthousand" unicode="&#x2030;" horiz-adv-x="1198" 
d="M986 287q29 0 54.5 -11t45 -30.5t31 -45.5t11.5 -56q0 -29 -11.5 -55.5t-31 -46t-45 -31t-54.5 -11.5q-30 0 -56 11.5t-46 31t-31.5 46t-11.5 55.5q0 30 11.5 56t31.5 45.5t46 30.5t56 11zM986 85q20 0 35 16.5t15 42.5q0 25 -15 39t-35 14q-22 0 -37.5 -13.5
t-15.5 -39.5t15.5 -42.5t37.5 -16.5zM215 568q29 0 54.5 -11t45 -30.5t31 -45.5t11.5 -56q0 -29 -11.5 -55.5t-31 -46t-45 -31t-54.5 -11.5q-30 0 -56 11.5t-46 31t-31.5 46t-11.5 55.5q0 30 11.5 56t31.5 45.5t46 30.5t56 11zM215 366q20 0 35 16.5t15 42.5q0 25 -15 39
t-35 14q-22 0 -37.5 -13.5t-15.5 -39.5t15.5 -42.5t37.5 -16.5zM658 287q29 0 54.5 -11t45 -30.5t31 -45.5t11.5 -56q0 -29 -11.5 -55.5t-31 -46t-45 -31t-54.5 -11.5q-30 0 -56 11.5t-46 31t-31.5 46t-11.5 55.5q0 30 11.5 56t31.5 45.5t46 30.5t56 11zM658 85
q20 0 35 16.5t15 42.5q0 25 -15 39t-35 14q-22 0 -37.5 -13.5t-15.5 -39.5t15.5 -42.5t37.5 -16.5zM359 30q-7 -14 -22 -22t-31 -8q-22 0 -40.5 12.5t-18.5 36.5l265 489q7 14 22 22t31 8q22 0 40.5 -12.5t18.5 -36.5z" />
    <glyph glyph-name="guilsinglleft" unicode="&#x2039;" horiz-adv-x="472" 
d="M192 216l177 -88q14 -8 23.5 -23t9.5 -32q0 -2 -0.5 -4t-0.5 -4q-4 -20 -20.5 -34.5t-36.5 -14.5q-2 0 -4 0.5t-4 0.5l-208 104q-26 13 -42 38t-16 57t16 57t42 38l208 104q2 0 4 0.5t4 0.5q20 0 36.5 -14.5t20.5 -34.5q0 -2 0.5 -4t0.5 -4q0 -17 -9.5 -32t-23.5 -23z
" />
    <glyph glyph-name="guilsinglright" unicode="&#x203a;" horiz-adv-x="472" 
d="M103 304q-14 8 -23.5 23t-9.5 32q0 2 0.5 4t0.5 4q4 20 20.5 34.5t36.5 14.5q2 0 4 -0.5t4 -0.5l208 -104q26 -13 42 -38t16 -57t-16 -57t-42 -38l-208 -104q-2 0 -4 -0.5t-4 -0.5q-20 0 -36.5 14.5t-20.5 34.5q0 2 -0.5 4t-0.5 4q0 17 9.5 32t23.5 23l177 88z" />
    <glyph glyph-name="fraction" unicode="&#x2044;" horiz-adv-x="519" 
d="M339 638q7 14 21 22t30 8q22 0 40.5 -12.5t18.5 -36.5l-269 -715q-7 -14 -21 -22t-30 -8q-22 0 -40.5 12.5t-18.5 36.5z" />
    <glyph glyph-name="Euro" unicode="&#x20ac;" horiz-adv-x="700" 
d="M279 161q23 -31 58 -48.5t79 -17.5q39 0 73 14.5t60 38.5q13 10 31 10q21 0 35.5 -14.5t14.5 -35.5q0 -14 -7 -25t-18 -18q-38 -32 -86.5 -51t-101.5 -19q-44 0 -83.5 12t-73.5 34t-61 52.5t-44 67.5h-42q-17 0 -30 13.5t-13 30.5q0 18 13 31.5t30 13.5h16q-2 8 -2 17v18
v18h-14q-17 0 -30 13.5t-13 30.5q0 18 13 31.5t30 13.5h34q16 40 43 73.5t62 58t77 38t88 13.5q45 0 86.5 -13t76.5 -36q11 -7 19.5 -20t8.5 -27q0 -22 -16 -37.5t-37 -15.5q-5 0 -10 1t-10 3q-25 18 -55.5 29t-63.5 11q-48 0 -85 -21.5t-60 -56.5h58q17 0 30 -13.5
t13 -31.5q0 -17 -13 -30.5t-30 -13.5h-88q-1 -5 -1 -10.5v-10.5q0 -8 0.5 -16t1.5 -16h87q17 0 30 -13.5t13 -31.5q0 -17 -13 -30.5t-30 -13.5h-50z" />
    <glyph glyph-name="Numero" unicode="&#x2116;" horiz-adv-x="1101" 
d="M829 570q41 0 77.5 -16t64 -43.5t43.5 -64.5t16 -79t-16 -79.5t-43.5 -66t-64 -45t-77.5 -16.5q-43 0 -81 16.5t-66.5 45t-45 66t-16.5 79.5t16.5 79t45 64.5t66.5 43.5t81 16zM828 260q18 0 34 8t28.5 22t19.5 33.5t7 42.5q0 46 -26.5 72.5t-62.5 26.5q-39 0 -67 -26
t-28 -73q0 -23 7.5 -42.5t20.5 -33.5t30 -22t37 -8zM70 511q0 23 16.5 40t39.5 17q8 0 18 -2.5t18 -9.5l284 -226v181q0 23 16.5 40t39.5 17t40 -17t17 -40v-454q0 -23 -17 -40t-40 -17t-39.5 17t-16.5 40v133l-263 203v-336q0 -23 -17 -40t-40 -17t-39.5 17t-16.5 40v454z
M671 0q-20 0 -35 15.5t-15 35.5q0 21 15 36.5t35 15.5h310q20 0 35 -15.5t15 -36.5q0 -20 -15 -35.5t-35 -15.5h-310z" />
    <glyph glyph-name="trademark" unicode="&#x2122;" horiz-adv-x="702" 
d="M485 320q-4 0 -8 2.5t-7 5.5l-48 56v-78q0 -17 -12 -29t-29 -12t-29 12t-12 29v253q4 9 14 9q6 0 10 -3t7 -6l106 -122q8 -6 9 -6t9 6l106 122q3 3 7 6t10 3q10 0 14 -9v-253q0 -17 -12 -29t-29 -12t-29 12t-12 29v78l-48 -56q-3 -3 -7.5 -5.5t-9.5 -2.5zM232 499v-193
q0 -17 -12 -29t-29 -12t-29 12t-12 29v193h-46q-14 0 -24 10t-10 24t10 24.5t24 10.5h173q14 0 24 -10.5t10 -24.5t-10 -24t-24 -10h-45z" />
    <glyph glyph-name="Omega" unicode="&#x2126;" horiz-adv-x="776" 
d="M387 470q-39 0 -67 -15t-46 -40.5t-26.5 -59.5t-8.5 -73q0 -63 4 -102.5t24 -65.5q3 -5 5.5 -9.5t2.5 -10.5v-43q0 -20 -15 -35.5t-35 -15.5h-105q-20 0 -35 15.5t-15 35.5q0 22 15 37.5t35 15.5h43q-13 16 -20.5 32.5t-11 37.5t-4.5 48t-1 63q0 60 18.5 113t52.5 92
t82.5 62t108.5 23t108.5 -23t82.5 -62t52.5 -92t18.5 -113q0 -36 -1 -63t-5 -48t-11 -37.5t-20 -32.5h43q20 0 35 -15.5t15 -37.5q0 -20 -15 -35.5t-35 -15.5h-105q-20 0 -35 15.5t-15 35.5v43q0 6 2.5 10.5t5.5 9.5q20 26 24 65.5t4 102.5q0 39 -8.5 73t-26.5 59.5
t-46.5 40.5t-68.5 15z" />
    <glyph glyph-name="partialdiff" unicode="&#x2202;" horiz-adv-x="550" 
d="M273 95q19 0 36 8t30 22t20.5 33.5t7.5 42.5q0 46 -28 73.5t-66 27.5t-64 -28t-26 -73t26 -75.5t64 -30.5zM367 399q0 38 -27.5 55t-70.5 18q-8 0 -31.5 -1t-44.5 -6q-8 -2 -14 -2q-19 0 -33 14t-14 33q0 15 8.5 27.5t22.5 17.5q32 11 60 15.5t52 4.5q41 0 78.5 -10
t65.5 -31.5t44.5 -56t16.5 -83.5v-350q0 -18 -13 -31t-31 -13t-30.5 13t-12.5 31l-2 13q-8 -16 -24 -28t-35.5 -19.5t-40 -11t-37.5 -3.5q-40 0 -73.5 16.5t-58 45t-38.5 66t-14 79.5t14 79t39.5 64.5t60.5 43.5t76 16q7 0 19.5 -1t27.5 -5.5t30.5 -14t29.5 -25.5v40z" />
    <glyph glyph-name="Delta" unicode="&#x2206;" horiz-adv-x="752" 
d="M379 400l-153 -299h300zM120 0q-21 0 -35.5 14.5t-14.5 35.5q0 18 11 32l239 454q8 14 23 23t33 9t33 -9t23 -23l239 -454q11 -14 11 -32q0 -21 -14.5 -35.5t-35.5 -14.5h-512z" />
    <glyph glyph-name="product" unicode="&#x220f;" horiz-adv-x="698" 
d="M578 569q20 0 35 -15.5t15 -36.5q0 -20 -15 -35.5t-35 -15.5h-57v-409q0 -23 -17 -40t-40 -17t-39.5 17t-16.5 40v409h-118v-409q0 -23 -17 -40t-40 -17t-39.5 17t-16.5 40v409h-57q-20 0 -35 15.5t-15 35.5q0 21 15 36.5t35 15.5h458z" />
    <glyph glyph-name="summation" unicode="&#x2211;" horiz-adv-x="510" 
d="M72 525q-2 8 -2 12q0 13 8 22t18 9h292q22 0 37 -15t15 -37t-15 -36.5t-37 -14.5h-186l90 -223q5 -12 5 -23t-5 -23l-90 -223h186q22 0 37 -14.5t15 -36.5t-15 -37t-37 -15h-292q-10 0 -18 9t-8 22q0 4 2 12l118 306z" />
    <glyph glyph-name="minus" unicode="&#x2212;" horiz-adv-x="490" 
d="M120 145q-20 0 -35 15.5t-15 35.5q0 21 15 36.5t35 15.5h250q20 0 35 -15.5t15 -36.5q0 -20 -15 -35.5t-35 -15.5h-250z" />
    <glyph glyph-name="radical" unicode="&#x221a;" horiz-adv-x="803" 
d="M679 630q20 0 35 -15.5t15 -36.5q0 -20 -15 -35.5t-35 -15.5h-122l-270 -518q-5 -14 -21 -14t-21 14l-174 327q-1 3 -1 10q0 24 18.5 36.5t40.5 12.5q16 0 30 -8t21 -22l86 -177l205 412q7 14 21 22t30 8h157v0z" />
    <glyph glyph-name="infinity" unicode="&#x221e;" horiz-adv-x="944" 
d="M473 155q-35 -38 -82.5 -59.5t-110.5 -21.5q-39 0 -77 10t-67.5 31.5t-47.5 55.5t-18 81q0 87 55.5 133t154.5 46q32 0 58 -4.5t48.5 -15.5t43 -29t42.5 -45q22 27 42.5 45t43 29t48.5 15.5t58 4.5q99 0 154.5 -46t55.5 -133q0 -47 -18 -81t-47.5 -55.5t-67.5 -31.5
t-77 -10q-63 0 -110 21.5t-81 59.5zM280 326q-14 0 -31 -3t-31.5 -11.5t-24.5 -23t-10 -37.5q0 -17 8 -30.5t21.5 -22.5t31 -14t36.5 -5q22 0 40.5 2t36 8.5t35 19.5t36.5 34q-31 46 -68.5 64.5t-79.5 18.5zM664 326q-42 0 -79.5 -18.5t-68.5 -64.5q19 -21 36.5 -34
t35 -19.5t36 -8.5t40.5 -2q19 0 36.5 5t31 14t21.5 22.5t8 30.5q0 23 -10 37.5t-24.5 23t-31.5 11.5t-31 3z" />
    <glyph glyph-name="integral" unicode="&#x222b;" horiz-adv-x="489" 
d="M333 468q-9 0 -15.5 -3.5t-10 -14t-5 -28.5t-1.5 -46v-366q0 -56 -9 -91t-26.5 -55t-43 -27.5t-57.5 -7.5q-31 0 -55 7q-17 4 -28.5 17t-11.5 30q0 21 17 33.5t38 12.5h31q9 0 15.5 3.5t10 14t5 28t1.5 46.5v366q0 55 9 90.5t26.5 55.5t43 27.5t57.5 7.5q31 0 55 -7
q17 -4 28.5 -17t11.5 -30q0 -21 -17 -33.5t-38 -12.5h-31z" />
    <glyph glyph-name="approxequal" unicode="&#x2248;" horiz-adv-x="424" 
d="M320 69q-14 -7 -28 -11t-29 -4q-16 0 -30 5.5t-27 11.5t-26 11.5t-27 5.5q-5 0 -11.5 -0.5t-11.5 -1.5q-3 -1 -5.5 -1.5t-5.5 -0.5q-15 0 -28.5 10.5t-18.5 24.5q-2 8 -2 13q0 16 10 29t24 18q11 5 23 8.5t26 3.5q25 0 38.5 -5.5t24 -11.5t20.5 -11.5t28 -5.5q17 0 29 4
l6 2t6 1q15 0 28.5 -10.5t18.5 -24.5q2 -8 2 -13q0 -16 -10 -29t-24 -18zM320 223q-14 -7 -28 -11t-29 -4q-16 0 -30 5.5t-27 11.5t-26 11.5t-27 5.5q-5 0 -11.5 -0.5t-11.5 -1.5q-3 -1 -5.5 -1.5t-5.5 -0.5q-15 0 -28.5 10.5t-18.5 24.5q-2 8 -2 13q0 16 10 29t24 18
q11 5 23 8.5t26 3.5q25 0 38.5 -5.5t24 -11.5t20.5 -11.5t28 -5.5q17 0 29 4l6 2t6 1q15 0 28.5 -10.5t18.5 -24.5q2 -8 2 -13q0 -16 -10 -29t-24 -18z" />
    <glyph glyph-name="notequal" unicode="&#x2260;" horiz-adv-x="478" 
d="M210 15q-5 -13 -15 -21t-24 -8q-17 0 -29 12t-12 29q0 7 3 15l10 31h-24q-20 0 -34.5 15.5t-14.5 35.5q0 21 14.5 36.5t34.5 15.5h64l17 46h-81q-20 0 -34.5 15.5t-14.5 35.5q0 21 14.5 36.5t34.5 15.5h121l22 58q5 13 15 21t24 8q17 0 29 -12t12 -29q0 -8 -3 -15
l-10 -31h30q20 0 34.5 -15.5t14.5 -36.5q0 -20 -14.5 -35.5t-34.5 -15.5h-70l-17 -46h87q20 0 34.5 -15.5t14.5 -36.5q0 -20 -14.5 -35.5t-34.5 -15.5h-127z" />
    <glyph glyph-name="lessequal" unicode="&#x2264;" horiz-adv-x="472" 
d="M192 325l177 -74q14 -8 23.5 -23t9.5 -32q0 -2 -0.5 -4t-0.5 -4q-4 -20 -20.5 -34.5t-36.5 -14.5q-2 0 -4 0.5t-4 0.5l-208 90q-27 11 -42.5 37t-15.5 58t15.5 58t42.5 37l208 89q2 0 4 0.5t4 0.5q20 0 36.5 -14.5t20.5 -34.5q0 -2 0.5 -4t0.5 -4q0 -17 -9.5 -32
t-23.5 -23zM351 0q20 0 35 15.5t15 35.5q0 21 -15 36.5t-35 15.5h-231q-20 0 -35 -15.5t-15 -36.5q0 -20 15 -35.5t35 -15.5h231z" />
    <glyph glyph-name="greaterequal" unicode="&#x2265;" horiz-adv-x="472" 
d="M103 398q-14 8 -23.5 23t-9.5 32q0 2 0.5 4t0.5 4q4 20 20.5 34.5t36.5 14.5q2 0 4 -0.5t4 -0.5l208 -89q27 -11 42.5 -37t15.5 -58t-15.5 -58t-42.5 -37l-208 -90q-2 0 -4 -0.5t-4 -0.5q-20 0 -36.5 14.5t-20.5 34.5q0 2 -0.5 4t-0.5 4q0 17 9.5 32t23.5 23l177 74z
M352 0q20 0 35 15.5t15 35.5q0 21 -15 36.5t-35 15.5h-231q-20 0 -35 -15.5t-15 -36.5q0 -20 15 -35.5t35 -15.5h231z" />
    <glyph glyph-name="lozenge" unicode="&#x25ca;" horiz-adv-x="524" 
d="M263 434l-80 -152l80 -148l78 148zM262 -5q-18 0 -33 9t-23 23l-128 222q-8 14 -8 31q0 22 12 39l124 217q8 14 23 23t33 9t33 -9t23 -23l124 -217q12 -17 12 -39q0 -17 -8 -31l-128 -222q-8 -14 -23 -23t-33 -9z" />
    <glyph glyph-name="uni25CC" unicode="&#x25cc;" horiz-adv-x="199" 
 />
    <glyph glyph-name="Superstore" horiz-adv-x="645" 
d="M321 505q53 0 99 -20t80.5 -54.5t54.5 -80.5t20 -99q0 -52 -20 -97.5t-54.5 -79.5t-80.5 -54t-99 -20q-52 0 -97.5 20t-79.5 54t-54 79.5t-20 97.5q0 53 20 99t54 80.5t79.5 54.5t97.5 20zM428 90q14 0 23 5.5t9 21.5q0 17 -5.5 23.5t-18.5 6.5v133q0 26 -9.5 43
t-22.5 28q5 2 9.5 2h9.5h9.5t9.5 -2h11v65q-31 -4 -61.5 -11.5t-53.5 -20.5q-9 2 -17 2h-20q-23 0 -44 -3t-44 -11v-63h6q19 6 39.5 11t36.5 5q9 0 21.5 -0.5t24.5 -4.5t20 -13t8 -25l-82 -8q-18 -2 -36 -6t-33 -14t-24 -27t-9 -45q0 -42 28.5 -67t73.5 -25q11 0 22 0.5
t21 2.5v54l-6 4q-7 -3 -12 -3.5t-11 -0.5q-16 0 -30.5 9t-14.5 32q0 8 3.5 13.5t15.5 9.5t34.5 8t59.5 10v-71q0 -36 10 -52t40 -16h9z" />
    </font>
</defs>
</svg>
